<svg width="100%" height="100%" viewBox="0 0 24 24" fill="none" xmlns="http://www.w3.org/2000/svg">
<path fill-rule="evenodd" clip-rule="evenodd" d="M1.74512 5.93535C1.74512 4.94123 2.551 4.13535 3.54512 4.13535H20.4586C21.4527 4.13535 22.2586 4.94123 22.2586 5.93535V10.1181C22.2586 11.6645 21.005 12.9181 19.4586 12.9181H19.2165L19.1969 12.9183H4.80606L4.78642 12.9181H4.54512C2.99872 12.9181 1.74512 11.6645 1.74512 10.1181V5.93535ZM20.6586 10.1181C20.6586 10.4547 20.52 10.7589 20.2969 10.9768V9.6873C20.2969 8.69318 19.491 7.8873 18.4969 7.8873H5.50605C4.51194 7.8873 3.70605 8.69319 3.70605 9.6873V10.976C3.48334 10.7582 3.34512 10.4543 3.34512 10.1181V5.93535C3.34512 5.82489 3.43466 5.73535 3.54512 5.73535H20.4586C20.569 5.73535 20.6586 5.82489 20.6586 5.93535V10.1181ZM5.30605 11.3181H18.6969V9.6873C18.6969 9.57684 18.6073 9.4873 18.4969 9.4873H5.50605C5.3956 9.4873 5.30605 9.57684 5.30605 9.6873V11.3181ZM8.73185 14.66C8.73185 14.2181 8.37368 13.86 7.93186 13.86C7.49003 13.86 7.13186 14.2181 7.13186 14.66C7.13186 15.8106 6.73055 16.5428 6.32743 17.0119C6.00876 17.3827 5.76844 17.5397 5.54986 17.6824L5.54985 17.6824C5.44312 17.7522 5.34158 17.8185 5.23863 17.9047C4.89985 18.1883 4.85513 18.6928 5.13875 19.0316C5.42237 19.3704 5.92692 19.4151 6.2657 19.1315C6.19768 19.1885 6.98678 18.6995 7.54091 18.0547C8.1662 17.3271 8.73185 16.233 8.73185 14.66ZM12.0037 13.86C12.4455 13.86 12.8037 14.2181 12.8037 14.66V19.0662C12.8037 19.508 12.4455 19.8662 12.0037 19.8662C11.5619 19.8662 11.2037 19.508 11.2037 19.0662V14.66C11.2037 14.2181 11.5619 13.86 12.0037 13.86ZM15.274 14.66C15.274 14.2181 15.6322 13.86 16.074 13.86C16.5158 13.86 16.874 14.2181 16.874 14.66C16.874 15.8106 17.2753 16.5428 17.6784 17.0119C17.9971 17.3827 18.2374 17.5397 18.456 17.6824C18.5627 17.7522 18.6643 17.8185 18.7672 17.9047C19.106 18.1883 19.1507 18.6928 18.8671 19.0316C18.5835 19.3704 18.0789 19.4151 17.7402 19.1315C17.8082 19.1885 17.0191 18.6995 16.465 18.0547C15.8397 17.3271 15.274 16.233 15.274 14.66Z" fill="black"/>
</svg>
