<svg width="26" height="26" viewBox="0 0 24 24" fill="none" xmlns="http://www.w3.org/2000/svg">
<g id="Icon/Navigation/Left_Circle">
<path id="Union" fill-rule="evenodd" clip-rule="evenodd" d="M12.0002 1.20001C6.03552 1.20001 1.2002 6.03533 1.2002 12C1.2002 17.9647 6.03552 22.8 12.0002 22.8C17.9649 22.8 22.8002 17.9647 22.8002 12C22.8002 6.03533 17.9649 1.20001 12.0002 1.20001ZM2.8002 12C2.8002 6.91899 6.91917 2.80001 12.0002 2.80001C17.0812 2.80001 21.2002 6.91899 21.2002 12C21.2002 17.081 17.0812 21.2 12.0002 21.2C6.91917 21.2 2.8002 17.081 2.8002 12ZM12.3115 7.18433C12.6239 7.49675 12.6239 8.00328 12.3115 8.3157L9.17717 11.45H16.2458C16.6876 11.45 17.0458 11.8082 17.0458 12.25C17.0458 12.6918 16.6876 13.05 16.2458 13.05H9.17717L12.3115 16.1843C12.6239 16.4967 12.6239 17.0033 12.3115 17.3157C11.9991 17.6281 11.4925 17.6281 11.1801 17.3157L6.68012 12.8157C6.60341 12.739 6.54554 12.6506 6.5065 12.5562C6.46739 12.4619 6.4458 12.3585 6.4458 12.25C6.4458 12.0453 6.52391 11.8405 6.68012 11.6843L11.1801 7.18433C11.4925 6.87191 11.9991 6.87191 12.3115 7.18433Z" fill="current"/>
</g>
</svg>
