
<svg width="26" height="26" viewBox="0 0 24 24" fill="none" xmlns="http://www.w3.org/2000/svg">
<path fill-rule="evenodd" clip-rule="evenodd" d="M12.0002 1.20001C6.03552 1.20001 1.2002 6.03533 1.2002 12C1.2002 17.9647 6.03552 22.8 12.0002 22.8C17.9649 22.8 22.8002 17.9647 22.8002 12C22.8002 6.03533 17.9649 1.20001 12.0002 1.20001ZM2.8002 12C2.8002 6.91899 6.91917 2.80001 12.0002 2.80001C17.0812 2.80001 21.2002 6.91899 21.2002 12C21.2002 17.081 17.0812 21.2 12.0002 21.2C6.91917 21.2 2.8002 17.081 2.8002 12ZM11.1801 7.18433C10.8677 7.49675 10.8677 8.00328 11.1801 8.3157L14.3144 11.45H7.2458C6.80397 11.45 6.4458 11.8082 6.4458 12.25C6.4458 12.6918 6.80397 13.05 7.2458 13.05H14.3144L11.1801 16.1843C10.8677 16.4967 10.8677 17.0033 11.1801 17.3157C11.4925 17.6281 11.9991 17.6281 12.3115 17.3157L16.8115 12.8157C16.8882 12.739 16.9461 12.6506 16.9851 12.5562C17.0242 12.4619 17.0458 12.3585 17.0458 12.25C17.0458 12.0453 16.9677 11.8405 16.8115 11.6843L12.3115 7.18433C11.9991 6.87191 11.4925 6.87191 11.1801 7.18433Z" fill="current"/>
</svg>
