<svg 
	xmlns="http://www.w3.org/2000/svg" width="100%" height="100%" viewBox="0 0 28 28" fill="none">
	<path fill-rule="evenodd" clip-rule="evenodd" d="M14.6593 8.13974C14.7561 7.99974 14.963 7.99974 15.0598 8.13974L23.9525 21H21.7342C20.6847 20.2525 19.2142 18.9916 17.9791 17.4677C16.6273 15.7997 15.6693 13.9547 15.6693 12.2062C15.6693 11.6683 15.2333 11.2323 14.6954 11.2323L14.6923 11.2323L14.6892 11.2323C14.1513 11.2323 13.7153 11.6683 13.7153 12.2062C13.7153 13.9386 12.717 15.7775 11.294 17.4497C9.98899 18.9833 8.43281 20.2518 7.32619 21H5.76657L14.6593 8.13974ZM3.02942 22.3931C3.10015 22.5419 3.20964 22.6748 3.3549 22.7753C3.53236 22.898 3.73625 22.9536 3.93655 22.9478H7.52742C7.58493 22.9529 7.64301 22.953 7.70095 22.9478H21.3469C21.4047 22.9529 21.4627 22.9529 21.5201 22.9478H25.7825C25.9828 22.9536 26.1867 22.898 26.3642 22.7753C26.5394 22.6541 26.6626 22.4857 26.7285 22.2991C26.7961 22.1074 26.8033 21.8964 26.7443 21.6974C26.7129 21.591 26.6637 21.4922 26.6003 21.4043L16.6619 7.0319C15.7906 5.77192 13.9284 5.77192 13.0572 7.0319L3.12225 21.3993C3.01716 21.5429 2.95046 21.7164 2.93724 21.9046C2.93567 21.9268 2.93486 21.949 2.93482 21.9712C2.93481 21.9721 2.93481 21.973 2.93481 21.9739C2.93481 22.124 2.96877 22.2661 3.02942 22.3931ZM18.6528 21C17.92 20.3312 17.161 19.5518 16.4659 18.6941C15.7957 17.8671 15.161 16.938 14.6711 15.9406C14.1543 16.9469 13.4836 17.8823 12.7774 18.712C12.0537 19.5625 11.2643 20.3356 10.5015 21H18.6528Z" fill="current"/>
</svg>