<svg xmlns="http://www.w3.org/2000/svg" width="23" height="23" viewBox="0 0 23 23" fill="none">
  <path fill-rule="evenodd" clip-rule="evenodd" d="M11.6308 6.68625C11.7103 6.57125 11.8803 6.57125 11.9598 6.68625L19.2645 17.25H17.4424C16.5803 16.636 15.3723 15.6003 14.3578 14.3485C13.2474 12.9783 12.4605 11.4628 12.4605 10.0266C12.4605 9.58473 12.1023 9.22656 11.6605 9.22656L11.6579 9.22657L11.6554 9.22656C11.2135 9.22656 10.8554 9.58473 10.8554 10.0266C10.8554 11.4496 10.0354 12.9601 8.8665 14.3337C7.7945 15.5935 6.51621 16.6354 5.6072 17.25H4.32609L11.6308 6.68625ZM2.07772 18.3944C2.13581 18.5166 2.22575 18.6258 2.34507 18.7083C2.49084 18.8091 2.65832 18.8548 2.82286 18.85H5.7725C5.81974 18.8542 5.86745 18.8543 5.91504 18.85H17.1242C17.1717 18.8542 17.2193 18.8542 17.2664 18.85H20.7678C20.9323 18.8548 21.0998 18.8091 21.2456 18.7083C21.3895 18.6087 21.4907 18.4705 21.5448 18.3171C21.6004 18.1597 21.6063 17.9864 21.5578 17.8229C21.532 17.7355 21.4916 17.6543 21.4395 17.5821L13.2758 5.77624C12.5601 4.74125 11.0305 4.74125 10.3148 5.77624L2.15397 17.5781C2.06765 17.696 2.01285 17.8385 2.00199 17.9931C2.0007 18.0114 2.00004 18.0296 2 18.0478L2 18.05C2 18.1733 2.02789 18.2901 2.07772 18.3944ZM14.9112 17.25C14.3093 16.7007 13.6858 16.0605 13.1148 15.3559C12.5643 14.6766 12.0429 13.9134 11.6406 13.0941C11.216 13.9207 10.665 14.689 10.085 15.3706C9.49052 16.0693 8.84207 16.7043 8.21548 17.25H14.9112Z" fill="black"/>
</svg>