<svg width="100%" height="100%" viewBox="0 0 24 24" fill="none" xmlns="http://www.w3.org/2000/svg">
<path fill-rule="evenodd" clip-rule="evenodd" d="M9.53602 2.93329C9.82703 2.60083 9.79344 2.09542 9.46099 1.80441C9.12853 1.5134 8.62312 1.54699 8.33211 1.87944C8.1508 2.08657 7.81883 2.46686 7.69933 2.9576C7.5551 3.54992 7.74571 4.12906 8.23271 4.62972C8.55095 4.95688 8.6238 5.17177 8.63433 5.26865C8.64064 5.32677 8.63621 5.41144 8.49575 5.55216C8.18364 5.86488 8.18413 6.37142 8.49685 6.68353C8.80957 6.99565 9.3161 6.99516 9.62822 6.68244C10.0419 6.26798 10.2932 5.72443 10.225 5.09588C10.1609 4.50608 9.82879 3.97587 9.37961 3.51409C9.27771 3.40933 9.25644 3.35057 9.25344 3.34118C9.25314 3.34026 9.25286 3.34054 9.25276 3.34064L9.25272 3.34066L9.25391 3.33616C9.2582 3.31852 9.27386 3.2748 9.32468 3.1984C9.37591 3.12139 9.44429 3.03808 9.53602 2.93329ZM12.5751 2.93329C12.8661 2.60083 12.8325 2.09542 12.5 1.80441C12.1676 1.5134 11.6622 1.54699 11.3712 1.87944C11.1899 2.08657 10.8579 2.46686 10.7384 2.9576C10.5942 3.54992 10.7848 4.12906 11.2718 4.62972C11.59 4.95688 11.6629 5.17177 11.6734 5.26865C11.6797 5.32677 11.6753 5.41144 11.5348 5.55216C11.2227 5.86488 11.2232 6.37142 11.5359 6.68353C11.8486 6.99565 12.3552 6.99516 12.6673 6.68244C13.0809 6.26798 13.3323 5.72443 13.264 5.09588C13.2 4.50608 12.8679 3.97587 12.4187 3.51409C12.3168 3.40933 12.2955 3.35057 12.2925 3.34118C12.2923 3.34057 12.2921 3.34049 12.292 3.34053C12.2919 3.34056 12.2918 3.34067 12.2918 3.34066L12.293 3.33616C12.2973 3.31852 12.3129 3.2748 12.3637 3.1984C12.415 3.12139 12.4834 3.03808 12.5751 2.93329ZM15.5704 1.80441C15.9028 2.09542 15.9364 2.60083 15.6454 2.93329C15.5537 3.03808 15.4853 3.12139 15.4341 3.1984C15.3832 3.2748 15.3676 3.31852 15.3633 3.33616L15.3621 3.34066L15.3621 3.34064C15.3622 3.34054 15.3625 3.34026 15.3628 3.34118C15.3658 3.35057 15.3871 3.40933 15.489 3.51409C15.9382 3.97587 16.2703 4.50608 16.3343 5.09588C16.4026 5.72443 16.1512 6.26798 15.7376 6.68244C15.4255 6.99516 14.9189 6.99565 14.6062 6.68353C14.2935 6.37142 14.293 5.86488 14.6051 5.55216C14.7456 5.41144 14.75 5.32677 14.7437 5.26865C14.7332 5.17177 14.6603 4.95688 14.3421 4.62972C13.8551 4.12906 13.6645 3.54992 13.8087 2.9576C13.9282 2.46686 14.2602 2.08657 14.4415 1.87944C14.7325 1.54699 15.2379 1.5134 15.5704 1.80441ZM4.04297 7.88771C3.60709 7.89459 3.25586 8.25008 3.25586 8.6876C3.25586 9.12943 3.61403 9.4876 4.05586 9.4876H4.24149C4.73659 11.8611 6.09734 13.9678 8.07702 15.1615L5.42003 21.2746C5.2439 21.6798 5.42962 22.151 5.83482 22.3271C6.24003 22.5033 6.71129 22.3176 6.88741 21.9123L8.13253 19.0477H15.8681L17.1132 21.9123C17.2894 22.3176 17.7606 22.5033 18.1658 22.3271C18.571 22.151 18.7568 21.6798 18.5806 21.2746L15.9232 15.1605C17.9019 13.9666 19.262 11.8604 19.757 9.4876H19.9441C20.386 9.4876 20.7441 9.12943 20.7441 8.6876C20.7441 8.24956 20.3921 7.89375 19.9555 7.88768L19.9555 7.8876H19.9441H4.05586H4.04297L4.04297 7.88771ZM8.82796 17.4477L9.53106 15.83C10.2926 16.081 11.1185 16.2105 11.9992 16.1934C12.8807 16.2105 13.7073 16.0808 14.4693 15.8294L15.1727 17.4477H8.82796ZM5.87846 9.4876C6.61688 12.4627 8.9608 14.6521 11.9682 14.5937L11.9992 14.5931L12.0303 14.5937C15.0377 14.6521 17.3816 12.4627 18.12 9.4876H5.87846Z" fill="current"/>
</svg>
