<svg width="100%" height="100%" viewBox="0 0 24 24" fill="none" xmlns="http://www.w3.org/2000/svg">
<path fill-rule="evenodd" clip-rule="evenodd" d="M4.10718 9.5849V7.62167C4.10718 5.63344 5.71895 4.02167 7.70718 4.02167H16.2934C18.2816 4.02167 19.8934 5.63344 19.8934 7.62167V9.5849H20.166C21.602 9.5849 22.766 10.749 22.766 12.1849V17.3754C22.766 18.8113 21.602 19.9754 20.166 19.9754H3.83022C2.39428 19.9754 1.23022 18.8113 1.23022 17.3754V12.1849C1.23022 10.749 2.39428 9.5849 3.83022 9.5849H4.10718ZM5.70718 7.62167C5.70718 6.5171 6.60261 5.62167 7.70718 5.62167H16.2934C17.3979 5.62167 18.2934 6.5171 18.2934 7.62167V9.58066H15.6686V8.73495C15.6686 7.29901 14.5046 6.13495 13.0686 6.13495H10.9298C9.49389 6.13495 8.32983 7.29901 8.32983 8.73495V9.58066H5.70718V7.62167ZM2.83022 12.1849C2.83022 11.6326 3.27794 11.1849 3.83022 11.1849H20.166C20.7183 11.1849 21.166 11.6326 21.166 12.1849V13.654H2.83022V12.1849ZM2.83022 15.254V17.3754C2.83022 17.9277 3.27794 18.3754 3.83022 18.3754H20.166C20.7183 18.3754 21.166 17.9277 21.166 17.3754V15.254H2.83022ZM14.0686 8.73495C14.0686 8.43267 13.9345 8.16172 13.7225 7.97835C13.5472 7.82669 13.3186 7.73495 13.0686 7.73495H10.9298C10.6798 7.73495 10.4512 7.82669 10.2759 7.97835C10.064 8.16172 9.92983 8.43267 9.92983 8.73495V9.57835H14.0686V8.73495Z" fill="current"/>
</svg>
