<svg width="24" height="24" fill="current" xmlns="http://www.w3.org/2000/svg"><path fill-rule="evenodd" clip-rule="evenodd" d="M7.079 4.21a.112.112 0 0 0-.158 0 4.671 4.671 0 0 0-.434 6.106l1.181 1.575a22.198 22.198 0 0 0 4.44 4.44l1.576 1.182a4.671 4.671 0 0 0 6.105-.434.112.112 0 0 0 0-.158l-2.648-2.648a.2.2 0 0 0-.282 0l-1.022 1.02a1.333 1.333 0 0 1-1.539.25 13.064 13.064 0 0 1-5.842-5.841 1.333 1.333 0 0 1 .25-1.54l1.021-1.02a.2.2 0 0 0 0-.283L7.08 4.21zm-1.29-1.13a1.712 1.712 0 0 1 2.421 0l2.648 2.647a1.8 1.8 0 0 1 0 2.546l-.883.884a11.464 11.464 0 0 0 4.868 4.868l.884-.884a1.8 1.8 0 0 1 2.546 0l2.648 2.649a1.712 1.712 0 0 1 0 2.42 6.271 6.271 0 0 1-8.197.583l-1.575-1.182a23.798 23.798 0 0 1-4.76-4.76l-1.182-1.575a6.271 6.271 0 0 1 .582-8.197z" fill="current"/></svg>