<svg xmlns="http://www.w3.org/2000/svg" width="24" height="24" viewBox="0 0 24 24" fill="none">
  <path fill-rule="evenodd" clip-rule="evenodd" d="M3.29995 7.04364C3.29995 7.03857 3.30082 7.03574 3.30167 7.03374C3.30275 7.03119 3.30465 7.02814 3.30759 7.0252C3.31053 7.02226 3.31359 7.02035 3.31613 7.01928C3.31814 7.01843 3.32096 7.01756 3.32604 7.01756H19.3315C20.0614 7.01756 20.6578 7.58897 20.6978 8.30886L18.7704 8.30886L18.7701 8.30818H17.1679C16.1738 8.30818 15.3679 9.11407 15.3679 10.1082V10.5881C15.3679 11.5822 16.1738 12.3881 17.1679 12.3881H19.888C20.34 12.4091 20.7 12.7821 20.7 13.2393V15.3045C20.7 15.3096 20.6991 15.3124 20.6982 15.3144C20.6972 15.317 20.6953 15.32 20.6923 15.323C20.6894 15.3259 20.6863 15.3278 20.6838 15.3289C20.6818 15.3297 20.6789 15.3306 20.6739 15.3306H19.7561C19.4245 14.3689 18.5116 13.6781 17.4373 13.6781C17.3969 13.6781 17.3567 13.6791 17.3168 13.681C16.2836 13.7196 15.4138 14.3975 15.0915 15.3306H14.573V10.1082C14.573 9.11407 13.7672 8.30818 12.773 8.30818H11.4687C10.4746 8.30818 9.6687 9.11407 9.6687 10.1082V15.3306H8.96664C8.65141 14.4179 7.81239 13.7494 6.80893 13.6845C6.75018 13.6802 6.69086 13.6781 6.63103 13.6781C5.55673 13.6781 4.64378 14.3689 4.31221 15.3306H3.32604C3.32096 15.3306 3.31814 15.3297 3.31613 15.3289C3.31359 15.3278 3.31053 15.3259 3.30759 15.323C3.30465 15.32 3.30275 15.317 3.30167 15.3144C3.30082 15.3124 3.29995 15.3096 3.29995 15.3045V7.04364ZM15.0909 16.9306H14.573V16.9315H9.6687V16.9306H8.96722C8.6358 17.8925 7.72271 18.5836 6.64822 18.5836C5.57372 18.5836 4.66064 17.8925 4.32921 16.9306H3.32604C2.42797 16.9306 1.69995 16.2026 1.69995 15.3045V7.04364C1.69995 6.14558 2.42798 5.41756 3.32604 5.41756H19.3315C20.9709 5.41756 22.2999 6.74659 22.2999 8.38604C22.2999 9.22707 21.6182 9.90886 20.7771 9.90886H19.492L19.8882 10.7874C21.2239 10.8091 22.2999 11.8985 22.2999 13.2393V15.3045C22.2999 16.2026 21.5719 16.9306 20.6739 16.9306H19.7289C19.3975 17.8925 18.4844 18.5836 17.4099 18.5836C16.3354 18.5836 15.4224 17.8925 15.0909 16.9306ZM16.5851 16.3464C16.6804 16.713 17.0136 16.9836 17.4099 16.9836C17.8806 16.9836 18.2621 16.6021 18.2621 16.1314C18.2621 15.6608 17.8806 15.2793 17.4099 15.2793C17.4021 15.2793 17.3943 15.2794 17.3865 15.2796C16.9395 15.3059 16.5851 15.6767 16.5851 16.1303V16.3464ZM7.4832 16.1306C7.4832 15.6826 7.13752 15.3151 6.69835 15.2807C6.68176 15.2798 6.66505 15.2793 6.64822 15.2793C6.17758 15.2793 5.79604 15.6608 5.79604 16.1314C5.79604 16.6021 6.17758 16.9836 6.64822 16.9836C7.06025 16.9836 7.40398 16.6912 7.4832 16.3026V16.1306ZM12.973 15.3306H11.2687V10.1082C11.2687 9.99773 11.3582 9.90818 11.4687 9.90818H12.773C12.8835 9.90818 12.973 9.99773 12.973 10.1082V15.3306ZM17.3694 10.7871H18.1329L17.7368 9.90886H17.3694C17.259 9.90886 17.1694 9.9984 17.1694 10.1089V10.5871C17.1694 10.6976 17.259 10.7871 17.3694 10.7871ZM5.77339 8.30818C4.77928 8.30818 3.97339 9.11407 3.97339 10.1082V11.0327C3.97339 12.0268 4.77928 12.8327 5.77339 12.8327H7.07774C8.07185 12.8327 8.87774 12.0268 8.87774 11.0327V10.1082C8.87774 9.11407 8.07185 8.30818 7.07773 8.30818H5.77339ZM5.57339 10.1082C5.57339 9.99773 5.66293 9.90818 5.77339 9.90818H7.07773C7.18819 9.90818 7.27774 9.99773 7.27774 10.1082V11.0327C7.27774 11.1432 7.18819 11.2327 7.07774 11.2327H5.77339C5.66293 11.2327 5.57339 11.1432 5.57339 11.0327V10.1082Z" fill="black"/>
</svg>