<svg xmlns="http://www.w3.org/2000/svg" width="23" height="23" viewBox="0 0 23 23" fill="none">
  <path fill-rule="evenodd" clip-rule="evenodd" d="M14.142 5.1184C13.8292 4.39807 13.4616 3.76662 13.0577 3.27079C12.4833 2.56568 11.638 1.90998 10.6499 2.10942C9.6345 2.31437 9.10769 3.29129 8.8575 4.19662C8.67872 4.84355 8.59227 5.60886 8.59792 6.43702C8.51127 6.42887 8.42309 6.4247 8.33345 6.4247C8.2258 6.4247 8.11908 6.43113 8.01376 6.44366C7.89158 6.07479 7.70223 5.72452 7.47315 5.43201C7.07671 4.92579 6.39276 4.39594 5.52878 4.52151C5.09155 4.58507 4.78862 4.99103 4.85217 5.42827C4.91573 5.8655 5.32169 6.16843 5.75893 6.10488C5.7999 6.09892 5.97605 6.11536 6.21347 6.41852L6.22961 6.43948C4.54494 6.61334 3.44346 8.29359 3.39979 10.0302H3.0625C2.51022 10.0302 2.0625 10.4779 2.0625 11.0302V13.5419C2.0625 14.0176 2.39473 14.4158 2.83984 14.517V18.1747C2.83984 19.8316 4.18299 21.1747 5.83984 21.1747H17.1559C18.8127 21.1747 20.1559 19.8316 20.1559 18.1747V14.5164C20.5996 14.4142 20.9305 14.0167 20.9305 13.5419V11.0302C20.9305 10.4779 20.4828 10.0302 19.9305 10.0302H19.3436V7.35751C19.3436 6.23261 18.6803 5.26265 17.7234 4.81746C17.7711 4.68631 17.7971 4.54476 17.7971 4.39713C17.7971 3.71768 17.2463 3.16689 16.5668 3.16689H15.7967C15.1172 3.16689 14.5664 3.71768 14.5664 4.39713C14.5664 4.54529 14.5926 4.68733 14.6406 4.81888C14.4635 4.90153 14.2965 5.00215 14.142 5.1184ZM17.7436 10.0302H14.6234V7.35751C14.6234 6.69477 15.1607 6.15751 15.8234 6.15751H16.5436C17.2064 6.15751 17.7436 6.69477 17.7436 7.35751V10.0302ZM14.6187 11.6456V11.6464H9.74256L9.74368 11.6355H3.6625V12.9419H3.78347C3.80213 12.9408 3.82093 12.9403 3.83984 12.9403H19.1559C19.1748 12.9403 19.1936 12.9408 19.2122 12.9419H19.3305V11.6456H14.6187ZM8.71809 8.10116L8.71844 8.1043L9.04005 8.30999C9.21298 8.42059 9.45244 8.72364 9.63307 9.23134C9.72316 9.48457 9.78708 9.7577 9.82062 10.0302H5.00024C5.04347 8.75072 5.85779 8.0247 6.51902 8.0247C6.70135 8.0247 6.87881 8.07026 7.04906 8.16022L7.42284 8.35775L7.79663 8.16022C7.96422 8.07166 8.14825 8.0247 8.33345 8.0247C8.45828 8.0247 8.58857 8.05057 8.71809 8.10116ZM11.4527 10.0302H13.0187V6.6689C12.6825 5.63592 12.2493 4.81177 11.8172 4.28134C11.3301 3.68344 11.0313 3.6647 10.9665 3.67779C10.8984 3.69152 10.617 3.83634 10.3997 4.62281C10.2217 5.267 10.1496 6.15369 10.2309 7.1792C10.9785 7.86601 11.4252 8.93693 11.4527 10.0302ZM4.43984 18.1747V14.5419H18.5559V18.1747C18.5559 18.9479 17.9291 19.5747 17.1559 19.5747H5.83984C5.06664 19.5747 4.43984 18.9479 4.43984 18.1747Z" fill="black"/>
</svg>