<svg xmlns="http://www.w3.org/2000/svg" width="24" height="25" fill="none"><path d="M10.278 0C9.001 0 8.21 1.38 8.805 2.488c.33.618.658 1.238.997 1.851-2.485 4.572-6.654 12.917-8.707 17.076-.375.761-.325 1.57.069 2.197.393.625 1.1 1.022 1.946 1.022h7.974a2.5 2.5 0 0 0 2.5-2.5v-3.04a1.733 1.733 0 1 0-3.465 0v2.177a.354.354 0 0 1-.353.354H5.477a.497.497 0 0 1-.446-.725c1.646-3.197 5.509-10.695 6.823-13.193 1.601 2.971 6.99 13.01 8.495 15.928.312.605.937 1 1.628 1 1.19 0 1.976-1.215 1.416-2.301-1.897-3.68-6.726-12.93-9.551-17.997l1.032-1.847C15.502 1.35 14.66 0 13.384 0c-.725 0-1.229.436-1.556 1.039C11.512.439 10.99 0 10.278 0z" fill="#3E874E"/></svg>