<svg xmlns="http://www.w3.org/2000/svg" width="16" height="16" viewBox="0 0 16 16" fill="none">
  <path fill-rule="evenodd" clip-rule="evenodd" d="M3.78136 4.05385C3.90097 3.76148 4.22608 3.53346 4.62853 3.53346H11.371C11.7735 3.53346 12.0986 3.76148 12.2182 4.05386L13.2054 6.4668H2.79421L3.78136 4.05386L3.78136 4.05385ZM1.47842 6.88736C1.46931 6.92924 1.46544 6.97141 1.46647 7.01307V11.6668V13.0001C1.46647 13.2947 1.70525 13.5335 1.9998 13.5335H3.33314C3.62769 13.5335 3.86647 13.2947 3.86647 13.0001V12.2001H12.1331V13.0001C12.1331 13.2947 12.3719 13.5335 12.6665 13.5335H13.9998C14.2944 13.5335 14.5331 13.2947 14.5331 13.0001V11.6668V7.01113C14.5339 6.9767 14.5312 6.94191 14.5251 6.90725C14.5177 6.865 14.5053 6.82446 14.4885 6.78625L13.2055 3.64998C12.9057 2.91735 12.1624 2.4668 11.371 2.4668H4.62853C3.83712 2.4668 3.09383 2.91735 2.79411 3.64997L2.79411 3.64998L1.51036 6.78793C1.49661 6.81959 1.48584 6.85286 1.47842 6.88736ZM13.4665 12.2001H13.1998V12.4668H13.4665V12.2001ZM12.6665 11.1335H13.4665V7.53346H2.53314V11.1335H3.33314H12.6665ZM2.53314 12.4668V12.2001H2.7998V12.4668H2.53314ZM4.33317 10.3335C4.88546 10.3335 5.33317 9.88578 5.33317 9.3335C5.33317 8.78121 4.88546 8.3335 4.33317 8.3335C3.78089 8.3335 3.33317 8.78121 3.33317 9.3335C3.33317 9.88578 3.78089 10.3335 4.33317 10.3335ZM12.6665 9.3335C12.6665 9.88578 12.2188 10.3335 11.6665 10.3335C11.1142 10.3335 10.6665 9.88578 10.6665 9.3335C10.6665 8.78121 11.1142 8.3335 11.6665 8.3335C12.2188 8.3335 12.6665 8.78121 12.6665 9.3335Z" fill="#949494"/>
</svg>