<svg xmlns="http://www.w3.org/2000/svg" width="100%" height="100%" viewBox="0 0 23 20">
  <path fill-rule="evenodd" clip-rule="evenodd" d="M3.47912 0.705154C2.81637 0.705154 2.27912 1.24241 2.27912 1.90515V3.04588C2.27912 3.34484 2.38844 3.61827 2.5693 3.82836L0.238175 18.57C0.169165 19.0064 0.468162 19.4081 0.906002 19.4674C1.34384 19.5266 1.75473 19.2208 1.82374 18.7844L4.12275 4.24588H18.8749L21.1739 18.7844C21.243 19.2208 21.6538 19.5266 22.0917 19.4674C22.5295 19.4081 22.8285 19.0064 22.7595 18.57L20.4294 3.83497C20.6137 3.62402 20.7253 3.34799 20.7253 3.04588V1.90515C20.7253 1.24242 20.1881 0.705154 19.5253 0.705154H3.47912ZM3.87912 2.64588V2.30515H19.1253V2.64588H3.87912ZM7.28862 4.74031C6.445 4.74031 5.69231 5.25817 5.38152 6.03926L3.44546 10.9178C3.35084 11.1568 3.29865 11.4174 3.29865 11.6826V16.0696C3.29865 17.2042 4.21004 18.1372 5.35308 18.1372H5.70392V19.0949C5.70392 19.3158 5.88301 19.4949 6.10392 19.4949H7.5572C7.77812 19.4949 7.9572 19.3158 7.9572 19.0949V18.1372H14.5516V19.0949C14.5516 19.3158 14.7307 19.4949 14.9516 19.4949H16.4049C16.6258 19.4949 16.8049 19.3158 16.8049 19.0949V18.1372H17.6475C18.4744 18.1372 19.183 17.6472 19.5093 16.9475L19.5097 16.9465C19.6351 16.6768 19.7019 16.3784 19.7019 16.0696V11.6826C19.7019 11.4174 19.6494 11.1561 19.5548 10.9171L17.619 6.03926C17.3082 5.25817 16.5555 4.74031 15.7119 4.74031H7.28862ZM4.93314 11.5067L6.86816 6.63078C6.93962 6.4514 7.10818 6.34031 7.28862 6.34031H15.7119C15.8924 6.34031 16.0609 6.4514 16.1324 6.63078L18.0676 11.5071C18.0904 11.565 18.1019 11.6261 18.1019 11.6826V16.0696C18.1019 16.1468 18.0855 16.2146 18.0591 16.2715C17.9836 16.4331 17.8249 16.5372 17.6475 16.5372H5.35308C5.10938 16.5372 4.89865 16.3363 4.89865 16.0696V11.6826C4.89865 11.626 4.91021 11.5647 4.93314 11.5067ZM6.91584 7.87703C7.20359 7.25601 7.84721 6.9239 8.47638 6.9239H14.5177C15.1468 6.9239 15.7905 7.25601 16.0782 7.87703L17.4668 10.8816C17.5544 11.0718 17.6056 11.2854 17.6056 11.5069V14.2088C17.6056 14.4641 17.5409 14.7074 17.4248 14.9221L17.4242 14.923C17.1252 15.4736 16.5267 15.7895 15.9059 15.7895H7.08818C6.25939 15.7895 5.38849 15.185 5.38849 14.2088V11.5069C5.38849 11.2854 5.43931 11.0725 5.52698 10.8823L6.91584 7.87703ZM7.8087 9.759L6.98849 11.5338V14.1655C7.00672 14.1764 7.03981 14.1895 7.08818 14.1895H15.9059C15.9507 14.1895 15.9836 14.1782 16.0035 14.167L16.0056 14.1658V11.5338L15.1876 9.76391C14.9818 9.94211 14.7534 10.0947 14.5203 10.2212C13.7069 10.6624 12.6379 10.9106 11.501 10.9106C10.3641 10.9106 9.29513 10.6624 8.48172 10.2212C8.24644 10.0936 8.01597 9.93931 7.8087 9.759ZM8.82446 8.5239C8.92374 8.61577 9.05968 8.71447 9.24458 8.81476C9.78134 9.1059 10.5776 9.31062 11.501 9.31062C12.4243 9.31062 13.2206 9.1059 13.7574 8.81476C13.9423 8.71447 14.0782 8.61577 14.1775 8.5239H8.82446ZM9.18048 11.4387C9.18048 11.8573 8.8412 12.1965 8.42267 12.1965C8.00414 12.1965 7.66486 11.8573 7.66486 11.4387C7.66486 11.0202 8.00414 10.6809 8.42267 10.6809C8.8412 10.6809 9.18048 11.0202 9.18048 11.4387ZM14.575 12.1965C14.9935 12.1965 15.3328 11.8573 15.3328 11.4387C15.3328 11.0202 14.9935 10.6809 14.575 10.6809C14.1565 10.6809 13.8172 11.0202 13.8172 11.4387C13.8172 11.8573 14.1565 12.1965 14.575 12.1965ZM11.2313 12.1145C11.2313 12.533 10.892 12.8723 10.4735 12.8723C10.0549 12.8723 9.71564 12.533 9.71564 12.1145C9.71564 11.696 10.0549 11.3567 10.4735 11.3567C10.892 11.3567 11.2313 11.696 11.2313 12.1145ZM12.5242 12.8723C12.9428 12.8723 13.282 12.533 13.282 12.1145C13.282 11.696 12.9428 11.3567 12.5242 11.3567C12.1057 11.3567 11.7664 11.696 11.7664 12.1145C11.7664 12.533 12.1057 12.8723 12.5242 12.8723Z" fill="black"/>
</svg>