<svg width="24" height="24" viewBox="0 0 24 24" fill="none" xmlns="http://www.w3.org/2000/svg">
<g id="Icon/Function/checkbox">
<path id="Subtract" d="M21 12C21 16.9706 16.9706 21 12 21C7.02944 21 3 16.9706 3 12C3 7.02944 7.02944 3 12 3C16.9706 3 21 7.02944 21 12Z" fill="#4F9E4F"/>
<path id="Vector 116 (Stroke)" fill-rule="evenodd" clip-rule="evenodd" d="M16.5121 8.38564C16.8515 8.66849 16.8974 9.17294 16.6145 9.51236L11.6145 15.5124C11.4706 15.685 11.2607 15.7892 11.0362 15.7994C10.8117 15.8096 10.5932 15.7248 10.4343 15.5659L7.43427 12.5659C7.12185 12.2535 7.12185 11.7469 7.43427 11.4345C7.74669 11.1221 8.25322 11.1221 8.56564 11.4345L10.9462 13.8151L15.3854 8.48807C15.6682 8.14865 16.1727 8.10279 16.5121 8.38564Z" fill="white"/>
</g>
</svg>
