<svg xmlns="http://www.w3.org/2000/svg" width="12" height="13" viewBox="0 0 12 13" fill="none">
  <path d="M5.9399 3.67969C5.80825 3.68011 5.68126 3.72845 5.58265 3.81569C5.48405 3.90292 5.42058 4.02307 5.4041 4.15369L5.3999 4.21969V6.55969C5.3999 6.60289 5.4047 6.64429 5.4137 6.68449C5.41783 6.79182 5.45398 6.89547 5.5175 6.98209L5.5715 7.04509L6.9293 8.40289C7.02598 8.49997 7.15594 8.55668 7.29287 8.56152C7.42979 8.56636 7.56344 8.51897 7.66673 8.42896C7.77002 8.33894 7.83523 8.21303 7.84915 8.07672C7.86307 7.94042 7.82466 7.80393 7.7417 7.69489L7.6931 7.63909L6.4799 6.42589V4.21969C6.4799 4.07647 6.42301 3.93912 6.32174 3.83785C6.22047 3.73658 6.08312 3.67969 5.9399 3.67969Z" fill="#949494"/>
  <path d="M10.8002 6.49922C10.8002 7.77226 10.2945 8.99316 9.39431 9.89333C8.49413 10.7935 7.27323 11.2992 6.0002 11.2992C4.72716 11.2992 3.50626 10.7935 2.60608 9.89333C1.70591 8.99316 1.2002 7.77226 1.2002 6.49922C1.2002 5.22618 1.70591 4.00528 2.60608 3.10511C3.50626 2.20493 4.72716 1.69922 6.0002 1.69922C7.27323 1.69922 8.49413 2.20493 9.39431 3.10511C10.2945 4.00528 10.8002 5.22618 10.8002 6.49922ZM9.6002 6.49922C9.6002 5.54444 9.22091 4.62877 8.54578 3.95363C7.87065 3.2785 6.95498 2.89922 6.0002 2.89922C5.04542 2.89922 4.12974 3.2785 3.45461 3.95363C2.77948 4.62877 2.4002 5.54444 2.4002 6.49922C2.4002 7.454 2.77948 8.36967 3.45461 9.0448C4.12974 9.71993 5.04542 10.0992 6.0002 10.0992C6.95498 10.0992 7.87065 9.71993 8.54578 9.0448C9.22091 8.36967 9.6002 7.454 9.6002 6.49922Z" fill="#949494"/>
</svg>