<svg xmlns="http://www.w3.org/2000/svg" width="26" height="26" viewBox="0 0 26 26" fill="none">
  <circle cx="13" cy="13" r="9.75" fill="#E8E8E8"/>
  <path fill-rule="evenodd" clip-rule="evenodd" d="M10.3628 9.13665C10.0243 8.7982 9.4756 8.7982 9.13714 9.13665C8.79869 9.47511 8.79869 10.0239 9.13714 10.3623L11.7744 12.9995L9.13725 15.6367C8.79879 15.9751 8.79879 16.5238 9.13725 16.8623C9.4757 17.2008 10.0244 17.2008 10.3629 16.8623L13 14.2252L15.6371 16.8623C15.9756 17.2008 16.5243 17.2008 16.8628 16.8623C17.2012 16.5238 17.2012 15.9751 16.8628 15.6367L14.2257 12.9995L16.8629 10.3623C17.2014 10.0239 17.2014 9.47511 16.8629 9.13665C16.5244 8.7982 15.9757 8.7982 15.6372 9.13665L13 11.7739L10.3628 9.13665Z" fill="current"/>
</svg>