<svg width="24" height="24" fill="none" xmlns="http://www.w3.org/2000/svg"><path fill-rule="evenodd" clip-rule="evenodd" d="M12 2.8c-.408 0-.81.027-1.202.078a.8.8 0 0 1-.207-1.587c.461-.06.932-.09 1.41-.09 5.964 0 10.8 4.835 10.8 10.8 0 5.964-4.836 10.8-10.8 10.8-5.965 0-10.8-4.836-10.8-10.8 0-.478.03-.949.09-1.41a.8.8 0 1 1 1.587.207A9.2 9.2 0 1 0 12 2.8zm-3.089-.347a.8.8 0 0 1-.432 1.045 9.19 9.19 0 0 0-2.08 1.203.8.8 0 1 1-.974-1.27 10.79 10.79 0 0 1 2.44-1.411.8.8 0 0 1 1.046.433zM4.554 5.278A.8.8 0 0 1 4.7 6.4a9.19 9.19 0 0 0-1.203 2.079.8.8 0 1 1-1.478-.613 10.79 10.79 0 0 1 1.412-2.441.8.8 0 0 1 1.122-.147zM11.439 6a.8.8 0 0 1 1.6 0l.001 6.005a.8.8 0 0 1-.234.565l-4.24 4.24a.8.8 0 0 1-1.131-1.131l4.005-4.006V6z" fill="#333"/></svg>