<svg width="100%" height="100%" viewBox="0 0 24 24" fill="none" xmlns="http://www.w3.org/2000/svg">
<path fill-rule="evenodd" clip-rule="evenodd" d="M8.07185 13.5424C8.48837 14.4484 9.5808 14.8179 10.4618 14.3508C11.275 13.9197 11.6102 12.9287 11.2257 12.0924L9.94092 9.29803C9.77737 8.94231 9.76436 8.76274 9.77613 8.65363C9.78903 8.53394 9.84331 8.38195 10.0293 8.08529L10.033 8.07947L10.033 8.07945L10.033 8.07937C10.124 7.93422 10.23 7.7651 10.3338 7.58024L10.3338 7.58023L10.3389 7.57112C10.4982 7.33135 10.6068 7.02433 10.6507 6.70985C10.7008 6.3516 10.6757 5.9234 10.4911 5.49665L9.44041 2.30954L9.43983 2.30777C9.16724 1.47364 8.22841 1.06318 7.43084 1.42987L2.59485 3.65331C1.79726 4.02001 1.49766 4.99991 1.95343 5.74986L1.95435 5.75138L3.68963 8.62373C3.89339 9.04168 4.20207 9.3395 4.5066 9.53472C4.77393 9.70609 5.07768 9.82353 5.36335 9.85874L5.37359 9.86078L5.37361 9.86079C5.58153 9.90236 5.77896 9.93198 5.94841 9.9574L5.94843 9.9574L5.95522 9.95842C6.21525 9.99743 6.32312 10.0637 6.40393 10.14C6.51325 10.2433 6.64188 10.4322 6.83135 10.8443L8.07185 13.5424ZM9.71228 12.9372C9.64346 12.9737 9.55811 12.9448 9.52556 12.8741L8.28506 10.1759C8.0783 9.72625 7.84573 9.30091 7.50244 8.97674C7.13063 8.62564 6.69445 8.45141 6.19259 8.37612C6.03527 8.35252 5.88819 8.33035 5.73912 8.30195C5.68061 8.28466 5.61961 8.27392 5.55715 8.27042L5.55669 8.27033C5.55279 8.26958 5.53725 8.26658 5.51091 8.25742C5.47142 8.24369 5.42193 8.22096 5.3701 8.18773C5.26565 8.12078 5.17591 8.02756 5.12192 7.91011C5.10938 7.88284 5.09532 7.8563 5.0798 7.83061L3.39717 5.04543L7.96526 2.94517L8.98403 6.03557C8.99343 6.06408 9.00442 6.09203 9.01696 6.11929C9.07096 6.23674 9.0833 6.36555 9.06613 6.48842C9.05761 6.54939 9.04265 6.60175 9.02736 6.64067C9.01717 6.66663 9.00932 6.68038 9.00736 6.68383L9.00713 6.68423C8.96912 6.73393 8.93756 6.78721 8.9126 6.84289C8.83711 6.97453 8.75819 7.10061 8.67369 7.23539C8.45045 7.59148 8.2379 7.99453 8.18534 8.48215C8.13164 8.98034 8.25453 9.46034 8.48721 9.9664L9.77197 12.7608C9.802 12.8261 9.77582 12.9035 9.71228 12.9372ZM7.9507 6.86197C7.52699 6.98721 7.08198 6.74526 6.95673 6.32156L6.57392 5.02648C6.44867 4.60278 6.69062 4.15777 7.11433 4.03252C7.53803 3.90728 7.98305 4.14923 8.10829 4.57293L8.4911 5.868C8.61635 6.29171 8.3744 6.73672 7.9507 6.86197ZM6.48849 7.33206C6.8594 7.09197 6.96544 6.59666 6.72535 6.22576L5.99151 5.09208C5.75141 4.72117 5.25611 4.61513 4.88521 4.85522C4.5143 5.09531 4.40826 5.59062 4.64835 5.96152L5.38219 7.0952C5.62228 7.4661 6.11759 7.57215 6.48849 7.33206ZM3.20357 15.0216C2.98659 15.0216 2.77891 15.1097 2.62816 15.2658C2.47742 15.4219 2.39653 15.6325 2.40405 15.8493C2.42646 16.4958 2.6536 17.0978 2.93338 17.5842C2.81698 17.626 2.71064 17.6946 2.62372 17.7861C2.47269 17.945 2.39348 18.1589 2.40459 18.3778C2.43408 18.9588 2.73211 19.4458 3.00835 19.7762C3.28539 20.1076 3.62298 20.3806 3.91025 20.5376C4.45146 20.8531 5.10938 21.1602 6.45452 21.443C6.61868 21.4775 6.80044 21.5537 6.93046 21.659C7.04721 21.7535 7.10121 21.8502 7.11131 21.9714C7.14586 22.386 7.49247 22.7049 7.90854 22.7049H15.6653C16.0813 22.7049 16.4279 22.386 16.4625 21.9714C16.4726 21.8502 16.5266 21.7535 16.6433 21.659C16.7734 21.5537 16.9551 21.4775 17.1193 21.443C18.4644 21.1602 19.1223 20.8531 19.6635 20.5376C19.9508 20.3806 20.2884 20.1076 20.5655 19.7762C20.8417 19.4458 21.1397 18.9588 21.1692 18.3778C21.1803 18.1589 21.1011 17.945 20.9501 17.7861C20.8632 17.6946 20.7568 17.626 20.6404 17.5842C20.9202 17.0978 21.1473 16.4958 21.1698 15.8493C21.1773 15.6325 21.0964 15.4219 20.9456 15.2658C20.7949 15.1097 20.5872 15.0216 20.3702 15.0216H3.20357ZM18.6937 17.5372C18.7319 17.4632 18.7823 17.3939 18.8451 17.3324C19.0053 17.1752 19.1957 16.9185 19.3413 16.6216H4.23248C4.37812 16.9185 4.56846 17.1752 4.72874 17.3324C4.79147 17.3939 4.84193 17.4632 4.88008 17.5372H18.6937ZM4.70662 19.1498C4.69924 19.1455 4.69179 19.1413 4.68428 19.1372H18.8895C18.882 19.1413 18.8746 19.1455 18.8672 19.1498C18.4815 19.3754 17.987 19.6256 16.7901 19.8773C16.2998 19.9803 15.4583 20.3243 15.0689 21.1049H8.50488C8.11546 20.3243 7.27397 19.9803 6.78371 19.8773C5.58681 19.6256 5.09231 19.3754 4.70662 19.1498ZM13.8388 12.9584C13.891 12.9952 13.9634 12.9792 13.9953 12.9239L15.4779 10.3561C15.7552 9.87574 16.0833 9.47987 16.5067 9.20151C16.9372 8.91847 17.4061 8.79638 17.8979 8.76869C18.081 8.75837 18.2486 8.74795 18.4115 8.73121C19.8699 8.52219 20.5397 7.60523 20.6457 6.6301C20.7575 5.60137 20.2473 4.45038 19.142 3.84464C19.1315 3.83893 19.1213 3.83299 19.1111 3.82682C18.0295 3.16981 16.7353 3.28655 15.8633 3.89076C15.0422 4.45979 14.5694 5.47443 15.1109 6.82562C15.1779 6.97507 15.2526 7.12544 15.3353 7.28916C15.5132 7.64173 15.7091 8.06599 15.7547 8.55247C15.8034 9.07194 15.6763 9.57818 15.3722 10.1049L13.8073 12.8154C13.7793 12.864 13.7929 12.926 13.8388 12.9584ZM15.381 13.7239C14.8787 14.5939 13.738 14.8449 12.917 14.2661C12.1946 13.7569 11.9798 12.7808 12.4217 12.0154L13.9866 9.30493C14.1567 9.01024 14.174 8.83271 14.1617 8.70181C14.1464 8.53792 14.076 8.34522 13.9068 8.00999C13.8212 7.8404 13.7291 7.65594 13.6436 7.4637C13.6398 7.45536 13.6363 7.44695 13.6328 7.43848C12.7934 5.36459 13.5337 3.55848 14.952 2.57565C16.3179 1.6292 18.2861 1.46209 19.9265 2.45012C21.6066 3.37906 22.4152 5.1569 22.2363 6.80296C22.0514 8.50472 20.8181 10.0102 18.6198 10.3177C18.6148 10.3184 18.6098 10.319 18.6048 10.3196C18.6008 10.3201 18.5967 10.3206 18.5926 10.321C18.3833 10.343 18.1775 10.3555 17.9878 10.3662C17.7104 10.3818 17.5303 10.4433 17.3856 10.5385C17.2338 10.6383 17.0604 10.8151 16.8635 11.1561L15.381 13.7239ZM17.0052 7.23377C16.6427 7.48637 16.1441 7.39729 15.8915 7.0348C15.6109 6.63219 15.4627 5.98933 15.5665 5.39743C15.622 5.08076 15.7566 4.73771 16.0243 4.4467C16.2975 4.14975 16.6659 3.95466 17.1036 3.87313C17.538 3.79224 17.9557 4.07878 18.0366 4.51314C18.1175 4.94749 17.831 5.36519 17.3966 5.44608C17.2599 5.47155 17.2153 5.5153 17.2018 5.53002C17.1828 5.55069 17.1567 5.59216 17.1424 5.67381C17.1276 5.75817 17.1305 5.86101 17.1514 5.96155C17.1719 6.06018 17.2003 6.11276 17.2038 6.11937L17.2038 6.11938C17.2042 6.11997 17.2043 6.12019 17.2042 6.12003C17.4568 6.48253 17.3677 6.98116 17.0052 7.23377Z" fill="current"/>
</svg>
