<svg xmlns="http://www.w3.org/2000/svg" width="24" height="24" fill="none"><path fill-rule="evenodd" clip-rule="evenodd" d="M11.027 3.2H7.945c-.896 0-1.648 0-2.246.08-.634.085-1.213.273-1.679.74-.466.466-.655 1.045-.74 1.678-.08.598-.08 1.35-.08 2.246v3.082c0 .443 0 .816.02 1.122.023.32.07.625.193.923a2.8 2.8 0 0 0 1.515 1.515c.298.123.604.17.923.192.307.021.68.021 1.122.021H7v-1.6c-.477 0-.795 0-1.04-.017-.238-.016-.35-.045-.42-.074a1.2 1.2 0 0 1-.649-.65c-.029-.07-.058-.18-.074-.419A17.054 17.054 0 0 1 4.8 11V8c0-.965.002-1.609.066-2.088.061-.456.166-.64.285-.76.12-.12.305-.224.761-.286C6.391 4.801 7.035 4.8 8 4.8h3c.477 0 .794 0 1.04.017.238.017.35.046.42.075a1.2 1.2 0 0 1 .649.649c.029.07.057.181.074.42.017.245.017.562.017 1.04h1.6v-.027c0-.444 0-.816-.02-1.123a2.873 2.873 0 0 0-.193-.922 2.8 2.8 0 0 0-1.515-1.516 2.872 2.872 0 0 0-.923-.192c-.307-.02-.68-.02-1.122-.02zm5.028 6h-2.11c-.896 0-1.648 0-2.246.08-.633.085-1.213.273-1.679.74-.466.466-.655 1.045-.74 1.678-.08.598-.08 1.35-.08 2.246v2.11c0 .896 0 1.648.08 2.246.085.634.274 1.213.74 1.68.466.465 1.046.654 1.679.739.598.08 1.35.08 2.246.08h2.11c.896 0 1.648 0 2.246-.08.633-.085 1.213-.274 1.679-.74.466-.466.654-1.045.74-1.679.08-.598.08-1.35.08-2.246v-2.11c0-.896 0-1.648-.08-2.246-.086-.633-.274-1.212-.74-1.679-.466-.466-1.046-.654-1.679-.74-.598-.08-1.35-.08-2.246-.08zm-4.904 1.95c.12-.119.305-.223.761-.285.479-.064 1.122-.066 2.088-.066h2c.965 0 1.609.002 2.088.066.456.062.641.166.76.286.12.12.225.304.286.76.064.48.066 1.123.066 2.088v2c0 .966-.002 1.61-.066 2.088-.061.456-.166.641-.285.76-.12.12-.305.225-.761.286-.479.065-1.123.066-2.088.066h-2c-.966 0-1.61-.002-2.088-.066-.456-.061-.641-.166-.76-.285-.12-.12-.225-.305-.286-.76-.064-.48-.066-1.123-.066-2.089v-2c0-.965.002-1.609.066-2.088.061-.456.166-.64.285-.76z" fill="currentColor"/></svg>