<svg width="18" height="19" viewBox="0 0 18 19" fill="none" xmlns="http://www.w3.org/2000/svg">
<path id="Union" fill-rule="evenodd" clip-rule="evenodd" d="M1.33333 9.5C1.33333 5.26582 4.76582 1.83333 9 1.83333C13.2342 1.83333 16.6667 5.26582 16.6667 9.5C16.6667 13.7342 13.2342 17.1667 9 17.1667C4.76582 17.1667 1.33333 13.7342 1.33333 9.5ZM9 0.5C4.02944 0.5 0 4.52944 0 9.5C0 14.4706 4.02944 18.5 9 18.5C13.9706 18.5 18 14.4706 18 9.5C18 4.52944 13.9706 0.5 9 0.5ZM4.83333 8.83333C4.46514 8.83333 4.16667 9.13181 4.16667 9.5C4.16667 9.86819 4.46514 10.1667 4.83333 10.1667H13.1667C13.5349 10.1667 13.8333 9.86819 13.8333 9.5C13.8333 9.13181 13.5349 8.83333 13.1667 8.83333H4.83333Z" fill="#949494"/>
</svg>
