<svg width="100%" height="100%" viewBox="0 0 24 24" fill="none" xmlns="http://www.w3.org/2000/svg">
<path fill-rule="evenodd" clip-rule="evenodd" d="M8.25854 2.71739C8.25854 2.27556 7.90037 1.91739 7.45854 1.91739C7.01672 1.91739 6.65855 2.27556 6.65855 2.71739L6.65854 5.99551H4.82026C3.27387 5.99551 2.02026 7.24912 2.02026 8.79552V14.9792C2.02026 18.7347 5.06472 21.7792 8.82026 21.7792H15.1799C18.9354 21.7792 21.9799 18.7347 21.9799 14.9792V8.79551C21.9799 7.24912 20.7263 5.99551 19.1799 5.99551H17.1218V2.71739C17.1218 2.27556 16.7637 1.91739 16.3218 1.91739C15.88 1.91739 15.5218 2.27556 15.5218 2.71739V5.99551H8.25854L8.25854 2.71739ZM3.62026 8.79552C3.62026 8.13277 4.15752 7.59551 4.82026 7.59551H19.1799C19.8426 7.59551 20.3799 8.13277 20.3799 8.79551V14.9792C20.3799 17.8511 18.0518 20.1792 15.1799 20.1792H8.82026C5.94838 20.1792 3.62026 17.8511 3.62026 14.9792V8.79552ZM8.44795 13.7914C8.19575 14.2874 8.21936 14.8788 8.5103 15.3531C8.80124 15.8275 9.31773 16.1166 9.87417 16.1166H10.4009V17.4386C10.4009 18.1786 10.9083 18.8221 11.628 18.9946C12.3476 19.167 13.0916 18.8235 13.4271 18.1638L15.5537 13.9814C15.806 13.4854 15.7823 12.894 15.4914 12.4196C15.2005 11.9453 14.684 11.6562 14.1275 11.6562H13.6009V10.334C13.6009 9.59392 13.0934 8.95045 12.3737 8.778C11.654 8.60555 10.91 8.94912 10.5746 9.60878L8.44795 13.7914ZM12.0009 10.334L9.87417 14.5166H12.0009V17.4386L14.1275 13.2562H12.0009V10.334Z" fill="black"/>
</svg>
