<svg width="100%" height="100%" viewBox="0 0 24 24" fill="none" xmlns="http://www.w3.org/2000/svg">
<path fill-rule="evenodd" clip-rule="evenodd" d="M7.80135 9.36645H5.76209C5.65747 9.36645 5.57266 9.45126 5.57266 9.55589V14.4441C5.57266 14.5488 5.65747 14.6336 5.76209 14.6336H7.80135C7.90598 14.6336 7.99079 14.5488 7.99079 14.4441V9.55589C7.99079 9.45126 7.90598 9.36645 7.80135 9.36645ZM5.76209 7.76645C4.77382 7.76645 3.97266 8.56761 3.97266 9.55589V9.89819C3.88094 9.88376 3.78692 9.87627 3.69115 9.87627C2.69891 9.87627 1.89453 10.6806 1.89453 11.6729V12.3273C1.89453 13.3195 2.69891 14.1239 3.69115 14.1239C3.78692 14.1239 3.88094 14.1164 3.97266 14.1019V14.4441C3.97266 15.4324 4.77381 16.2336 5.76209 16.2336H7.80135C8.78963 16.2336 9.59079 15.4324 9.59079 14.4441V12.5149L14.4092 12.5149V14.4441C14.4092 15.4324 15.2104 16.2336 16.1986 16.2336H18.2379C19.2262 16.2336 20.0273 15.4324 20.0273 14.4441V14.1019C20.1191 14.1164 20.2131 14.1239 20.3088 14.1239C21.3011 14.1239 22.1055 13.3195 22.1055 12.3273V11.6729C22.1055 10.6806 21.3011 9.87627 20.3088 9.87627C20.2131 9.87627 20.1191 9.88376 20.0273 9.89819V9.55589C20.0273 8.56761 19.2262 7.76645 18.2379 7.76645H16.1986C15.2104 7.76645 14.4092 8.56761 14.4092 9.55589V10.9149L9.59079 10.9149V9.55589C9.59079 8.56761 8.78963 7.76645 7.80135 7.76645H5.76209ZM3.69115 12.5239C3.58256 12.5239 3.49453 12.4358 3.49453 12.3273V11.6729C3.49453 11.5643 3.58256 11.4763 3.69115 11.4763C3.79974 11.4763 3.88777 11.5643 3.88777 11.6729V12.3273C3.88777 12.4358 3.79974 12.5239 3.69115 12.5239ZM18.2379 9.36645H16.1986C16.094 9.36645 16.0092 9.45126 16.0092 9.55589V14.4441C16.0092 14.5488 16.094 14.6336 16.1986 14.6336H18.2379C18.3425 14.6336 18.4273 14.5488 18.4273 14.4441V9.55589C18.4273 9.45126 18.3425 9.36645 18.2379 9.36645ZM20.3088 12.5239C20.4174 12.5239 20.5055 12.4358 20.5055 12.3273V11.6729C20.5055 11.5643 20.4174 11.4763 20.3088 11.4763C20.2003 11.4763 20.1122 11.5643 20.1122 11.6729V12.3273C20.1122 12.4358 20.2003 12.5239 20.3088 12.5239Z" fill="current"/>
</svg>
