<svg xmlns="http://www.w3.org/2000/svg" width="24" height="24" fill="none"><mask id="a" style="mask-type:luminance" maskUnits="userSpaceOnUse" x="0" y="0" width="24" height="24"><path d="M24 0H0v24h24V0z" fill="#fff"/></mask><g mask="url(#a)"><path fill-rule="evenodd" clip-rule="evenodd" d="M2 6.8h3.816a2.801 2.801 0 0 0 5.368 0H22a.8.8 0 0 0 0-1.6H11.184a2.801 2.801 0 0 0-5.368 0H2a.8.8 0 1 0 0 1.6zM9.7 6a1.2 1.2 0 1 0-2.4 0 1.2 1.2 0 0 0 2.4 0zM2 12.8h12.816a2.801 2.801 0 0 0 5.368 0H22a.8.8 0 0 0 0-1.6h-1.816a2.801 2.801 0 0 0-5.368 0H2a.8.8 0 1 0 0 1.6zm16.7-.8a1.2 1.2 0 1 0-2.4 0 1.2 1.2 0 0 0 2.4 0zM8.5 15.2c-1.268 0-2.34.843-2.684 2H2a.8.8 0 1 0 0 1.6h3.816a2.801 2.801 0 0 0 5.368 0H22a.8.8 0 0 0 0-1.6H11.184a2.801 2.801 0 0 0-2.684-2zM9.7 18a1.2 1.2 0 1 0-2.4 0 1.2 1.2 0 0 0 2.4 0z" fill="current"/></g></svg>