<svg xmlns="http://www.w3.org/2000/svg" width="24" height="24" fill="none"><path fill-rule="evenodd" clip-rule="evenodd" d="M5.948 4.2h12.104c.663 0 1.238 0 1.7.061.498.067.981.219 1.374.612.393.393.545.877.612 1.374.062.462.062 1.038.062 1.7v8.104c0 .663 0 1.239-.062 1.7-.067.498-.219.982-.612 1.375s-.876.544-1.373.611c-.463.062-1.038.062-1.701.062H5.948c-.663 0-1.238 0-1.7-.062-.498-.067-.981-.218-1.374-.611-.393-.393-.545-.877-.612-1.374-.062-.462-.062-1.038-.062-1.7V7.946c0-.662 0-1.238.062-1.7.067-.497.219-.981.612-1.374.393-.393.876-.545 1.373-.612C4.71 4.2 5.285 4.2 5.948 4.2zM4.461 5.846c-.32.043-.41.111-.456.157-.046.047-.114.136-.157.456-.046.343-.048.81-.048 1.54v8c0 .729.002 1.196.048 1.538.043.32.11.41.157.456.046.047.136.114.456.157.342.047.81.048 1.539.048h12c.73 0 1.197-.002 1.54-.048.319-.043.409-.11.455-.157.046-.046.114-.136.157-.456.046-.342.048-.81.048-1.539V8c0-.73-.002-1.196-.048-1.54-.043-.319-.11-.408-.157-.455-.046-.046-.136-.114-.456-.157-.343-.046-.81-.048-1.539-.048H6c-.73 0-1.197.002-1.54.048zM5.2 7.999a.8.8 0 0 1 .8-.8h4a.8.8 0 1 1 0 1.6H7.931l2.635 2.635a.8.8 0 1 1-1.132 1.13L6.8 9.932v2.068a.8.8 0 0 1-1.6 0V8zM18 16.801a.8.8 0 0 0 .8-.8v-4a.8.8 0 1 0-1.6 0v2.068l-2.634-2.634a.8.8 0 1 0-1.132 1.131l2.635 2.635H14a.8.8 0 0 0 0 1.6h4z" fill="current"/></svg>