<svg xmlns="http://www.w3.org/2000/svg" width="24" height="24" fill="none"><path fill-rule="evenodd" clip-rule="evenodd" d="M12 14.05 10.966 18h2.068L12 14.05zm-2.65 3.8a.2.2 0 0 1-.193.15H2.356a.2.2 0 0 1-.191-.26l2.332-7.537a.2.2 0 0 1 .09-.114L11.2 6.2V10H10a.8.8 0 0 0 0 1.6h.988L9.35 17.85zm3.662-6.25 1.637 6.25a.2.2 0 0 0 .194.15h6.801a.2.2 0 0 0 .191-.26l-2.332-7.537a.2.2 0 0 0-.09-.114L12.8 6.2V10H14a.8.8 0 0 1 0 1.6h-.988zm-10.656 8H21.644a1.8 1.8 0 0 0 1.72-2.332L21.032 9.73a1.8 1.8 0 0 0-.807-1.02l-7.82-4.6a.8.8 0 0 0-.81 0l-7.82 4.6a1.8 1.8 0 0 0-.807 1.02L.636 17.268a1.8 1.8 0 0 0 1.72 2.332z" fill="#000"/></svg>