<svg width="21" height="20" viewBox="0 0 21 20" fill="none" xmlns="http://www.w3.org/2000/svg">
<g id="Icon / Google">
<path id="Shape" fill-rule="evenodd" clip-rule="evenodd" d="M20.1 10.2271C20.1 9.518 20.0364 8.83619 19.9182 8.18164H10.5V12.0498H15.8818C15.65 13.2998 14.9455 14.3589 13.8864 15.068V17.5771H17.1182C19.0091 15.8362 20.1 13.2725 20.1 10.2271Z" fill="#4285F4"/>
<path id="Shape_2" fill-rule="evenodd" clip-rule="evenodd" d="M10.5001 20.0004C13.2001 20.0004 15.4637 19.1049 17.1183 17.5777L13.8864 15.0686C12.991 15.6686 11.8455 16.0231 10.5001 16.0231C7.89554 16.0231 5.69099 14.264 4.90463 11.9004H1.56372V14.4913C3.20918 17.7595 6.59099 20.0004 10.5001 20.0004Z" fill="#34A853"/>
<path id="Shape_3" fill-rule="evenodd" clip-rule="evenodd" d="M4.90455 11.8997C4.70455 11.2997 4.59091 10.6588 4.59091 9.9997C4.59091 9.34061 4.70455 8.6997 4.90455 8.0997V5.50879H1.56364C0.886364 6.85879 0.5 8.38606 0.5 9.9997C0.5 11.6133 0.886364 13.1406 1.56364 14.4906L4.90455 11.8997Z" fill="#FBBC05"/>
<path id="Shape_4" fill-rule="evenodd" clip-rule="evenodd" d="M10.5001 3.97727C11.9683 3.97727 13.2864 4.48182 14.3228 5.47273L17.191 2.60455C15.4592 0.990909 13.1955 0 10.5001 0C6.59099 0 3.20918 2.24091 1.56372 5.50909L4.90463 8.1C5.69099 5.73636 7.89554 3.97727 10.5001 3.97727Z" fill="#EA4335"/>
</g>
</svg>
