<svg xmlns="http://www.w3.org/2000/svg" width="20" height="20" fill="none"><path fill="#F5F5F5" fill-rule="evenodd" d="M1 7.5a5.25 5.25 0 0 1 9-3.674A5.25 5.25 0 0 1 19 7.5c0 2.548-1.495 4.895-3.266 6.684-1.777 1.795-3.948 3.144-5.524 3.668a.666.666 0 0 1-.42 0c-1.576-.524-3.747-1.873-5.524-3.668C2.495 12.395 1 10.048 1 7.5Zm5.25-3.917A3.917 3.917 0 0 0 2.333 7.5c0 2.036 1.214 4.063 2.88 5.746 1.576 1.59 3.454 2.77 4.787 3.266 1.333-.497 3.211-1.675 4.787-3.266 1.666-1.683 2.88-3.71 2.88-5.746a3.917 3.917 0 0 0-7.122-2.252.667.667 0 0 1-1.09 0A3.911 3.911 0 0 0 6.25 3.583Z" clip-rule="evenodd"/></svg>