<svg width="100%" height="100%" viewBox="0 0 24 24" fill="none" xmlns="http://www.w3.org/2000/svg">
<path fill-rule="evenodd" clip-rule="evenodd" d="M12.0922 3.90961C12.0344 3.87961 11.9656 3.87961 11.9079 3.90961L3.0055 8.53224C2.61339 8.73585 2.13046 8.58303 1.92685 8.19092C1.72324 7.7988 1.87605 7.31587 2.26817 7.11226L11.1705 2.48963C11.6906 2.2196 12.3095 2.2196 12.8295 2.48963L21.7319 7.11226C22.124 7.31587 22.2768 7.7988 22.0732 8.19092C21.8696 8.58303 21.3867 8.73585 20.9945 8.53224L12.0922 3.90961ZM6.77173 8.38534C7.12157 8.11549 7.62394 8.18033 7.8938 8.53017C8.17374 8.89309 8.62438 9.49215 8.78336 10.3318C8.94755 11.1989 8.78332 12.2042 8.08596 13.368L8.08124 13.3759L8.08119 13.3759C7.80185 13.8302 7.51746 14.3235 7.43084 14.8599C7.35331 15.3399 7.42658 15.9019 7.99931 16.5454C8.29307 16.8754 8.26366 17.3811 7.93363 17.6748C7.60359 17.9686 7.09792 17.9392 6.80416 17.6092C5.9027 16.5964 5.69918 15.5467 5.8513 14.6048C5.9939 13.7219 6.44329 12.985 6.71578 12.5418C7.25034 11.6482 7.28888 11.0391 7.2113 10.6294C7.12841 10.1917 6.89231 9.85148 6.62691 9.50741C6.35705 9.15757 6.42189 8.6552 6.77173 8.38534ZM12.5696 8.52822C12.2997 8.17838 11.7974 8.11353 11.4475 8.38339C11.0977 8.65325 11.0328 9.15561 11.3027 9.50545C11.5681 9.84953 11.8042 10.1897 11.8871 10.6275C11.9647 11.0372 11.9261 11.6462 11.3916 12.5399C11.1191 12.983 10.6697 13.7199 10.5271 14.6028C10.375 15.5447 10.5785 16.5944 11.4799 17.6072C11.7737 17.9372 12.2794 17.9666 12.6094 17.6729C12.9394 17.3791 12.9688 16.8735 12.6751 16.5434C12.1024 15.9 12.0291 15.338 12.1066 14.8579C12.1932 14.3216 12.4776 13.8282 12.757 13.374L12.757 13.374L12.7617 13.3661C13.4591 12.2023 13.6233 11.1969 13.4591 10.3298C13.3002 9.4902 12.8495 8.89113 12.5696 8.52822ZM16.1233 8.38339C16.4731 8.11353 16.9755 8.17838 17.2454 8.52822C17.5253 8.89113 17.9759 9.4902 18.1349 10.3298C18.2991 11.1969 18.1349 12.2023 17.4375 13.3661L17.4328 13.374L17.4328 13.374C17.1534 13.8282 16.869 14.3216 16.7824 14.8579C16.7049 15.338 16.7781 15.9 17.3509 16.5434C17.6446 16.8735 17.6152 17.3791 17.2852 17.6729C16.9552 17.9666 16.4495 17.9372 16.1557 17.6072C15.2543 16.5944 15.0507 15.5447 15.2029 14.6028C15.3455 13.7199 15.7949 12.983 16.0673 12.5399C16.6019 11.6462 16.6404 11.0372 16.5629 10.6275C16.48 10.1897 16.2439 9.84953 15.9785 9.50545C15.7086 9.15561 15.7735 8.65325 16.1233 8.38339ZM2.63667 19.4395C2.19484 19.4395 1.83667 19.7976 1.83667 20.2395C1.83667 20.6813 2.19484 21.0395 2.63667 21.0395H21.3631C21.8049 21.0395 22.163 20.6813 22.163 20.2395C22.163 19.7976 21.8049 19.4395 21.3631 19.4395H2.63667Z" fill="black"/>
</svg>
