<svg width="100%" height="100%" viewBox="0 0 24 24"  xmlns="http://www.w3.org/2000/svg">
<path fill-rule="evenodd" clip-rule="evenodd" d="M10.7693 1.16491C10.7693 0.723086 11.1275 0.364914 11.5693 0.364914H16.499C16.8088 0.364914 17.0907 0.543779 17.2227 0.824049C17.3547 1.10432 17.313 1.43561 17.1157 1.67444L16.3827 2.56173L17.1157 3.44902C17.313 3.68785 17.3547 4.01914 17.2227 4.29941C17.0907 4.57968 16.8088 4.75854 16.499 4.75854H12.3647V5.65361L17.5132 9.85461C17.7753 10.0685 17.8746 10.4242 17.761 10.7429C17.6475 11.0616 17.3457 11.2744 17.0074 11.2744H16.1737V13.0292V19.0644V21.8749C16.1737 22.3167 15.8156 22.6749 15.3737 22.6749H7.62495C7.18312 22.6749 6.82495 22.3167 6.82495 21.8749V19.0644V13.0292V11.2744H5.99243C5.65409 11.2744 5.35234 11.0616 5.23881 10.7429C5.12528 10.4242 5.22452 10.0685 5.48666 9.85461L10.7647 5.54782L10.7647 1.16492L10.7693 1.16491ZM14.5737 11.2744V12.2292H8.42495V11.2744H14.5737ZM8.42495 18.2644V13.8292H14.5737V18.2644H8.42495ZM8.42495 19.8644H14.5737V21.0749H8.42495V19.8644ZM14.4482 9.41875H8.55161L11.4999 7.013L14.4482 9.41875ZM12.3693 1.96491V3.15855H14.8004L14.7282 3.07126C14.4839 2.77551 14.4839 2.34795 14.7282 2.0522L14.8004 1.96491H12.3693ZM11.1767 16.0809C11.1767 15.9024 11.3213 15.7578 11.4998 15.7578C11.6782 15.7578 11.8229 15.9024 11.8229 16.0809C11.8229 16.2593 11.6782 16.404 11.4998 16.404C11.3213 16.404 11.1767 16.2593 11.1767 16.0809ZM11.4998 14.1578C10.4377 14.1578 9.57666 15.0188 9.57666 16.0809C9.57666 17.143 10.4377 18.004 11.4998 18.004C12.5619 18.004 13.4229 17.143 13.4229 16.0809C13.4229 15.0188 12.5619 14.1578 11.4998 14.1578Z" fill="black"/>
</svg>
