<svg xmlns="http://www.w3.org/2000/svg" width="13" height="23" viewBox="0 0 13 23" fill="none">
  <path fill-rule="evenodd" clip-rule="evenodd" d="M5.76929 1.16491C5.76929 0.723086 6.12746 0.364914 6.56929 0.364914H11.499C11.8088 0.364914 12.0907 0.543779 12.2227 0.824049C12.3547 1.10432 12.313 1.43561 12.1157 1.67444L11.3827 2.56173L12.1157 3.44902C12.313 3.68785 12.3547 4.01914 12.2227 4.29941C12.0907 4.57968 11.8088 4.75854 11.499 4.75854H7.36475V5.65361L12.5132 9.85461C12.7753 10.0685 12.8746 10.4242 12.761 10.7429C12.6475 11.0616 12.3457 11.2744 12.0074 11.2744H11.1737V13.0292V19.0644V21.8749C11.1737 22.3167 10.8156 22.6749 10.3737 22.6749H2.62495C2.18312 22.6749 1.82495 22.3167 1.82495 21.8749V19.0644V13.0292V11.2744H0.992426C0.654094 11.2744 0.352343 11.0616 0.238812 10.7429C0.12528 10.4242 0.224518 10.0685 0.486656 9.85461L5.76475 5.54782L5.76475 1.16492L5.76929 1.16491ZM9.57375 11.2744V12.2292H3.42495V11.2744H9.57375ZM3.42495 18.2644V13.8292H9.57375V18.2644H3.42495ZM3.42495 19.8644H9.57375V21.0749H3.42495V19.8644ZM9.44823 9.41875H3.55161L6.49992 7.013L9.44823 9.41875ZM7.36929 1.96491V3.15855H9.80036L9.72825 3.07126C9.48391 2.77551 9.48391 2.34795 9.72825 2.0522L9.80036 1.96491H7.36929ZM6.17666 16.0809C6.17666 15.9024 6.32132 15.7578 6.49976 15.7578C6.6782 15.7578 6.82285 15.9024 6.82285 16.0809C6.82285 16.2593 6.6782 16.404 6.49976 16.404C6.32132 16.404 6.17666 16.2593 6.17666 16.0809ZM6.49976 14.1578C5.43766 14.1578 4.57666 15.0188 4.57666 16.0809C4.57666 17.143 5.43766 18.004 6.49976 18.004C7.56185 18.004 8.42285 17.143 8.42285 16.0809C8.42285 15.0188 7.56185 14.1578 6.49976 14.1578Z" fill="black"/>
</svg>