<svg xmlns="http://www.w3.org/2000/svg" width="24" height="24" fill="none"><path fill-rule="evenodd" clip-rule="evenodd" d="M1.2 9A6.3 6.3 0 0 1 12 4.59 6.3 6.3 0 0 1 22.8 9c0 3.058-1.794 5.876-3.92 8.022-2.132 2.154-4.736 3.773-6.628 4.401a.799.799 0 0 1-.504 0c-1.892-.628-4.496-2.247-6.629-4.401C2.994 14.874 1.2 12.057 1.2 9zm6.3-4.7A4.7 4.7 0 0 0 2.8 9c0 2.443 1.456 4.875 3.456 6.895 1.89 1.909 4.144 3.324 5.744 3.92 1.6-.596 3.854-2.011 5.744-3.92 2-2.02 3.456-4.452 3.456-6.895a4.7 4.7 0 0 0-8.546-2.703.8.8 0 0 1-1.308 0A4.694 4.694 0 0 0 7.5 4.3z" fill="#383838"/></svg>