<svg xmlns="http://www.w3.org/2000/svg" width="22" height="16" fill="none"><path fill="#555" fill-rule="evenodd" d="m2.19 4.38 5.292-2.13 7.145 2.604c.337.122.71.1 1.031-.062l4.152-2.098v8.291l-4.802 2.762-7.136-2.213a1.3 1.3 0 0 0-.857.03l-4.825 1.88V4.38ZM7.922.708a1.3 1.3 0 0 0-.93.016l-5.587 2.25A1.3 1.3 0 0 0 .59 4.177v9.705a1.3 1.3 0 0 0 1.772 1.211l5.136-2 7.161 2.22a1.3 1.3 0 0 0 1.033-.115l5.066-2.913a1.3 1.3 0 0 0 .652-1.127V2.206a1.3 1.3 0 0 0-1.887-1.16l-4.47 2.26L7.922.707Zm7.136 4.596a.5.5 0 0 1 .5.5v.88a.5.5 0 0 1-1 0v-.88a.5.5 0 0 1 .5-.5Zm0 2.642a.5.5 0 0 1 .5.5v1.76a.5.5 0 1 1-1 0v-1.76a.5.5 0 0 1 .5-.5Zm0 3.522a.5.5 0 0 1 .5.5v.88a.5.5 0 0 1-1 0v-.88a.5.5 0 0 1 .5-.5ZM4 4.577a.6.6 0 0 0 0 1.2h7a.6.6 0 1 0 0-1.2H4Zm0 2.387a.6.6 0 0 0 0 1.2h7a.6.6 0 1 0 0-1.2H4ZM3.4 9.95a.6.6 0 0 1 .6-.6h7a.6.6 0 1 1 0 1.2H4a.6.6 0 0 1-.6-.6Z" clip-rule="evenodd"/></svg>