<svg width="24" height="24" fill="none" xmlns="http://www.w3.org/2000/svg"><path fill-rule="evenodd" clip-rule="evenodd" d="M12 1.2a8.3 8.3 0 0 0-8.3 8.3c0 3.534 2.023 6.84 3.929 9.191a29.766 29.766 0 0 0 3.526 3.644 16.679 16.679 0 0 0 .318.268l.02.015.005.005.002.001a.8.8 0 0 0 1 0L12 22l.5.624.002-.002.006-.004.019-.015.068-.056.25-.212a29.778 29.778 0 0 0 3.527-3.644c1.905-2.35 3.928-5.658 3.928-9.191A8.3 8.3 0 0 0 12 1.2zM12 22l-.5.624L12 22zm.623-1.62c-.24.225-.45.416-.623.569a28.15 28.15 0 0 1-3.129-3.265C7.027 15.409 5.3 12.466 5.3 9.5a6.7 6.7 0 1 1 13.4 0c0 2.966-1.727 5.91-3.571 8.184a28.142 28.142 0 0 1-2.506 2.695zM12 5.7a3.8 3.8 0 1 0 0 7.6 3.8 3.8 0 0 0 0-7.6zM9.8 9.5a2.2 2.2 0 1 1 4.4 0 2.2 2.2 0 0 1-4.4 0z" fill="current"/></svg>