<svg xmlns="http://www.w3.org/2000/svg" width="24" height="24" fill="none"><path fill="#555" fill-rule="evenodd" d="M8.482 6.25 3.19 8.38v9.064l4.825-1.88a1.3 1.3 0 0 1 .857-.03l7.136 2.213 4.802-2.762v-8.29l-4.152 2.097a1.3 1.3 0 0 1-1.031.062L8.482 6.25Zm-.49-1.527a1.3 1.3 0 0 1 .93-.016l7.13 2.599 4.471-2.26a1.3 1.3 0 0 1 1.887 1.16v8.953a1.3 1.3 0 0 1-.652 1.127l-5.066 2.913a1.3 1.3 0 0 1-1.033.115l-7.161-2.22-5.136 2a1.3 1.3 0 0 1-1.772-1.211V8.178a1.3 1.3 0 0 1 .815-1.206L7.99 4.723Zm.542 2.17a.5.5 0 0 1 .5.5v.88a.5.5 0 1 1-1 0v-.88a.5.5 0 0 1 .5-.5Zm0 2.641a.5.5 0 0 1 .5.5v1.762a.5.5 0 0 1-1 0v-1.762a.5.5 0 0 1 .5-.5Zm0 3.523a.5.5 0 0 1 .5.5v.88a.5.5 0 0 1-1 0v-.88a.5.5 0 0 1 .5-.5Zm8.024-3.254a.5.5 0 0 0-1 0v.88a.5.5 0 1 0 1 0v-.88Zm0 2.642a.5.5 0 1 0-1 0v1.76a.5.5 0 1 0 1 0v-1.76Zm0 3.522a.5.5 0 0 0-1 0v.88a.5.5 0 0 0 1 0v-.88Z" clip-rule="evenodd"/></svg>