<svg xmlns="http://www.w3.org/2000/svg" width="24" height="24" viewBox="0 0 24 24" fill="none">
  <path fill-rule="evenodd" clip-rule="evenodd" d="M12 3.79996C7.47124 3.79996 3.79996 7.47124 3.79996 12C3.79996 14.036 4.54196 15.8987 5.7703 17.3324C6.25968 16.5482 6.95612 15.8727 7.79814 15.3526C9.01851 14.5989 10.4953 14.2 12 14.2C13.5047 14.2 14.9814 14.5989 16.2018 15.3526C17.0438 15.8727 17.7403 16.5482 18.2297 17.3324C19.458 15.8987 20.2 14.036 20.2 12C20.2 7.47124 16.5288 3.79996 12 3.79996ZM2.19995 12C2.19995 6.58758 6.58758 2.19995 12 2.19995C17.4124 2.19995 21.8 6.58758 21.8 12C21.8 17.4124 17.4124 21.8 12 21.8C6.58758 21.8 2.19995 17.4124 2.19995 12ZM8.19998 9.99999C8.19998 7.9013 9.90131 6.19997 12 6.19997C14.0987 6.19997 15.8 7.9013 15.8 9.99999C15.8 12.0987 14.0987 13.8 12 13.8C9.90131 13.8 8.19998 12.0987 8.19998 9.99999Z" fill="current"/>
</svg>

