<svg xmlns="http://www.w3.org/2000/svg" width="24" height="24" fill="none"><path fill-rule="evenodd" clip-rule="evenodd" d="M12 3.8a8.2 8.2 0 0 0-6.23 13.532c.49-.784 1.186-1.46 2.028-1.98C9.018 14.6 10.495 14.2 12 14.2s2.981.399 4.202 1.152c.842.52 1.538 1.196 2.028 1.98A8.2 8.2 0 0 0 12 3.8zm5.037 14.671c-.341-.672-.91-1.284-1.676-1.757-.95-.586-2.131-.914-3.361-.914-1.23 0-2.412.328-3.361.914-.767.473-1.335 1.085-1.676 1.757A8.165 8.165 0 0 0 12 20.2a8.165 8.165 0 0 0 5.037-1.729zM2.2 12c0-5.412 4.388-9.8 9.8-9.8 5.412 0 9.8 4.388 9.8 9.8 0 5.412-4.388 9.8-9.8 9.8-5.412 0-9.8-4.388-9.8-9.8zM12 7.8a2.2 2.2 0 1 0 0 4.4 2.2 2.2 0 0 0 0-4.4zM8.2 10a3.8 3.8 0 1 1 7.6 0 3.8 3.8 0 0 1-7.6 0z" fill="currentColor"/></svg>