<svg width="100%" height="100%" viewBox="0 0 24 24s" fill="none" xmlns="http://www.w3.org/2000/svg">
<path fill-rule="evenodd" clip-rule="evenodd" d="M3.50977 3.7451C3.50977 2.75099 4.31565 1.9451 5.30977 1.9451H9.08587C10.08 1.9451 10.8859 2.75099 10.8859 3.7451V8.94119L19.1922 8.94119C19.9102 8.94119 20.4922 9.52322 20.4922 10.2412C20.4922 11.034 20.4889 11.8269 20.491 12.6197C20.4938 13.7578 20.025 14.7555 19.4774 15.5222C18.9874 16.2082 18.4023 16.7554 17.9244 17.1143C17.7512 18.2448 18.2058 19.5481 18.6593 20.3986C19.0296 21.093 18.5771 22.0565 17.6782 22.0565H6.97781C5.99509 22.0565 5.56003 20.9175 6.1365 20.2318C7.52678 18.5781 7.82627 17.6162 7.82596 17.1239C7.82571 16.7376 7.63589 16.536 7.37766 16.3766C5.24871 15.2244 4.28741 14.0095 3.85085 13.0659C3.66162 12.6569 3.50977 11.8035 3.50977 11.3514V3.7451ZM9.12944 11.5467H5.26619C5.17669 11.5268 5.10977 11.4469 5.10977 11.3514V3.7451C5.10977 3.63464 5.19931 3.5451 5.30977 3.5451H9.08587C9.19632 3.5451 9.28587 3.63464 9.28587 3.7451L9.28586 11.3526C9.28532 11.4476 9.21858 11.5269 9.12944 11.5467ZM18.8922 11.5467H10.8859V10.5412L18.8922 10.5412V11.5467ZM5.78641 13.1514C6.42447 13.9347 7.29269 14.513 8.17362 14.9881C8.94023 15.4518 9.42538 16.2122 9.42596 17.1229C9.42653 18.024 8.99803 19.107 7.99879 20.4565H16.9162C16.476 19.4197 16.0905 17.973 16.3963 16.5847C16.4607 16.2924 16.637 16.0658 16.8432 15.9221C17.2171 15.6615 17.7469 15.1922 18.1754 14.5922C18.4956 14.1438 18.7371 13.6545 18.8385 13.1476H10.5859C10.5688 13.1476 10.5518 13.1473 10.5349 13.1467H9.21779C9.17423 13.1498 9.13023 13.1514 9.08587 13.1514H5.78641Z" fill="current"/>
</svg>
