<svg width="100%" height="100%" viewBox="0 0 24 24" fill="none" xmlns="http://www.w3.org/2000/svg">
<path fill-rule="evenodd" clip-rule="evenodd" d="M11.7246 4.13414C11.7246 3.14002 12.5305 2.33414 13.5246 2.33414H16.9056C17.8997 2.33414 18.7056 3.14002 18.7056 4.13414V14.0959H21.2547C21.6965 14.0959 22.0547 14.454 22.0547 14.8959C22.0547 15.3377 21.6965 15.6959 21.2547 15.6959H21.036V15.8216C21.036 17.8397 19.7906 19.5669 18.0265 20.2766C18.0296 20.3055 18.0312 20.3349 18.0312 20.3646V20.8658C18.0312 21.3077 17.6731 21.6658 17.2312 21.6658C16.7894 21.6658 16.4312 21.3077 16.4312 20.8658V20.6177C16.3665 20.6203 16.3014 20.6216 16.236 20.6216H7.76289C7.64824 20.6216 7.53452 20.6176 7.42188 20.6097V20.8658C7.42188 21.3077 7.0637 21.6658 6.62187 21.6658C6.18005 21.6658 5.82187 21.3077 5.82187 20.8658V20.3646C5.82187 20.3148 5.82642 20.2661 5.83512 20.2188C4.144 19.4764 2.96289 17.7869 2.96289 15.8216V15.6959H2.74531C2.30348 15.6959 1.94531 15.3377 1.94531 14.8959C1.94531 14.454 2.30348 14.0959 2.74531 14.0959H17.1056V4.13414C17.1056 4.02368 17.016 3.93414 16.9056 3.93414H13.5246C13.4142 3.93414 13.3246 4.02368 13.3246 4.13414V4.52087C14.6705 4.89509 15.6281 6.18481 15.6576 7.57931C15.6621 7.79437 15.5799 8.0022 15.4294 8.1559C15.2789 8.3096 15.0729 8.39623 14.8578 8.39623H10.1926C9.97747 8.39623 9.77143 8.3096 9.62094 8.1559C9.47046 8.0022 9.38821 7.79437 9.39276 7.57931C9.42224 6.18519 10.3793 4.89581 11.7246 4.52118V4.13414ZM13.8215 6.79623H11.2288C11.5081 6.32825 12.0012 6.01226 12.5252 6.01226C13.0491 6.01226 13.5422 6.32825 13.8215 6.79623ZM11.3926 9.44681C11.3927 9.00498 11.0346 8.64673 10.5928 8.64664C10.1509 8.64654 9.79267 9.00464 9.79258 9.44646L9.79238 10.3486C9.79229 10.7904 10.1504 11.1487 10.5922 11.1488C11.034 11.1489 11.3923 10.7908 11.3924 10.3489L11.3926 9.44681ZM11.392 12.1532C11.3921 11.7114 11.034 11.3531 10.5922 11.3531C10.1503 11.353 9.79209 11.7111 9.79199 12.1529L9.7918 13.055C9.7917 13.4968 10.1498 13.8551 10.5916 13.8552C11.0335 13.8553 11.3917 13.4972 11.3918 13.0554L11.392 12.1532ZM12.5244 8.64664C12.9662 8.64673 13.3243 9.00498 13.3242 9.44681L13.324 10.3489C13.3239 10.7908 12.9657 11.1489 12.5239 11.1488C12.082 11.1487 11.7239 10.7904 11.724 10.3486L11.7242 9.44646C11.7243 9.00464 12.0826 8.64654 12.5244 8.64664ZM12.5238 11.3531C12.9656 11.3531 13.3237 11.7114 13.3236 12.1532L13.3234 13.0554C13.3233 13.4972 12.9651 13.8553 12.5233 13.8552C12.0814 13.8551 11.7233 13.4968 11.7234 13.055L11.7236 12.1529C11.7237 11.7111 12.082 11.353 12.5238 11.3531ZM15.2578 9.44681C15.2579 9.00498 14.8998 8.64673 14.458 8.64664C14.0162 8.64654 13.6579 9.00464 13.6578 9.44646L13.6576 10.3486C13.6575 10.7904 14.0156 11.1487 14.4574 11.1488C14.8993 11.1489 15.2575 10.7908 15.2576 10.3489L15.2578 9.44681ZM15.2572 12.1532C15.2573 11.7114 14.8992 11.3531 14.4574 11.3531C14.0156 11.353 13.6573 11.7111 13.6572 12.1529L13.657 13.055C13.6569 13.4968 14.015 13.8551 14.4569 13.8552C14.8987 13.8553 15.2569 13.4972 15.257 13.0554L15.2572 12.1532ZM4.56289 15.7037V15.8216C4.56289 17.5889 5.99558 19.0216 7.76289 19.0216H16.236C18.0033 19.0216 19.436 17.5889 19.436 15.8216V15.7037H4.56289Z" fill="current"/>
</svg>
