<svg xmlns="http://www.w3.org/2000/svg" width="100%" height="100%" viewBox="0 0 16 16" >
  <path fill-rule="evenodd" clip-rule="evenodd" d="M6.9198 4.40077C6.96579 3.98139 7.06852 3.52671 7.2421 3.19978C7.4128 2.87829 7.58172 2.79027 7.76243 2.79994C7.89993 2.80729 8.08595 2.92968 8.26451 3.33615C8.42946 3.71165 8.50215 4.15187 8.51192 4.36683C8.51922 4.52755 8.45166 4.90456 8.27801 5.2448C8.097 5.59946 7.90487 5.72378 7.76165 5.73165C7.55375 5.74308 7.33832 5.63214 7.15846 5.36241C6.97643 5.08942 6.88463 4.72147 6.9198 4.40077ZM7.81941 1.73479C7.05048 1.69366 6.56794 2.19491 6.29999 2.69957C6.03493 3.1988 5.91184 3.80716 5.85949 4.2845C5.79632 4.86052 5.95359 5.47816 6.271 5.95418C6.59058 6.43345 7.12496 6.83493 7.8202 6.79671C8.54652 6.75679 8.99349 6.18935 9.22809 5.7297C9.47005 5.25562 9.59462 4.69575 9.57748 4.31844C9.56281 3.99537 9.46749 3.4225 9.2411 2.90714C9.02831 2.42276 8.59966 1.77653 7.81941 1.73479ZM13.3117 5.21343C13.2367 4.74186 13.0519 4.51215 12.8088 4.44874C12.5578 4.38326 12.293 4.48198 12.0099 4.78043C11.7275 5.07821 11.5274 5.4809 11.4554 5.72921C11.3926 5.94585 11.3827 6.31734 11.4859 6.65244C11.5878 6.98292 11.7607 7.17125 11.98 7.23191C12.2193 7.29811 12.4653 7.23923 12.7024 7.07194C12.9465 6.8997 13.1358 6.64042 13.222 6.41229C13.3111 6.17649 13.3851 5.67554 13.3117 5.21343ZM14.3651 5.04597C14.4663 5.68271 14.3775 6.37198 14.2198 6.78936C14.0592 7.21444 13.7377 7.64688 13.3173 7.94349C12.89 8.24504 12.3178 8.43212 11.6956 8.25996C10.9968 8.06665 10.6292 7.49426 10.4666 6.96656C10.3054 6.44347 10.3071 5.85932 10.431 5.43216C10.5456 5.03667 10.8252 4.47959 11.236 4.04643C11.6461 3.61394 12.2881 3.21055 13.078 3.41661C13.938 3.64093 14.2654 4.4187 14.3651 5.04597ZM4.40403 4.26705C4.76299 4.59374 5.04101 5.03977 5.18034 5.51794C5.33337 6.04318 5.34659 6.66185 5.15732 7.1889C4.9607 7.73642 4.52053 8.2244 3.79495 8.29262C3.29811 8.33934 2.81116 8.225 2.41525 7.93896C2.01675 7.65105 1.74535 7.21418 1.64035 6.68147C1.53796 6.16202 1.60284 5.49786 1.78488 4.95559C1.87693 4.68139 2.01027 4.40354 2.19767 4.18105C2.38601 3.95745 2.66527 3.75049 3.03559 3.73016C3.56898 3.70088 4.0474 3.94249 4.40403 4.26705ZM3.10028 4.7942C3.10029 4.79429 3.09941 4.7946 3.09762 4.79487C3.09938 4.79424 3.10028 4.79411 3.10028 4.7942ZM3.09709 4.79507C3.088 4.7985 3.0596 4.81348 3.0135 4.86821C2.94082 4.9545 2.86212 5.09835 2.79609 5.29505C2.66197 5.69457 2.62652 6.16899 2.68688 6.47519C2.74462 6.76813 2.88024 6.95898 3.03992 7.07434C3.2022 7.19159 3.42458 7.25607 3.6951 7.23064C3.91163 7.21028 4.06032 7.08766 4.15342 6.8284C4.25387 6.54867 4.25767 6.16438 4.15625 5.81632C4.07103 5.52384 3.89759 5.24842 3.68609 5.05593C3.47354 4.8625 3.26376 4.78696 3.09709 4.79507ZM7.71243 13.1991C8.93383 13.1935 9.89372 13.073 10.5213 12.7756C10.814 12.6368 10.9948 12.4775 11.1078 12.3053C11.2186 12.1365 11.3124 11.8824 11.3124 11.4707C11.3124 10.8171 10.9703 10.1417 10.3019 9.59359C9.63873 9.04987 8.71206 8.68753 7.71243 8.66599C6.71291 8.68753 5.78623 9.04987 5.12306 9.59361C4.45459 10.1417 4.11243 10.8171 4.11243 11.4709C4.11243 11.8825 4.20621 12.1365 4.317 12.3053C4.43002 12.4775 4.61089 12.6369 4.90358 12.7756C5.53122 13.073 6.49114 13.1935 7.71243 13.1991ZM7.71243 14.2658C5.22617 14.2549 3.04576 13.8047 3.04576 11.4709C3.04576 9.38449 5.22617 7.6422 7.71243 7.59912C10.1989 7.6422 12.3791 9.38449 12.3791 11.4707C12.3791 13.8047 10.1989 14.2549 7.71243 14.2658Z" fill="current"/>
</svg>