<svg width="24" height="24" viewBox="0 0 24 24" fill="none" xmlns="http://www.w3.org/2000/svg">
<g id="Icon/Fuction/pic">
<path id="Union" fill-rule="evenodd" clip-rule="evenodd" d="M10.9401 2.19922H13.0598C14.8946 2.1992 16.3531 2.19919 17.4956 2.3528C18.6736 2.51117 19.6349 2.84591 20.3941 3.60511C21.1533 4.36431 21.488 5.32557 21.6464 6.50353C21.8 7.64609 21.8 9.10453 21.8 10.9394V13.0591C21.8 14.8939 21.8 16.3523 21.6464 17.4949C21.488 18.6729 21.1533 19.6341 20.3941 20.3933C19.6349 21.1525 18.6736 21.4873 17.4956 21.6456C16.3531 21.7993 14.8946 21.7992 13.0598 21.7992H10.9401C9.10526 21.7992 7.64682 21.7993 6.50427 21.6456C5.3263 21.4873 4.36504 21.1525 3.60584 20.3933C2.84664 19.6341 2.51191 18.6729 2.35353 17.4949C2.19992 16.3523 2.19993 14.8939 2.19995 13.0591V10.9394C2.19993 9.10454 2.19992 7.64609 2.35353 6.50353C2.51191 5.32557 2.84664 4.36431 3.60584 3.60511C4.36504 2.84591 5.3263 2.51117 6.50427 2.3528C7.64683 2.19919 9.10527 2.1992 10.9401 2.19922ZM6.71746 3.93853C5.71692 4.07305 5.14958 4.32411 4.73721 4.73648C4.32484 5.14885 4.07378 5.71619 3.93927 6.71673C3.80165 7.74029 3.79995 9.09099 3.79995 10.9992V12.9992C3.79995 14.9075 3.80165 16.2582 3.93927 17.2817C4.07378 18.2823 4.32484 18.8496 4.73721 19.262C5.14958 19.6743 5.71692 19.9254 6.71746 20.0599C7.74102 20.1975 9.09172 20.1992 11 20.1992H13C14.9082 20.1992 16.2589 20.1975 17.2824 20.0599C18.283 19.9254 18.8503 19.6743 19.2627 19.262C19.6751 18.8496 19.9261 18.2823 20.0606 17.2817C20.1983 16.2582 20.2 14.9075 20.2 12.9992V10.9992C20.2 9.09099 20.1983 7.74029 20.0606 6.71673C19.9261 5.71619 19.6751 5.14885 19.2627 4.73648C18.8503 4.32411 18.283 4.07305 17.2824 3.93853C16.2589 3.80092 14.9082 3.79922 13 3.79922H11C9.09172 3.79922 7.74102 3.80092 6.71746 3.93853ZM18.9992 13.867L18.8665 13.7342L18.8427 13.7105C18.449 13.3167 18.1181 12.9858 17.8247 12.7386C17.5178 12.4799 17.197 12.264 16.8088 12.1469C16.2813 11.9877 15.7187 11.9877 15.1912 12.1469C14.803 12.264 14.4822 12.4799 14.1753 12.7386C13.8819 12.9858 13.551 13.3167 13.1573 13.7104L13.1335 13.7342C12.8295 14.0382 12.6411 14.2254 12.492 14.3487C12.4151 14.4123 12.3727 14.4379 12.3565 14.4466C12.3182 14.4503 12.2797 14.4429 12.2456 14.4253C12.2338 14.4111 12.2039 14.3716 12.1561 14.2841C12.0635 14.1142 11.9581 13.8704 11.7887 13.4752L11.7353 13.3506L11.717 13.308L11.717 13.3079L11.717 13.3079L11.717 13.3079C11.3578 12.4696 11.0625 11.7807 10.7721 11.2646C10.4745 10.7357 10.1192 10.2693 9.58019 9.99907C9.11933 9.76803 8.60363 9.66872 8.08992 9.71207C7.48914 9.76277 6.98605 10.0639 6.51324 10.4445C6.08155 10.7919 5.58977 11.2783 5 11.8677V12.9991C5 13.4045 5.00019 13.78 5.00161 14.1289L5.97557 13.1549C6.66147 12.469 7.13058 12.0015 7.51645 11.6909C7.89868 11.3832 8.09642 11.3172 8.22447 11.3064C8.44463 11.2878 8.66564 11.3304 8.86315 11.4294C8.97803 11.487 9.13711 11.6217 9.37774 12.0493C9.62066 12.481 9.88258 13.0893 10.2647 13.9809L10.3181 14.1055L10.332 14.1379C10.4831 14.4905 10.6181 14.8056 10.7515 15.0502C10.8903 15.3046 11.08 15.5862 11.39 15.7781C11.7655 16.0106 12.2134 16.0968 12.6485 16.0205C13.0076 15.9574 13.2883 15.7664 13.5116 15.5818C13.7263 15.4042 13.9687 15.1618 14.2399 14.8906L14.2399 14.8906L14.2649 14.8656C14.6886 14.4418 14.9714 14.1601 15.2064 13.962C15.4337 13.7704 15.5605 13.7067 15.6534 13.6787C15.8794 13.6105 16.1206 13.6105 16.3466 13.6787C16.4395 13.7067 16.5663 13.7704 16.7936 13.962C17.0286 14.1601 17.3114 14.4418 17.7351 14.8656L18.9592 16.0897C18.989 15.483 18.9971 14.7582 18.9992 13.867ZM16.5 8.99927C17.3284 8.99927 18 8.3277 18 7.49927C18 6.67084 17.3284 5.99927 16.5 5.99927C15.6716 5.99927 15 6.67084 15 7.49927C15 8.3277 15.6716 8.99927 16.5 8.99927Z" fill="#949494"/>
</g>
</svg>
