<svg width="100%" height="100%" viewBox="0 0 24 24" fill="none" xmlns="http://www.w3.org/2000/svg">
<path fill-rule="evenodd" clip-rule="evenodd" d="M11.9594 3.53436L12 3.53539L12.0406 3.53436C15.0691 3.4574 17.4436 6.2135 17.3141 9.31744L17.3139 9.32094C17.2642 10.5778 16.6368 12.1294 15.5853 13.3573C14.5343 14.5847 13.2626 15.2651 12.0406 15.234L12 15.233L11.9594 15.234C10.7377 15.265 9.46629 14.5847 8.41525 13.3571C7.36374 12.129 6.73619 10.5772 6.68607 9.32042L6.68594 9.31744C6.55636 6.2135 8.93086 3.4574 11.9594 3.53436ZM14.4452 16.2739C16.9768 15.0315 18.811 11.9546 18.9127 9.38418C19.0739 5.52138 16.1125 1.83037 12 1.93488C7.88749 1.83037 4.92607 5.52138 5.08734 9.38418C5.21248 12.5218 7.91861 16.4158 11.324 16.8036L11.0887 18.0766C11.042 18.3295 11.1197 18.5895 11.2977 18.7753C11.4756 18.9611 11.732 19.05 11.9868 19.0142L12.6113 18.9264C13.343 20.4693 14.5689 21.4902 15.8838 22.0109C16.2946 22.1735 16.7595 21.9724 16.9222 21.5616C17.0848 21.1508 16.8837 20.6859 16.4729 20.5233C15.642 20.1942 14.8526 19.5926 14.2995 18.6891L14.4598 18.6665C14.7146 18.6307 14.9365 18.4746 15.0564 18.247C15.1762 18.0193 15.1793 17.7479 15.0646 17.5177L14.4452 16.2739ZM8.16214 9.10954C8.59055 9.00148 9.02545 9.26117 9.13351 9.68958C9.50146 11.1483 10.5533 12.2719 11.5976 12.808C11.9907 13.0098 12.1457 13.492 11.944 13.8851C11.7422 14.2781 11.26 14.4332 10.8669 14.2314C9.45707 13.5077 8.07403 12.0311 7.5821 10.0809C7.47404 9.6525 7.73374 9.2176 8.16214 9.10954ZM13.0252 17.2525L13.1372 17.2367L13.0107 16.9827L12.9156 16.9961L12.864 17.2751L12.9776 17.2592C12.9935 17.2564 13.0094 17.2542 13.0252 17.2525Z" fill="current"/>
</svg>
