<svg width="100%" height="100%" viewBox="0 0 24 24" fill="none" xmlns="http://www.w3.org/2000/svg">
<path fill-rule="evenodd" clip-rule="evenodd" d="M6.7859 7.84301C7.53106 7.84301 8.13513 7.23894 8.13513 6.49378C8.13513 5.74863 7.53106 5.14456 6.7859 5.14456C6.04074 5.14456 5.43667 5.74863 5.43667 6.49378C5.43667 7.23894 6.04074 7.84301 6.7859 7.84301ZM6.7859 9.44301C8.41471 9.44301 9.73513 8.1226 9.73513 6.49378C9.73513 4.86497 8.41471 3.54456 6.7859 3.54456C5.15708 3.54456 3.83667 4.86497 3.83667 6.49378C3.83667 8.1226 5.15708 9.44301 6.7859 9.44301ZM10.2577 19.4017L11.1092 11.6462C11.1855 10.946 10.6378 10.3336 9.93297 10.3336H3.63917C2.93434 10.3336 2.38665 10.946 2.46291 11.6462L3.31449 19.4017C3.38035 20.0002 3.88644 20.4555 4.48959 20.4555H9.08255C9.38412 20.4555 9.66144 20.3399 9.87173 20.1504C10.082 19.9632 10.2253 19.6998 10.2577 19.4017ZM4.86413 18.8555H8.70801L9.46805 11.9336H4.10408L4.86413 18.8555ZM17.2136 7.84301C17.9588 7.84301 18.5629 7.23894 18.5629 6.49378C18.5629 5.74863 17.9588 5.14456 17.2136 5.14456C16.4685 5.14456 15.8644 5.74863 15.8644 6.49378C15.8644 7.23894 16.4685 7.84301 17.2136 7.84301ZM17.2136 9.44301C18.8424 9.44301 20.1629 8.1226 20.1629 6.49378C20.1629 4.86497 18.8424 3.54456 17.2136 3.54456C15.5848 3.54456 14.2644 4.86497 14.2644 6.49378C14.2644 8.1226 15.5848 9.44301 17.2136 9.44301ZM20.6854 11.3867L21.537 19.1421C21.6132 19.8423 21.0655 20.4547 20.3607 20.4547H14.0669C13.3621 20.4547 12.8144 19.8423 12.8906 19.1421L13.7422 11.3867C13.8081 10.7881 14.3142 10.3329 14.9173 10.3329H19.5103C19.8119 10.3329 20.0892 10.4484 20.2995 10.6379C20.5098 10.8251 20.653 11.0885 20.6854 11.3867ZM15.2919 11.9329H19.1357L19.8958 18.8547H14.5318L15.2919 11.9329Z" fill="black"/>
</svg>
