<svg width="100%" height="100%" viewBox="0 0 24 24" fill="none" xmlns="http://www.w3.org/2000/svg">
<path fill-rule="evenodd" clip-rule="evenodd" d="M10.6752 4.09454C10.9108 3.67117 11.3817 3.36642 11.9575 3.36642C12.5333 3.36642 13.0043 3.67117 13.2398 4.09454H10.6752ZM8.97885 4.09454C9.27523 2.74374 10.5212 1.76642 11.9575 1.76642C13.3939 1.76642 14.6398 2.74374 14.9362 4.09454H15.6639C17.3208 4.09454 18.6639 5.43769 18.6639 7.09454V9.14312C20.0326 9.42163 21.0625 10.6319 21.0625 12.0828V18.0828C21.0625 19.5342 20.0318 20.7449 18.6625 21.0228C18.4686 21.0622 18.268 21.0828 18.0625 21.0828H17.9276C17.3776 21.7147 16.5674 22.1141 15.6639 22.1141H8.38672C7.44473 22.1141 6.60415 21.6799 6.05415 21.0008H5.98047C5.77499 21.0008 5.57433 20.9801 5.38047 20.9408C4.01112 20.6628 2.98047 19.4522 2.98047 18.0008V12.0008C2.98047 10.5494 4.01112 9.33877 5.38047 9.0608L5.38672 9.05955V7.09454C5.38672 5.43769 6.72986 4.09454 8.38672 4.09454H8.97885ZM8.38672 5.69454H15.6639C16.2621 5.69454 16.7727 6.06976 16.9732 6.59769C16.5775 6.40548 16.1333 6.29767 15.6639 6.29767H8.38672C7.91731 6.29767 7.47308 6.40548 7.07745 6.59768C7.2779 6.06976 7.78849 5.69454 8.38672 5.69454ZM6.98672 9.29767V19.1131C6.98672 19.8863 7.61352 20.5131 8.38672 20.5131H15.6639C16.4158 20.5131 17.0293 19.9204 17.0625 19.1766V9.23421C17.0293 8.49047 16.4158 7.89767 15.6639 7.89767H8.38672C7.61352 7.89767 6.98672 8.52447 6.98672 9.29767ZM18.6625 19.207V19.3481C19.1355 19.1234 19.4625 18.6413 19.4625 18.0828V12.0828C19.4625 11.5249 19.1361 11.0432 18.6639 10.8182V19.1132V19.1141C18.6639 19.1452 18.6634 19.1762 18.6625 19.207ZM4.58047 18.0008C4.58047 18.5593 4.90748 19.0414 5.38047 19.2661V10.7355C4.90748 10.9602 4.58047 11.4423 4.58047 12.0008V18.0008ZM14.4883 14.1828H9.5625C9.34159 14.1828 9.1625 14.3619 9.1625 14.5828V14.9813H14.8883V14.5828C14.8883 14.3619 14.7092 14.1828 14.4883 14.1828ZM14.8883 16.5813H9.1625V17.5828C9.1625 17.8037 9.34159 17.9828 9.5625 17.9828H14.4883C14.7092 17.9828 14.8883 17.8037 14.8883 17.5828V16.5813ZM9.5625 12.5828C8.45793 12.5828 7.5625 13.4783 7.5625 14.5828V17.5828C7.5625 18.6874 8.45793 19.5828 9.5625 19.5828H14.4883C15.5929 19.5828 16.4883 18.6874 16.4883 17.5828V14.5828C16.4883 13.4783 15.5929 12.5828 14.4883 12.5828H9.5625ZM7.75391 10.582C7.75391 10.1402 8.11208 9.78204 8.55391 9.78204L15.4962 9.78204C15.938 9.78204 16.2962 10.1402 16.2962 10.582C16.2962 11.0239 15.938 11.382 15.4962 11.382H8.55391C8.11208 11.382 7.75391 11.0239 7.75391 10.582Z" fill="black"/>
</svg>
