<svg xmlns="http://www.w3.org/2000/svg" width="24" height="24" fill="none"><path fill-rule="evenodd" clip-rule="evenodd" d="M1.2 10.5a9.3 9.3 0 1 1 16.417 5.986l3.802 3.802a.8.8 0 1 1-1.131 1.131l-3.802-3.802A9.263 9.263 0 0 1 10.5 19.8a9.3 9.3 0 0 1-9.3-9.3zm9.3-7.7a7.7 7.7 0 1 0 0 15.4 7.7 7.7 0 0 0 0-15.4zM7.106 6.606A4.787 4.787 0 0 1 10.5 5.2c1.325 0 2.526.538 3.394 1.406a.8.8 0 0 1-1.131 1.131A3.187 3.187 0 0 0 10.5 6.8c-.884 0-1.683.357-2.263.937a.8.8 0 1 1-1.131-1.131z" fill="#333"/></svg>