<svg xmlns="http://www.w3.org/2000/svg" width="24" height="24" fill="none"><path fill-rule="evenodd" clip-rule="evenodd" d="M8.482 6.25 3.19 8.38v9.063l4.825-1.879a1.3 1.3 0 0 1 .857-.03l7.136 2.212 4.802-2.761V6.694l-4.151 2.098a1.3 1.3 0 0 1-1.032.061L8.482 6.25zm-.49-1.528a1.3 1.3 0 0 1 .93-.015l7.13 2.598 4.471-2.26a1.3 1.3 0 0 1 1.887 1.16v8.954a1.3 1.3 0 0 1-.652 1.126l-5.066 2.913a1.3 1.3 0 0 1-1.033.115l-7.161-2.22-5.136 2a1.3 1.3 0 0 1-1.772-1.21V8.177a1.3 1.3 0 0 1 .815-1.206l5.586-2.25zm.542 2.17a.5.5 0 0 1 .5.5v.88a.5.5 0 0 1-1 0v-.88a.5.5 0 0 1 .5-.5zm0 2.642a.5.5 0 0 1 .5.5v1.761a.5.5 0 0 1-1 0v-1.761a.5.5 0 0 1 .5-.5zm0 3.522a.5.5 0 0 1 .5.5v.881a.5.5 0 1 1-1 0v-.88a.5.5 0 0 1 .5-.5zm8.024-3.254a.5.5 0 0 0-1 0v.88a.5.5 0 1 0 1 0v-.88zm0 2.642a.5.5 0 1 0-1 0v1.761a.5.5 0 1 0 1 0v-1.76zm0 3.523a.5.5 0 1 0-1 0v.88a.5.5 0 1 0 1 0v-.88z" fill="currentColor"/></svg>