<svg width="100%" height="100%" viewBox="0 0 24 24" fill="none" xmlns="http://www.w3.org/2000/svg">
<path fill-rule="evenodd" clip-rule="evenodd" d="M9.02881 5.02205C9.02881 3.47565 10.2824 2.22205 11.8288 2.22205H18.1185C19.6649 2.22205 20.9185 3.47565 20.9185 5.02205V20.978C20.9185 21.4198 20.5603 21.778 20.1185 21.778C19.6767 21.778 19.3185 21.4198 19.3185 20.978V5.02205C19.3185 4.3593 18.7812 3.82205 18.1185 3.82205H11.8288C11.1661 3.82205 10.6288 4.3593 10.6288 5.02205V5.13191C13.964 5.55545 16.5035 8.58357 16.575 11.9412C16.5796 12.1563 16.4973 12.3642 16.3469 12.5179C16.1964 12.6716 15.9903 12.7583 15.7752 12.7583H3.88154C3.66642 12.7583 3.46035 12.6716 3.30986 12.5179C3.15937 12.3642 3.07714 12.1563 3.08172 11.9412C3.15328 8.58327 5.6932 5.55491 9.02881 5.1318V5.02205ZM14.895 11.1583C14.4582 8.67892 12.322 6.68142 9.82836 6.68142C7.33472 6.68142 5.19852 8.67892 4.76171 11.1583H14.895ZM7.51904 14.0377C7.51904 13.5958 7.16087 13.2377 6.71904 13.2377C6.27722 13.2377 5.91904 13.5958 5.91904 14.0377V15.9625C5.91904 16.4043 6.27722 16.7625 6.71904 16.7625C7.16087 16.7625 7.51904 16.4044 7.51904 15.9625V14.0377ZM7.51904 18.8498C7.51904 18.408 7.16087 18.0498 6.71904 18.0498C6.27722 18.0498 5.91904 18.408 5.91904 18.8498V20.7746C5.91904 21.2165 6.27722 21.5746 6.71904 21.5746C7.16087 21.5746 7.51904 21.2165 7.51904 20.7747V18.8498ZM9.846 13.2377C10.2878 13.2377 10.646 13.5958 10.646 14.0377V15.9625C10.646 16.4044 10.2878 16.7625 9.846 16.7625C9.40417 16.7625 9.046 16.4043 9.046 15.9625V14.0377C9.046 13.5958 9.40417 13.2377 9.846 13.2377ZM9.846 18.0498C10.2878 18.0498 10.646 18.408 10.646 18.8498V20.7747C10.646 21.2165 10.2878 21.5746 9.846 21.5746C9.40417 21.5746 9.046 21.2165 9.046 20.7746V18.8498C9.046 18.408 9.40417 18.0498 9.846 18.0498ZM13.771 14.0377C13.771 13.5958 13.4128 13.2377 12.971 13.2377C12.5292 13.2377 12.171 13.5958 12.171 14.0377V15.9625C12.171 16.4043 12.5292 16.7625 12.971 16.7625C13.4128 16.7625 13.771 16.4044 13.771 15.9625V14.0377ZM13.771 18.8498C13.771 18.408 13.4128 18.0498 12.971 18.0498C12.5292 18.0498 12.171 18.408 12.171 18.8498V20.7746C12.171 21.2165 12.5292 21.5746 12.971 21.5746C13.4128 21.5746 13.771 21.2165 13.771 20.7747V18.8498Z" fill="current"/>
</svg>
