<svg width="100%" height="100%" viewBox="0 0 24 24" fill="none" xmlns="http://www.w3.org/2000/svg">
<path fill-rule="evenodd" clip-rule="evenodd" d="M13.7487 1.87C12.7647 1.87 12.0766 2.28524 11.6673 2.88059C11.2909 3.42799 11.2007 4.05162 11.2007 4.45351L11.2032 8.27666C11.2035 8.71849 11.5619 9.07643 12.0037 9.07614C12.4455 9.07585 12.8035 8.71745 12.8032 8.27562L12.8007 4.45277C12.8007 4.24754 12.8536 3.97927 12.9858 3.78703C13.085 3.64268 13.2708 3.47 13.7487 3.47C13.9921 3.47 14.1375 3.52295 14.2253 3.57446C14.3136 3.6263 14.3843 3.70064 14.4422 3.80349C14.5705 4.03124 14.6102 4.35848 14.5851 4.62003C14.5429 5.05984 14.8653 5.45057 15.3051 5.49274C15.7449 5.53492 16.1356 5.21257 16.1778 4.77276C16.2223 4.30829 16.1765 3.62233 15.8364 3.01839C15.4615 2.35277 14.7706 1.87 13.7487 1.87ZM3.6558 9.8656C2.29664 9.8656 1.19482 10.9674 1.19482 12.3266C1.19482 13.097 1.54881 13.7847 2.103 14.2359C2.23315 17.3969 4.83689 19.9195 8.02982 19.9195H9.85107V19.9809C9.85107 21.1678 10.8133 22.13 12.0002 22.13C13.1871 22.13 14.1492 21.1678 14.1492 19.9809V19.9195H15.9693C19.162 19.9195 21.7657 17.3971 21.8961 14.2363C22.4505 13.7851 22.8047 13.0972 22.8047 12.3266C22.8047 10.9674 21.7029 9.8656 20.3438 9.8656H3.6558ZM14.1492 18.3192V18.3195H15.9693C18.0884 18.3195 19.8521 16.7979 20.2275 14.7876H3.77162C4.14695 16.7979 5.91069 18.3195 8.02982 18.3195H9.85107V18.3192H14.1492ZM11.4511 19.9809V19.9195H12.5492V19.9809C12.5492 20.2841 12.3034 20.53 12.0002 20.53C11.6969 20.53 11.4511 20.2841 11.4511 19.9809ZM2.79482 12.3266C2.79482 11.8511 3.18029 11.4656 3.6558 11.4656H20.3438C20.8193 11.4656 21.2047 11.8511 21.2047 12.3266C21.2047 12.8021 20.8193 13.1875 20.3438 13.1875H3.65579C3.18029 13.1875 2.79482 12.8021 2.79482 12.3266ZM7.05864 6.93738C7.50047 6.93738 7.85864 7.29555 7.85864 7.73738V8.35907C7.85864 8.8009 7.50047 9.15907 7.05864 9.15907C6.61682 9.15907 6.25864 8.8009 6.25864 8.35907V7.73738C6.25864 7.29555 6.61681 6.93738 7.05864 6.93738ZM17.7422 7.73738C17.7422 7.29555 17.384 6.93738 16.9422 6.93738C16.5004 6.93738 16.1422 7.29555 16.1422 7.73738V8.35907C16.1422 8.8009 16.5004 9.15907 16.9422 9.15907C17.384 9.15907 17.7422 8.8009 17.7422 8.35907V7.73738Z" fill="black"/>
</svg>
