<svg xmlns="http://www.w3.org/2000/svg" width="24" height="24" fill="none"><path d="m17.075 14.52 1.023 4.692c.072.602-.082 1.075-.463 1.416-.52.468-1.15.422-1.553.252-.25-.137-1.611-.976-4.084-2.514-2.474 1.538-3.836 2.377-4.085 2.515-.403.168-1.032.216-1.554-.253-.38-.34-.534-.814-.463-1.416l1.023-4.692-.005-.004.002-.003c-2.18-1.981-3.368-3.072-3.558-3.269-.297-.32-.484-.943-.258-1.57a1.459 1.459 0 0 1 1.144-.937c.228-.025 1.767-.175 4.618-.447h-.006c1.158-2.83 1.788-4.346 1.891-4.55.154-.306.648-.74 1.25-.74.603 0 1.037.398 1.222.688.12.237.761 1.772 1.92 4.602 2.85.272 4.39.422 4.617.448.34.04.919.308 1.144.936.226.627.039 1.248-.258 1.57-.192.198-1.38 1.289-3.562 3.272l-.005.004z" fill="#FFAD0A"/></svg>