<svg width="100%" height="100%" viewBox="0 0 24 24" fill="none" xmlns="http://www.w3.org/2000/svg">
<path fill-rule="evenodd" clip-rule="evenodd" d="M6.56233 2.19923L6.52307 2.19922C6.18203 2.19918 5.85926 2.19913 5.58974 2.23136C5.28854 2.26738 4.96702 2.35153 4.67382 2.58046C4.38061 2.80939 4.22099 3.10089 4.113 3.38437C4.01636 3.63802 3.93812 3.95117 3.85546 4.28203L3.84594 4.32013L2.63797 9.15199L2.63797 9.152C2.59328 9.33073 2.55268 9.49309 2.52581 9.62994C2.49765 9.77335 2.47341 9.94036 2.48569 10.1212C2.53556 10.8555 3.02742 11.4854 3.72767 11.7119C3.89393 11.7657 4.05687 11.7833 4.19922 11.7912L4.19922 17.0549C4.19919 17.9509 4.19916 18.703 4.27958 19.3011C4.36473 19.9345 4.55301 20.5136 5.01932 20.9799C5.48563 21.4462 6.06474 21.6345 6.69808 21.7196C7.29623 21.8001 8.04836 21.8 8.94435 21.8H15.0541C15.9501 21.8 16.7022 21.8001 17.3004 21.7196C17.9337 21.6345 18.5128 21.4462 18.9791 20.9799C19.4454 20.5136 19.6337 19.9345 19.7189 19.3011C19.7993 18.703 19.7993 17.9509 19.7992 17.0549L19.7992 11.7913C19.9423 11.7835 20.1064 11.766 20.2739 11.7119C20.9741 11.4854 21.466 10.8555 21.5159 10.1212C21.5282 9.94036 21.5039 9.77335 21.4758 9.62994C21.4489 9.49309 21.4083 9.33075 21.3636 9.15203L20.1461 4.28196C20.0634 3.95112 19.9852 3.63801 19.8886 3.38437C19.7806 3.10089 19.621 2.80939 19.3277 2.58046C19.0345 2.35153 18.713 2.26738 18.4118 2.23136C18.1423 2.19913 17.8195 2.19918 17.4785 2.19922L6.56233 2.19923ZM18.1992 11.7537C18.1518 11.7459 18.1054 11.7368 18.0598 11.7262C17.4362 11.5809 16.8894 11.2288 16.5009 10.7387C15.9969 11.3739 15.2261 11.7787 14.3713 11.7985C14.3387 11.7992 14.3035 11.7992 14.2592 11.7992H14.2424H14.2423C14.198 11.7992 14.1629 11.7992 14.1303 11.7985C13.2755 11.7787 12.5048 11.3739 12.0008 10.7388C11.4968 11.3739 10.7261 11.7787 9.87127 11.7985C9.83868 11.7992 9.80356 11.7992 9.75928 11.7992H9.75917H9.74239H9.74228C9.698 11.7992 9.66288 11.7992 9.63029 11.7985C8.77542 11.7787 8.0047 11.3739 7.5007 10.7387C7.11213 11.2288 6.56535 11.5809 5.9418 11.7262C5.89518 11.7371 5.84772 11.7463 5.79922 11.7542V17C5.79922 17.9654 5.80092 18.609 5.86531 19.0879C5.92661 19.5439 6.03122 19.729 6.15069 19.8485C6.27017 19.968 6.45536 20.0726 6.91128 20.1339C7.33879 20.1914 7.89751 20.1989 8.69922 20.1999V15.9992C8.69922 15.0051 9.50511 14.1992 10.4992 14.1992H13.4992C14.4933 14.1992 15.2992 15.0051 15.2992 15.9992V20.1999C16.1009 20.1989 16.6597 20.1914 17.0872 20.1339C17.5431 20.0726 17.7283 19.968 17.8477 19.8485C17.9672 19.729 18.0718 19.5439 18.1331 19.0879C18.1975 18.609 18.1992 17.9654 18.1992 17V11.7537ZM5.77972 3.82004C5.71154 3.82819 5.67582 3.83746 5.65956 3.84297C5.65027 3.85741 5.63261 3.88982 5.60817 3.95398C5.54975 4.10734 5.49383 4.32551 5.39816 4.70818L4.19455 9.52264C4.14411 9.7244 4.11385 9.84646 4.09584 9.93819C4.08623 9.98714 4.08347 10.0119 4.08268 10.0204C4.09072 10.096 4.14096 10.1605 4.21221 10.1868C4.22103 10.1882 4.24669 10.1916 4.29841 10.1942C4.39456 10.199 4.52421 10.1992 4.73669 10.1992C5.31374 10.1992 5.46683 10.194 5.57879 10.1679C5.95513 10.0803 6.26622 9.81672 6.41457 9.45992C6.45882 9.3535 6.48824 9.20824 6.5809 8.65228L6.58265 8.64182C6.59308 8.5792 6.60397 8.5138 6.61433 8.46221C6.61976 8.43515 6.62859 8.39354 6.64166 8.34888L6.64239 8.34639C6.65035 8.31891 6.68445 8.20128 6.76981 8.08245C7.12891 7.58252 7.87266 7.58252 8.23175 8.08245C8.31711 8.20128 8.35121 8.31891 8.35917 8.34639L8.3599 8.34888C8.37297 8.39354 8.3818 8.43515 8.38724 8.46221C8.39759 8.5138 8.40849 8.57921 8.41892 8.64183L8.5022 9.14152C8.51154 9.19757 8.51407 9.21243 8.51624 9.22382C8.62212 9.77953 9.10173 10.1858 9.66729 10.1989C9.67888 10.1992 9.69396 10.1992 9.75078 10.1992C9.80761 10.1992 9.82268 10.1992 9.83427 10.1989C10.3998 10.1858 10.8794 9.77953 10.9853 9.22382C10.9875 9.21243 10.99 9.19757 10.9994 9.14152L11.0827 8.64177L11.0827 8.64173C11.0931 8.57914 11.104 8.51378 11.1143 8.46221C11.1198 8.43515 11.1286 8.39354 11.1417 8.34888L11.1424 8.34638C11.1504 8.3189 11.1845 8.20128 11.2698 8.08245C11.6289 7.58252 12.3727 7.58252 12.7318 8.08245C12.8171 8.20128 12.8512 8.3189 12.8592 8.34638L12.8599 8.34888C12.873 8.39354 12.8818 8.43515 12.8872 8.46221C12.8976 8.51382 12.9085 8.57924 12.9189 8.64187L13.0022 9.14152C13.0115 9.19757 13.0141 9.21243 13.0162 9.22382C13.1221 9.77953 13.6017 10.1858 14.1673 10.1989C14.1789 10.1992 14.194 10.1992 14.2508 10.1992C14.3076 10.1992 14.3227 10.1992 14.3343 10.1989C14.8998 10.1858 15.3794 9.77953 15.4853 9.22382C15.4875 9.21243 15.49 9.19757 15.4994 9.14152L15.5827 8.64177L15.5827 8.64173C15.5931 8.57914 15.604 8.51378 15.6143 8.46221C15.6198 8.43515 15.6286 8.39354 15.6417 8.34888L15.6424 8.34638C15.6504 8.3189 15.6845 8.20128 15.7698 8.08245C16.1289 7.58252 16.8727 7.58252 17.2318 8.08245C17.3171 8.20128 17.3512 8.3189 17.3592 8.34638L17.3599 8.34888C17.373 8.39354 17.3818 8.43515 17.3872 8.46221C17.3976 8.51375 17.4085 8.57906 17.4189 8.64162L17.4189 8.64178L17.4207 8.65228C17.5133 9.20824 17.5427 9.3535 17.587 9.45992C17.7353 9.81672 18.0464 10.0803 18.4228 10.1679C18.5347 10.194 18.6878 10.1992 19.2649 10.1992C19.4774 10.1992 19.607 10.199 19.7032 10.1942C19.7549 10.1916 19.7805 10.1882 19.7894 10.1868C19.8606 10.1605 19.9108 10.096 19.9189 10.0204C19.9181 10.0119 19.9153 9.98713 19.9057 9.93819C19.8877 9.84646 19.8575 9.7244 19.807 9.52264L18.6034 4.70818C18.5077 4.32551 18.4518 4.10734 18.3934 3.95398C18.3689 3.88982 18.3513 3.85741 18.342 3.84297C18.3257 3.83746 18.29 3.82819 18.2218 3.82004C18.0589 3.80056 17.8337 3.79923 17.4392 3.79923H6.56233C6.16788 3.79923 5.94267 3.80056 5.77972 3.82004ZM13.6992 20.2H10.2992V15.9992C10.2992 15.8888 10.3888 15.7992 10.4992 15.7992H13.4992C13.6097 15.7992 13.6992 15.8888 13.6992 15.9992V20.2Z" fill="current"/>
</svg>
