<svg xmlns="http://www.w3.org/2000/svg" width="16" height="16" viewBox="0 0 16 16" fill="none">
  <path fill-rule="evenodd" clip-rule="evenodd" d="M8.0001 14.3996C11.5347 14.3996 14.4001 11.5342 14.4001 7.99961C14.4001 4.46499 11.5347 1.59961 8.0001 1.59961C4.46548 1.59961 1.6001 4.46499 1.6001 7.99961C1.6001 11.5342 4.46548 14.3996 8.0001 14.3996ZM13.3334 7.99961C13.3334 10.9451 10.9456 13.3329 8.0001 13.3329C5.05458 13.3329 2.66676 10.9451 2.66676 7.99961C2.66676 5.05409 5.05458 2.66628 8.0001 2.66628C10.9456 2.66628 13.3334 5.05409 13.3334 7.99961ZM8.53346 5.6668C8.53346 5.37225 8.29468 5.13346 8.00013 5.13346C7.70558 5.13346 7.4668 5.37225 7.4668 5.6668V7.83346C7.4668 8.22006 7.7802 8.53346 8.1668 8.53346H11.0001C11.2947 8.53346 11.5335 8.29468 11.5335 8.00013C11.5335 7.70558 11.2947 7.4668 11.0001 7.4668H8.53346V5.6668Z" fill="#949494"/>
</svg>