<svg width="100%" height="100%" viewBox="0 0 24 24" fill="none" xmlns="http://www.w3.org/2000/svg">
<path fill-rule="evenodd" clip-rule="evenodd" d="M3.15371 9.11001C3.21361 9.82794 3.7145 10.5516 5.28005 11.1604C6.8946 11.7883 9.24094 12.1017 12 12.1017C14.7591 12.1017 17.1054 11.7883 18.72 11.1604C20.2855 10.5516 20.7864 9.82794 20.8463 9.11001C20.7864 8.39208 20.2855 7.66846 18.72 7.05961C17.1054 6.43169 14.7591 6.11834 12 6.11834C9.24094 6.11834 6.8946 6.43169 5.28005 7.05961C3.7145 7.66846 3.21361 8.39208 3.15371 9.11001ZM22.4492 9.11001C22.3026 5.78797 17.6807 4.51834 12 4.51834C6.31928 4.51834 1.6974 5.78797 1.55078 9.11001C1.55364 9.17484 1.55821 9.23889 1.56445 9.30216V11.8098C1.56445 11.8485 1.56521 11.8869 1.56672 11.9251C1.56625 11.9363 1.56602 11.9476 1.56602 11.959L1.56602 16.1714C1.56602 16.6133 1.92419 16.9714 2.36602 16.9714C2.80784 16.9714 3.16602 16.6133 3.16602 16.1714V14.4193C3.68968 14.7525 4.3101 15.014 4.98183 15.2215C6.66016 15.7398 8.85148 15.9778 11.2008 16.0207L11.2008 18.6817C11.2008 19.1235 11.559 19.4817 12.0008 19.4817C12.4426 19.4817 12.8008 19.1235 12.8008 18.6817L12.8008 16.0207C15.1499 15.9778 17.341 15.7398 19.0192 15.2215C19.692 15.0137 20.3133 14.7516 20.8375 14.4177V16.1714C20.8375 16.6133 21.1957 16.9714 21.6375 16.9714C22.0793 16.9714 22.4375 16.6133 22.4375 16.1714V11.959C22.4375 11.9386 22.4367 11.9183 22.4352 11.8983C22.4361 11.869 22.4366 11.8395 22.4366 11.8098V9.29162C22.4423 9.23177 22.4465 9.17124 22.4492 9.11001ZM12 13.7017C15.7183 13.7017 18.983 13.1577 20.8359 11.8503C20.8253 12.1909 20.6785 12.4982 20.3372 12.8006C19.9621 13.1329 19.3689 13.4389 18.547 13.6927C16.9062 14.1995 14.5907 14.4279 12.0005 14.4279C9.4103 14.4279 7.09485 14.1995 5.45399 13.6927C4.63217 13.4389 4.03892 13.1329 3.66387 12.8006C3.32276 12.4984 3.17596 12.1913 3.16511 11.851C5.01824 13.1579 8.28238 13.7017 12 13.7017ZM11.9996 9.50428C10.3128 9.50428 8.89903 9.36862 7.94372 9.10818C8.89903 8.84775 10.3128 8.71209 11.9996 8.71209C13.6865 8.71209 15.1002 8.84775 16.0555 9.10818C15.1002 9.36862 13.6865 9.50428 11.9996 9.50428ZM11.9996 7.11209C15.4949 7.11209 18.3387 7.66402 18.4289 9.10818C18.3387 10.5523 15.4949 11.1043 11.9996 11.1043C8.50433 11.1043 5.66053 10.5523 5.57031 9.10818C5.66053 7.66402 8.50433 7.11209 11.9996 7.11209Z" fill="current"/>
</svg>
