<svg width="100%" height="100%" viewBox="0 0 24 24" fill="none" xmlns="http://www.w3.org/2000/svg">
<path fill-rule="evenodd" clip-rule="evenodd" d="M9.81581 2.70763C9.50349 2.39512 8.99695 2.39496 8.68444 2.70729C8.37192 3.01961 8.37177 3.52614 8.68409 3.83866L10.6123 5.76807H4.48433C2.93793 5.76807 1.68433 7.02167 1.68433 8.56806V18.7254C1.68433 20.2718 2.93793 21.5254 4.48433 21.5254H19.5156C21.062 21.5254 22.3156 20.2718 22.3156 18.7254V8.56807C22.3156 7.02167 21.062 5.76807 19.5156 5.76807H13.3826L15.3118 3.83883C15.6242 3.52641 15.6242 3.01988 15.3118 2.70746C14.9994 2.39504 14.4928 2.39504 14.1804 2.70746L11.9974 4.89052L9.81581 2.70763ZM4.48433 7.36807C3.82158 7.36807 3.28433 7.90532 3.28433 8.56806V18.7254C3.28433 19.3881 3.82159 19.9254 4.48433 19.9254H19.5156C20.1783 19.9254 20.7156 19.3881 20.7156 18.7254V8.56807C20.7156 7.90533 20.1783 7.36807 19.5156 7.36807H4.48433ZM4.68433 9.93135C4.68433 9.21338 5.26635 8.63135 5.98433 8.63135H18.0099C18.7278 8.63135 19.3099 9.21338 19.3099 9.93135V17.3659C19.3099 18.0838 18.7278 18.6659 18.0099 18.6659H5.98433C5.26636 18.6659 4.68433 18.0838 4.68433 17.3659V9.93135ZM6.28433 10.2313V17.0659H17.7099V10.2313H6.28433Z" fill="black"/>
</svg>
