<svg xmlns="http://www.w3.org/2000/svg" width="16" height="16" viewBox="0 0 16 16" fill="none">
  <path fill-rule="evenodd" clip-rule="evenodd" d="M10.3214 3.05568C9.14455 3.05568 8.19053 4.00971 8.19053 5.18657C8.19053 6.36343 9.14455 7.31746 10.3214 7.31746C11.4983 7.31746 12.4523 6.36343 12.4523 5.18657C12.4523 4.00971 11.4983 3.05568 10.3214 3.05568ZM7.99994 2.98945C8.58252 2.3741 9.40714 1.99023 10.3214 1.99023C12.0867 1.99023 13.5177 3.42128 13.5177 5.18657C13.5177 6.95186 12.0867 8.38291 10.3214 8.38291C9.40714 8.38291 8.58252 7.99904 7.99994 7.38369C7.41801 7.99835 6.59281 8.38291 5.67848 8.38291C3.9132 8.38291 2.48217 6.95186 2.48217 5.18657C2.48217 3.42128 3.9132 1.99023 5.67848 1.99023C6.59281 1.99023 7.41801 2.37479 7.99994 2.98945ZM7.40624 6.49932C7.35339 6.52761 7.30446 6.56537 7.26201 6.61247C6.87124 7.0461 6.30692 7.31746 5.67848 7.31746C4.50163 7.31746 3.5476 6.36343 3.5476 5.18657C3.5476 4.00971 4.50163 3.05568 5.67848 3.05568C6.30692 3.05568 6.87124 3.32705 7.26201 3.76067C7.30446 3.80777 7.35339 3.84553 7.40624 3.87382C7.22561 4.27431 7.12509 4.7187 7.12509 5.18657C7.12509 5.65444 7.22561 6.09883 7.40624 6.49932ZM5.67854 9.98108C4.42145 9.98108 3.18838 10.2915 2.16983 10.8777C1.15159 11.4637 0.385076 12.3054 0.0311999 13.2959C-0.0677848 13.573 0.0765751 13.8778 0.353637 13.9768C0.630699 14.0758 0.935544 13.9314 1.03453 13.6544C1.28769 12.9458 1.85878 12.286 2.70127 11.8012C3.54344 11.3165 4.59023 11.0465 5.67854 11.0465C5.97275 11.0465 6.21126 10.808 6.21126 10.5138C6.21126 10.2196 5.97275 9.98108 5.67854 9.98108ZM10.3215 9.98108C9.06438 9.98108 7.83131 10.2915 6.81276 10.8777C5.79451 11.4637 5.028 12.3054 4.67412 13.2959C4.57514 13.573 4.7195 13.8778 4.99656 13.9768C5.27362 14.0758 5.57847 13.9314 5.67745 13.6544C5.93061 12.9458 6.50171 12.286 7.34419 11.8012C8.18636 11.3165 9.23315 11.0465 10.3215 11.0465C11.4098 11.0465 12.4566 11.3165 13.2987 11.8012C14.1412 12.286 14.7123 12.9458 14.9655 13.6544C15.0645 13.9314 15.3693 14.0758 15.6464 13.9768C15.9234 13.8778 16.0678 13.573 15.9688 13.2959C15.6149 12.3054 14.8484 11.4637 13.8302 10.8777C12.8116 10.2915 11.5785 9.98108 10.3215 9.98108Z" fill="#949494"/>
</svg>