<svg width="100%" height="100%" viewBox="0 0 24 24" fill="none" xmlns="http://www.w3.org/2000/svg">
<path fill-rule="evenodd" clip-rule="evenodd" d="M10.6965 3.29951C10.6965 2.85768 10.3384 2.49951 9.89653 2.49951C9.45471 2.49951 9.09653 2.85768 9.09653 3.29951V3.31396H5.35503C5.11207 3.31396 4.87595 3.3944 4.68352 3.54272L3.21877 4.67166C2.64745 5.11201 2.64745 5.97382 3.21877 6.41416L4.68352 7.54311C4.87595 7.69142 5.11207 7.77186 5.35503 7.77186H9.09653L9.09653 12.5919C7.34266 12.6966 5.46047 13.1433 4.01338 14.2242C2.25708 15.5362 1.27526 17.6816 1.76252 20.8244C1.83021 21.261 2.23903 21.5601 2.67564 21.4924C3.11225 21.4247 3.41132 21.0159 3.34363 20.5793C2.9341 17.9378 3.75331 16.4156 4.97092 15.5061C6.05834 14.6938 7.56076 14.2986 9.09653 14.195V14.733C9.09653 15.1748 9.4547 15.533 9.89653 15.533C10.3384 15.533 10.6965 15.1748 10.6965 14.733V14.1645C13.7459 14.146 15.0188 14.0124 15.661 13.8518C15.6925 13.844 15.7303 13.835 15.7737 13.8246L15.7741 13.8245L15.7747 13.8244C16.0809 13.7515 16.6608 13.6135 17.2249 13.3487C17.8702 13.0457 18.6326 12.5158 18.9703 11.5814C19.1205 11.1659 18.9054 10.7073 18.4898 10.5571C18.0743 10.4069 17.6157 10.622 17.4655 11.0376C17.3343 11.4005 17.0124 11.6809 16.5449 11.9004C16.1424 12.0893 15.7344 12.1878 15.4191 12.2639L15.4189 12.264C15.3676 12.2764 15.3188 12.2881 15.2729 12.2996C14.8349 12.4091 13.7429 12.5453 10.6965 12.5644V10.8539H14.4443C14.6872 10.8539 14.9234 10.7735 15.1158 10.6251L16.5805 9.49619C17.1519 9.05585 17.1519 8.19404 16.5805 7.7537L15.1158 6.62475C14.9234 6.47643 14.6872 6.396 14.4443 6.396H10.7019V3.31396H10.6965V3.29951ZM5.52535 4.91396H9.09653V6.17186H5.52535L4.70933 5.54291L5.52535 4.91396ZM21.5644 9.98193C22.0062 9.98193 22.3644 10.3401 22.3644 10.7819C22.3644 12.1615 21.7101 13.5201 20.9873 14.3308C19.9081 15.541 18.1217 16.3695 15.7483 16.7747C15.1132 16.8831 14.2533 17.2529 13.7087 17.851C13.4465 18.139 13.2689 18.4662 13.2036 18.8376C13.1388 19.2068 13.1748 19.6774 13.4316 20.2714C13.6068 20.6769 13.4202 21.1478 13.0146 21.3231C12.609 21.4984 12.1382 21.3117 11.9629 20.9062C11.6012 20.0694 11.5011 19.282 11.6278 18.5608C11.754 17.8419 12.0955 17.2462 12.5256 16.7739C13.3654 15.8514 14.582 15.3506 15.479 15.1975C17.6659 14.8241 19.0497 14.0996 19.7931 13.2659C20.2989 12.6986 20.7644 11.7069 20.7644 10.7819C20.7644 10.3401 21.1225 9.98193 21.5644 9.98193ZM15.09 8.62494L14.274 7.996H10.6974V9.25389H14.274L15.09 8.62494Z" fill="current"/>
</svg>
