<svg width="100%" height="100%" viewBox="0 0 24 24" fill="none" xmlns="http://www.w3.org/2000/svg">
<path fill-rule="evenodd" clip-rule="evenodd" d="M7.23628 5.74505C7.75953 5.02145 8.62192 4.5625 9.85041 4.5625C10.8572 4.5625 11.6357 5.02245 12.1453 5.64492C12.639 6.24814 12.8901 7.01171 12.8901 7.69739C12.8901 8.13922 12.5319 8.49739 12.0901 8.49739C11.6482 8.49739 11.2901 8.13922 11.2901 7.69739C11.2901 7.37427 11.1626 6.97039 10.9072 6.65838C10.6675 6.3656 10.3262 6.1625 9.85041 6.1625C9.06006 6.1625 8.71365 6.43252 8.53281 6.6826C8.31877 6.9786 8.23281 7.39552 8.23281 7.79925V9.55078H15.7676V7.79925C15.7676 7.22419 15.881 6.42273 16.371 5.74505C16.8943 5.02145 17.7567 4.5625 18.9852 4.5625C19.992 4.5625 20.7705 5.02245 21.28 5.64492C21.7738 6.24814 22.0248 7.01171 22.0248 7.69739C22.0248 8.13922 21.6667 8.49739 21.2248 8.49739C20.783 8.49739 20.4248 8.13922 20.4248 7.69739C20.4248 7.37427 20.2973 6.97039 20.0419 6.65838C19.8023 6.3656 19.461 6.1625 18.9852 6.1625C18.1948 6.1625 17.8484 6.43252 17.6676 6.6826C17.4535 6.9786 17.3676 7.39552 17.3676 7.79925V10.3006C17.3686 10.3172 17.3691 10.3339 17.3691 10.3508C17.3691 10.3676 17.3686 10.3844 17.3676 10.401V14.0428C17.3686 14.0594 17.3691 14.0761 17.3691 14.093C17.3691 14.1098 17.3686 14.1266 17.3676 14.1432V16.579C17.3676 17.0209 17.0094 17.379 16.5676 17.379C16.1258 17.379 15.7676 17.0209 15.7676 16.579V14.893H8.23281V16.579C8.23281 17.0209 7.87464 17.379 7.43281 17.379C6.99098 17.379 6.63281 17.0209 6.63281 16.579V7.79925C6.63281 7.22419 6.74623 6.42273 7.23628 5.74505ZM15.7676 11.1508V13.293H8.23281V11.1508H15.7676ZM8.33323 19.436C6.67681 19.436 5.44709 18.8624 4.66622 18.1398C3.88536 18.8624 2.65564 19.436 0.999219 19.436C0.557391 19.436 0.199219 19.0778 0.199219 18.636C0.199219 18.1942 0.557391 17.836 0.999219 17.836C2.75988 17.836 3.67434 17.0105 3.96821 16.4868C4.11487 16.2254 4.38643 16.0783 4.66623 16.0781C4.7388 16.0781 4.81192 16.0879 4.88356 16.1083C5.08047 16.1638 5.25622 16.2943 5.36424 16.4868C5.65811 17.0105 6.57256 17.836 8.33322 17.836C10.06 17.836 10.9728 17.042 11.2845 16.5174C11.3537 16.3802 11.4631 16.2614 11.6071 16.1806C11.7314 16.1109 11.8662 16.0779 11.9992 16.0781C12.1322 16.0779 12.2671 16.1109 12.3913 16.1806C12.5354 16.2614 12.6448 16.3802 12.7139 16.5174C13.0257 17.042 13.9385 17.836 15.6653 17.836C17.4258 17.8359 18.3402 17.0105 18.634 16.4868C18.7807 16.2254 19.0522 16.0783 19.332 16.0781C19.4045 16.0781 19.4776 16.0879 19.5491 16.1082C19.7461 16.1636 19.922 16.2942 20.03 16.4868C20.3239 17.0105 21.2384 17.836 22.999 17.836C23.4409 17.836 23.799 18.1942 23.799 18.636C23.799 19.0778 23.4409 19.436 22.999 19.436C21.3426 19.436 20.1129 18.8624 19.332 18.1398C18.5512 18.8624 17.3214 19.436 15.665 19.436C15.6646 19.436 15.6641 19.436 15.6637 19.436C14.0087 19.4356 12.7799 18.8626 11.9992 18.1407C11.2187 18.8625 9.99022 19.4354 8.33582 19.436C8.33495 19.436 8.33409 19.436 8.33323 19.436Z" fill="black"/>
</svg>
