<svg width="100%" height="100%" viewBox="0 0 24 24" fill="none" xmlns="http://www.w3.org/2000/svg">
<path fill-rule="evenodd" clip-rule="evenodd" d="M1.93847 9.37272C4.69492 6.6568 8.27509 5.14258 12 5.14258C15.7248 5.14258 19.305 6.6568 22.0614 9.37272C22.3762 9.68282 22.3799 10.1893 22.0698 10.5041C21.7597 10.8188 21.2532 10.8225 20.9385 10.5124C18.4655 8.07587 15.2829 6.74258 12 6.74258C8.71704 6.74258 5.53436 8.07587 3.06143 10.5124C2.74671 10.8225 2.24019 10.8188 1.93009 10.5041C1.61999 10.1893 1.62375 9.68282 1.93847 9.37272ZM12 9.14258C9.34189 9.14258 6.81015 10.3246 4.90961 12.4027C4.61143 12.7287 4.63402 13.2347 4.96005 13.5329C5.28609 13.8311 5.79212 13.8085 6.0903 13.4825C7.71566 11.7053 9.83081 10.7426 12 10.7426C14.1691 10.7426 16.2843 11.7053 17.9096 13.4825C18.2078 13.8085 18.7138 13.8311 19.0399 13.5329C19.3659 13.2347 19.3885 12.7287 19.0903 12.4027C17.1898 10.3246 14.658 9.14258 12 9.14258ZM12 12.5801C10.4728 12.5801 9.02407 13.2392 7.9223 14.3891C7.61663 14.7081 7.62746 15.2146 7.94649 15.5202C8.26552 15.8259 8.77194 15.8151 9.07761 15.496C9.90456 14.6329 10.9466 14.1801 12 14.1801C13.0533 14.1801 14.0953 14.6329 14.9223 15.496C15.228 15.8151 15.7344 15.8259 16.0534 15.5202C16.3724 15.2146 16.3833 14.7081 16.0776 14.3891C14.9758 13.2392 13.5271 12.5801 12 12.5801ZM13.5007 17.3574C13.5007 18.1858 12.8292 18.8574 12.0007 18.8574C11.1723 18.8574 10.5007 18.1858 10.5007 17.3574C10.5007 16.529 11.1723 15.8574 12.0007 15.8574C12.8292 15.8574 13.5007 16.529 13.5007 17.3574Z" fill="current"/>
</svg>
