<svg width="52" height="52" viewBox="0 0 52 52" fill="none" xmlns="http://www.w3.org/2000/svg">
<g id="numeric-1-circle-outline">
<path id="Vector" d="M21.4648 15.6575H29.9648V36.9075H25.7148V19.9075H21.4648V15.6575ZM25.7148 5.03247C28.5054 5.03247 31.2687 5.58212 33.8469 6.65003C36.425 7.71794 38.7676 9.28321 40.7409 11.2565C42.7141 13.2297 44.2794 15.5723 45.3473 18.1504C46.4152 20.7286 46.9648 23.4919 46.9648 26.2825C46.9648 31.9183 44.726 37.3233 40.7409 41.3085C36.7557 45.2936 31.3507 47.5325 25.7148 47.5325C22.9243 47.5325 20.161 46.9828 17.5828 45.9149C15.0047 44.847 12.6621 43.2817 10.6888 41.3085C6.70368 37.3233 4.46484 31.9183 4.46484 26.2825C4.46484 20.6466 6.70368 15.2416 10.6888 11.2565C14.674 7.2713 20.079 5.03247 25.7148 5.03247ZM25.7148 9.28247C21.2062 9.28247 16.8821 11.0735 13.694 14.2617C10.5059 17.4498 8.71484 21.7738 8.71484 26.2825C8.71484 30.7912 10.5059 35.1152 13.694 38.3033C16.8821 41.4914 21.2062 43.2825 25.7148 43.2825C30.2235 43.2825 34.5475 41.4914 37.7357 38.3033C40.9238 35.1152 42.7148 30.7912 42.7148 26.2825C42.7148 21.7738 40.9238 17.4498 37.7357 14.2617C34.5475 11.0735 30.2235 9.28247 25.7148 9.28247Z" fill="black"/>
</g>
</svg>
