<svg width="51" height="51" viewBox="0 0 51 51" fill="none" xmlns="http://www.w3.org/2000/svg">
<g id="numeric-3-circle-outline">
<path id="Vector" d="M31.875 31.875C31.875 33.0022 31.4272 34.0832 30.6302 34.8802C29.8332 35.6772 28.7522 36.125 27.625 36.125H19.125V31.875H27.625V27.625H23.375V23.375H27.625V19.125H19.125V14.875H27.625C28.7522 14.875 29.8332 15.3228 30.6302 16.1198C31.4272 16.9168 31.875 17.9978 31.875 19.125V22.3125C31.875 23.1579 31.5392 23.9686 30.9414 24.5664C30.3436 25.1642 29.5329 25.5 28.6875 25.5C29.5329 25.5 30.3436 25.8358 30.9414 26.4336C31.5392 27.0314 31.875 27.8421 31.875 28.6875V31.875ZM25.5 4.25C28.2906 4.25 31.0539 4.79965 33.632 5.86756C36.2102 6.93547 38.5528 8.50074 40.526 10.474C42.4993 12.4472 44.0645 14.7898 45.1324 17.368C46.2004 19.9461 46.75 22.7094 46.75 25.5C46.75 31.1359 44.5112 36.5409 40.526 40.526C36.5409 44.5112 31.1359 46.75 25.5 46.75C22.7094 46.75 19.9461 46.2004 17.368 45.1324C14.7898 44.0645 12.4472 42.4993 10.474 40.526C6.48883 36.5409 4.25 31.1359 4.25 25.5C4.25 19.8641 6.48883 14.4591 10.474 10.474C14.4591 6.48883 19.8641 4.25 25.5 4.25ZM25.5 8.5C20.9913 8.5 16.6673 10.2911 13.4792 13.4792C10.2911 16.6673 8.5 20.9913 8.5 25.5C8.5 30.0087 10.2911 34.3327 13.4792 37.5208C16.6673 40.7089 20.9913 42.5 25.5 42.5C30.0087 42.5 34.3327 40.7089 37.5208 37.5208C40.7089 34.3327 42.5 30.0087 42.5 25.5C42.5 20.9913 40.7089 16.6673 37.5208 13.4792C34.3327 10.2911 30.0087 8.5 25.5 8.5Z" fill="black"/>
</g>
</svg>
