<svg width="51" height="51" viewBox="0 0 51 51" fill="none" xmlns="http://www.w3.org/2000/svg">
<path id="Vector" d="M10.1717 1.40541C16.8017 -2.44061 23.9983 2.25536 25.6133 9.56493C26.8317 9.56493 28.0217 9.81992 29.0983 10.2874C30.5717 9.01247 31.875 7.27007 31.365 5.31518C30.175 0.7467 37.0033 -2.95058 43.4917 3.3603C48.62 8.3325 42.3583 13.7297 32.5833 14.9409C32.5833 15.8546 32.2717 16.7683 31.62 17.5757C33.32 18.6594 35.6433 19.6368 38.25 19.2544C44.285 18.3619 49.2433 23.4616 40.8283 28.3488C34.1983 32.1949 27.0017 27.4989 25.3867 20.1893C24.1683 20.1893 22.9783 19.9131 21.93 19.4456C20.4567 20.7205 19.125 22.4842 19.635 24.4391C20.825 28.9863 13.9967 32.7048 7.50833 26.3939C2.35167 21.4005 8.64167 16.0033 18.4167 14.8134C18.4167 13.8997 18.785 13.0072 19.4083 12.1998C17.7083 11.1161 15.385 10.1174 12.75 10.4999C6.715 11.3923 1.75667 6.29262 10.1717 1.40541ZM5.66667 34.001H11.3333C12.8362 34.001 14.2776 34.4487 15.3403 35.2457C16.403 36.0427 17 37.1236 17 38.2508V51H11.3333V46.7503H5.66667V51H0V38.2508C0 37.1236 0.597022 36.0427 1.65973 35.2457C2.72243 34.4487 4.16377 34.001 5.66667 34.001ZM5.66667 38.2508V42.5005H11.3333V38.2508H5.66667ZM28.135 34.001H34L25.6983 51H19.8333L28.135 34.001ZM42.5 34.001H51V38.2508H42.5V46.7503H51V51H42.5C40.9971 51 39.5558 50.5523 38.4931 49.7553C37.4304 48.9583 36.8333 47.8774 36.8333 46.7503V38.2508C36.8333 37.1236 37.4304 36.0427 38.4931 35.2457C39.5558 34.4487 40.9971 34.001 42.5 34.001Z" fill="black"/>
</svg>
