<svg width="51" height="51" viewBox="0 0 51 51" fill="none" xmlns="http://www.w3.org/2000/svg">
<g id="24hr 1" clip-path="url(#clip0_697_29078)">
<g id="Group">
<path id="Vector" opacity="0.97" fill-rule="evenodd" clip-rule="evenodd" d="M23.1582 -0.0498047C24.6855 -0.0498047 26.2129 -0.0498047 27.7402 -0.0498047C36.6696 1.03473 43.3933 5.45075 47.9111 13.1982C49.5741 16.333 50.5867 19.6533 50.9492 23.1592C50.9492 24.6865 50.9492 26.2139 50.9492 27.7412C49.8647 36.6706 45.4487 43.3942 37.7012 47.9121C34.5664 49.5751 31.2461 50.5877 27.7402 50.9502C26.2129 50.9502 24.6855 50.9502 23.1582 50.9502C14.2288 49.8656 7.50521 45.4497 2.9873 37.7021C1.32436 34.5673 0.311657 31.2471 -0.0507812 27.7412C-0.0507812 26.2139 -0.0507812 24.6865 -0.0507812 23.1592C1.03372 14.2299 5.44973 7.50629 13.1973 2.98828C16.3321 1.32533 19.6524 0.312634 23.1582 -0.0498047Z" fill="#E9EDF1"/>
</g>
<g id="Group_2">
<path id="Vector_2" fill-rule="evenodd" clip-rule="evenodd" d="M23.4564 0.747145C31.8794 0.386814 38.8687 3.34189 44.4241 9.61238C50.5103 17.4586 51.7388 26.025 48.1097 35.3116C44.0557 43.8446 37.3321 48.7421 27.9388 50.004C19.3158 50.6614 12.1606 47.7562 6.47297 41.2882C1.16087 34.522 -0.43288 26.9517 1.69172 18.5772C4.46418 10.0938 10.0921 4.46589 18.5755 1.69343C20.2034 1.31179 21.8304 0.996368 23.4564 0.747145Z" fill="#FEFEFE"/>
</g>
<g id="Group_3">
<path id="Vector_3" fill-rule="evenodd" clip-rule="evenodd" d="M36.5062 20.37C37.5029 20.3534 38.499 20.37 39.4945 20.4198C42.2406 20.74 43.1204 22.1844 42.1342 24.7528C41.7714 25.2156 41.3231 25.5642 40.7894 25.7987C41.4162 26.0937 41.8313 26.5751 42.0346 27.243C42.327 28.3301 42.6425 29.4092 42.9808 30.4803C42.1819 30.5632 41.385 30.5466 40.5902 30.4305C40.2948 29.5478 40.0458 28.6513 39.8432 27.7411C39.4348 26.7344 38.6877 26.336 37.6019 26.5457C37.6019 27.8738 37.6019 29.202 37.6019 30.5301C36.8382 30.5301 36.0746 30.5301 35.3109 30.5301C35.2943 27.2096 35.3109 23.8894 35.3607 20.5692C35.7527 20.5056 36.1346 20.4393 36.5062 20.37Z" fill="#030303"/>
</g>
<g id="Group_4">
<path id="Vector_4" fill-rule="evenodd" clip-rule="evenodd" d="M27.2448 20.4695C26.5144 20.4695 25.7838 20.4695 25.0534 20.4695C25.0534 23.8231 25.0534 27.1765 25.0534 30.5301C24.954 27.1604 24.9207 23.7737 24.9538 20.3699C25.7359 20.3375 26.4995 20.3707 27.2448 20.4695Z" fill="#373737"/>
</g>
<g id="Group_5">
<path id="Vector_5" fill-rule="evenodd" clip-rule="evenodd" d="M27.2422 20.4697C27.2422 21.7646 27.2422 23.0596 27.2422 24.3545C28.5216 24.3873 29.7833 24.354 31.0273 24.2549C31.0273 22.9931 31.0273 21.7315 31.0273 20.4697C31.791 20.4697 32.5547 20.4697 33.3184 20.4697C33.3184 23.8233 33.3184 27.1767 33.3184 30.5303C32.5547 30.5303 31.791 30.5303 31.0273 30.5303C31.0273 29.1357 31.0273 27.7412 31.0273 26.3467C29.7656 26.3467 28.5039 26.3467 27.2422 26.3467C27.2422 27.7412 27.2422 29.1357 27.2422 30.5303C26.5118 30.5303 25.7812 30.5303 25.0508 30.5303C25.0508 27.1767 25.0508 23.8233 25.0508 20.4697C25.7812 20.4697 26.5118 20.4697 27.2422 20.4697Z" fill="#010101"/>
</g>
<g id="Group_6">
<path id="Vector_6" fill-rule="evenodd" clip-rule="evenodd" d="M11.307 28.538C11.2529 28.544 11.2197 28.5772 11.2073 28.6376C12.4009 28.7371 13.5962 28.7703 14.7933 28.7372C14.7933 29.3349 14.7933 29.9325 14.7933 30.5302C12.5023 30.5302 10.2113 30.5302 7.92024 30.5302C7.90373 30.0641 7.92032 29.5993 7.97005 29.1357C9.19232 28.1129 10.3544 27.0172 11.4564 25.8486C11.9733 25.2628 12.2888 24.582 12.4027 23.8066C12.3351 23.1742 12.0031 22.7426 11.4066 22.5116C10.4306 22.339 9.55071 22.5548 8.76692 23.1591C8.41 22.6859 8.21078 22.1546 8.16926 21.5654C9.3614 20.7624 10.6729 20.4801 12.1038 20.7187C14.011 21.1281 14.8576 22.3067 14.6439 24.2548C14.4282 25.1179 14.0298 25.8815 13.4486 26.5458C12.7776 27.2669 12.0638 27.931 11.307 28.538Z" fill="#020202"/>
</g>
<g id="Group_7">
<path id="Vector_7" fill-rule="evenodd" clip-rule="evenodd" d="M22.4613 20.7684C22.4613 22.6942 22.4613 24.62 22.4613 26.5458C22.8597 26.5458 23.2581 26.5458 23.6566 26.5458C23.6566 27.1103 23.6566 27.6747 23.6566 28.2391C23.2581 28.2391 22.8597 28.2391 22.4613 28.2391C22.4613 29.0028 22.4613 29.7665 22.4613 30.5302C21.7308 30.5302 21.0003 30.5302 20.2699 30.5302C20.2699 29.7665 20.2699 29.0028 20.2699 28.2391C18.8422 28.2391 17.4144 28.2391 15.9867 28.2391C15.9701 27.7068 15.9868 27.1756 16.0365 26.6454C17.2318 24.7196 18.4271 22.7938 19.6224 20.868C20.5604 20.7699 21.5067 20.7368 22.4613 20.7684Z" fill="#030303"/>
</g>
<g id="Group_8">
<path id="Vector_8" fill-rule="evenodd" clip-rule="evenodd" d="M22.4609 20.7686C22.5602 22.6438 22.5934 24.5364 22.5605 26.4463C22.9461 26.4149 23.3114 26.4481 23.6562 26.5459C23.2578 26.5459 22.8594 26.5459 22.4609 26.5459C22.4609 24.6202 22.4609 22.6943 22.4609 20.7686Z" fill="#DCDCDC"/>
</g>
<g id="Group_9">
<path id="Vector_9" fill-rule="evenodd" clip-rule="evenodd" d="M37.6016 22.0633C38.1669 22.0468 38.7314 22.0634 39.2949 22.1131C40.3302 22.5758 40.5792 23.3229 40.042 24.3543C39.3239 24.8971 38.5104 25.0963 37.6016 24.952C37.6016 23.9891 37.6016 23.0262 37.6016 22.0633Z" fill="#FAFAFA"/>
</g>
<g id="Group_10">
<path id="Vector_10" fill-rule="evenodd" clip-rule="evenodd" d="M20.3711 22.96C20.272 24.1043 20.2388 25.2664 20.2715 26.4463C19.5742 26.4463 18.877 26.4463 18.1797 26.4463C18.9417 25.1888 19.6555 23.8939 20.3213 22.5615C20.3701 22.6903 20.3867 22.8232 20.3711 22.96Z" fill="#FBFBFB"/>
</g>
<g id="Group_11">
<path id="Vector_11" fill-rule="evenodd" clip-rule="evenodd" d="M20.3711 22.96C20.3711 24.1553 20.3711 25.3506 20.3711 26.5459C19.5653 26.5791 18.8348 26.5458 18.1797 26.4463C18.877 26.4463 19.5742 26.4463 20.2715 26.4463C20.2388 25.2664 20.272 24.1043 20.3711 22.96Z" fill="#747474"/>
</g>
<g id="Group_12">
<path id="Vector_12" fill-rule="evenodd" clip-rule="evenodd" d="M27.2422 20.4697C27.3413 21.7137 27.3746 22.9755 27.3418 24.2549C28.5703 24.2549 29.7989 24.2549 31.0273 24.2549C29.7833 24.354 28.5216 24.3873 27.2422 24.3545C27.2422 23.0596 27.2422 21.7646 27.2422 20.4697Z" fill="#A5A5A5"/>
</g>
<g id="Group_13">
<path id="Vector_13" fill-rule="evenodd" clip-rule="evenodd" d="M11.3066 28.5381C12.4842 28.6372 13.6795 28.6704 14.8926 28.6377C14.9248 29.2873 14.8916 29.9182 14.793 30.5303C14.793 29.9326 14.793 29.335 14.793 28.7373C13.5959 28.7704 12.4006 28.7372 11.207 28.6377C11.2194 28.5772 11.2526 28.5441 11.3066 28.5381Z" fill="#6A6A6A"/>
</g>
</g>
<defs>
<clipPath id="clip0_697_29078">
<rect width="51" height="51" fill="white"/>
</clipPath>
</defs>
</svg>
