<svg width="52" height="52" viewBox="0 0 52 52" fill="none" xmlns="http://www.w3.org/2000/svg">
<g id="badminton">
<path id="Vector" d="M26.6375 4.7532C24.5763 4.81695 22.9825 6.5382 23.0462 8.5782C23.0675 9.0882 23.1738 9.57695 23.3863 10.0657L24.0025 11.4257C24.0875 11.702 23.9388 11.9995 23.6413 12.0845C23.45 12.1907 23.2375 12.0845 23.0888 11.9145L22.1963 10.7457C21.495 9.8532 20.4325 9.3007 19.3063 9.27945C17.245 9.23695 15.545 10.8732 15.5025 12.9132C15.4812 13.8057 15.7787 14.6557 16.3312 15.3782L17.2237 16.4407H17.245C17.415 16.717 17.3513 17.057 17.1175 17.227C16.9263 17.3757 16.6713 17.3757 16.5013 17.227L15.375 16.3345C14.6525 15.782 13.7813 15.4845 12.91 15.5057C10.87 15.5482 9.23375 17.2482 9.27625 19.3095C9.2975 20.4357 9.85 21.4982 10.7425 22.1995L11.9537 23.1345C12.1875 23.347 12.1875 23.687 11.9325 23.8782C11.7838 24.027 11.5712 24.0695 11.38 23.9845H11.3588L10.0625 23.3895C9.57375 23.1982 9.085 23.0707 8.575 23.0495C6.535 22.9857 4.81375 24.6007 4.75 26.662C4.75 28.192 5.6 29.5945 7.0025 30.1895L31.2062 40.9632L40.96 31.2095L30.1863 7.0057C29.5913 5.58195 28.125 4.68945 26.6375 4.7532ZM28.4013 13.4657C29.2938 13.4445 30.1013 13.9545 30.4413 14.762L36.9225 29.297L28.5287 20.9245L26.5525 16.4407C25.915 15.102 26.8925 13.5082 28.4013 13.4657ZM21.4313 19.3095C22.005 19.3095 22.5363 19.522 22.94 19.947L33.1612 30.1682C34.0112 30.9757 34.0325 32.3145 33.225 33.1645C32.375 34.0145 31.0575 34.0357 30.165 33.1645L19.9437 22.9432C19.0937 22.1357 19.0725 20.7757 19.9013 19.947C20.305 19.522 20.8575 19.3095 21.4313 19.3095ZM15.6513 26.3645C15.9275 26.3645 16.225 26.4495 16.4375 26.5557L20.9638 28.5532L29.3362 36.9257L14.7588 30.4445C12.5913 29.5095 13.3138 26.3007 15.6513 26.3645ZM43.595 34.5882L34.585 43.5982L36.3912 45.4045C38.0062 46.9982 40.3438 47.6145 42.5325 47.0407C44.7213 46.4457 46.4425 44.7245 47.0375 42.5357C47.6112 40.347 46.995 38.0095 45.4012 36.3945L43.595 34.5882Z" fill="black"/>
</g>
</svg>
