<svg width="51" height="51" viewBox="0 0 51 51" fill="none" xmlns="http://www.w3.org/2000/svg">
<path id="Vector" d="M10.404 0C9.792 2.9835 10.778 5.508 13.43 7.5735C15.13 8.8485 15.674 10.557 15.028 12.75H18.394C18.802 11.3475 18.87 10.2 18.53 9.0525C18.224 7.9815 17.17 6.7065 15.3 5.1765C13.77 3.7485 13.226 2.04 13.77 0H10.404ZM18.87 0C18.224 2.9835 19.244 5.508 21.896 7.5735C23.596 8.8485 24.106 10.557 23.494 12.75H26.826C27.2 11.3475 27.302 10.2 26.996 9.0525C26.656 7.9815 25.602 6.7065 23.8 5.1765C22.202 3.7485 21.692 2.04 22.202 0H18.87ZM27.472 0C26.826 2.9835 27.846 5.508 30.498 7.5735C32.198 8.8485 32.674 10.557 31.926 12.75H35.428C35.87 11.3475 35.904 10.2 35.598 9.0525C35.292 7.9815 34.204 6.7065 32.402 5.1765C30.804 3.7485 30.294 2.04 30.804 0H27.472ZM0 15.3C0 18.921 1.326 22.185 3.876 25.092C6.358 27.948 9.894 30.2175 14.076 31.5945L0.543999 47.022C0.203999 47.328 0 47.8125 0 48.45C0 49.4955 0.544 50.2095 1.496 50.592C1.904 50.847 2.55 51 3.4 51C4.794 51 5.746 50.592 6.256 49.878L9.622 45.8235H31.28C31.994 47.3025 33.286 48.5775 34.952 49.521C36.652 50.49 38.624 51 40.8 51C43.622 51 46.002 50.2095 48.042 48.6795C50.048 47.175 51 45.39 51 43.35C51 41.2335 50.048 39.4485 48.042 37.944C46.002 36.414 43.622 35.7 40.8 35.7C38.624 35.7 36.652 36.1335 34.952 37.1025C33.252 38.046 32.028 39.2955 31.28 40.8H14.076L20.774 33.0225C21.318 33.15 22.304 33.15 23.8 33.15C25.296 33.15 26.282 33.15 26.826 33.0225L30.192 36.975C31.586 35.598 33.456 34.527 35.598 33.864L33.694 31.5945C37.502 30.3195 40.8 28.05 43.486 24.9135C46.206 21.675 47.6 18.5385 47.6 15.3H0ZM40.8 40.8C41.82 40.8 42.602 41.0295 43.248 41.514C43.894 41.9985 44.2 42.636 44.2 43.35C44.2 44.0385 43.894 44.625 43.248 45.1605C42.636 45.6705 41.752 45.9 40.8 45.9C39.916 45.9 39.1 45.6705 38.386 45.1605C37.706 44.625 37.4 44.013 37.4 43.35C37.4 42.585 37.706 41.9985 38.386 41.514C39.1 41.0295 39.882 40.8 40.8 40.8Z" fill="black"/>
</svg>
