<svg width="51" height="51" viewBox="0 0 51 51" fill="none" xmlns="http://www.w3.org/2000/svg">
<g id="gamepad-square-outline">
<path id="Vector" d="M44.625 12.75H6.375C5.24783 12.75 4.16683 13.1978 3.3698 13.9948C2.57277 14.7918 2.125 15.8728 2.125 17V34C2.125 35.1272 2.57277 36.2082 3.3698 37.0052C4.16683 37.8022 5.24783 38.25 6.375 38.25H44.625C45.7522 38.25 46.8332 37.8022 47.6302 37.0052C48.4272 36.2082 48.875 35.1272 48.875 34V17C48.875 15.8728 48.4272 14.7918 47.6302 13.9948C46.8332 13.1978 45.7522 12.75 44.625 12.75ZM44.625 34H6.375V17H44.625M12.75 31.875H17V27.625H21.25V23.375H17V19.125H12.75V23.375H8.5V27.625H12.75M30.8125 25.5C31.6579 25.5 32.4686 25.8358 33.0664 26.4336C33.6642 27.0314 34 27.8421 34 28.6875C34 29.5329 33.6642 30.3436 33.0664 30.9414C32.4686 31.5392 31.6579 31.875 30.8125 31.875C29.9671 31.875 29.1564 31.5392 28.5586 30.9414C27.9608 30.3436 27.625 29.5329 27.625 28.6875C27.625 27.8421 27.9608 27.0314 28.5586 26.4336C29.1564 25.8358 29.9671 25.5 30.8125 25.5ZM39.3125 19.125C40.1579 19.125 40.9686 19.4608 41.5664 20.0586C42.1642 20.6564 42.5 21.4671 42.5 22.3125C42.5 23.1579 42.1642 23.9686 41.5664 24.5664C40.9686 25.1642 40.1579 25.5 39.3125 25.5C38.4671 25.5 37.6564 25.1642 37.0586 24.5664C36.4608 23.9686 36.125 23.1579 36.125 22.3125C36.125 21.4671 36.4608 20.6564 37.0586 20.0586C37.6564 19.4608 38.4671 19.125 39.3125 19.125Z" fill="black"/>
</g>
</svg>
