<svg width="51" height="51" viewBox="0 0 51 51" fill="none" xmlns="http://www.w3.org/2000/svg">
<g id="sail-boat">
<path id="Vector" d="M6.375 28.6875L23.375 4.31375V28.6875H6.375ZM26.5625 28.6875C29.4313 20.7188 29.0487 10.0087 26.5625 2.125C36.6775 5.3975 44.4125 17.85 44.54 28.6875H26.5625ZM44.8375 36.295C43.9663 37.655 42.9462 38.8237 41.7562 39.8225C40.375 39.2062 39.1425 38.25 38.165 37.1875C34.9987 41.2887 28.6025 41.2887 25.4363 37.1875C22.3125 41.2887 15.8737 41.2887 12.75 37.1875C11.6875 38.25 10.5188 39.2062 9.1375 39.8225C6.715 37.825 4.8875 34.9775 4.25 31.875H46.6225C46.2825 33.4688 45.6875 34.935 44.8375 36.295ZM44.54 48.875C42.2875 48.875 40.1625 48.3438 38.165 47.2812C34.255 49.4062 29.3463 49.4062 25.4363 47.2812C21.5263 49.4062 16.6175 49.4062 12.75 47.2812C10.1363 48.7475 7.14 48.9813 4.25 48.875V44.625C7.24625 44.7313 10.1363 44.4125 12.75 42.5C16.4475 45.1562 21.6963 45.1562 25.4363 42.5C29.1975 45.1562 34.425 45.1562 38.165 42.5C40.7362 44.4125 43.6475 44.7313 46.6225 44.625V48.875H44.54Z" fill="black"/>
</g>
</svg>
