<svg width="32" height="32" viewBox="0 0 32 32" fill="none" xmlns="http://www.w3.org/2000/svg">
<g id="campfire">
<path id="Vector" d="M21.2008 24.6667L29.2008 26.8001L28.6674 29.3334L16.1341 26.0001L3.60078 29.3334L2.93411 26.8001L10.9341 24.6667L2.80078 22.5334L3.46745 20.0001L16.0008 23.3334L28.5341 20.0001L29.2008 22.5334L21.2008 24.6667ZM21.4274 10.5601C21.2141 10.2667 20.9474 10.0001 20.6674 9.77341C20.0674 9.20008 19.3341 8.78675 18.7474 8.17341C17.3341 6.77341 17.0541 4.45341 17.9208 2.66675C17.0541 2.89341 16.2408 3.38675 15.5608 3.93341C13.1208 5.94675 12.1474 9.46675 13.3341 12.5067C13.3341 12.6001 13.3874 12.7067 13.3874 12.8267C13.3874 13.0401 13.2408 13.2267 13.0541 13.3334C12.8408 13.4001 12.6141 13.3334 12.4408 13.2001C12.3741 13.1467 12.3341 13.0934 12.2941 13.0267C11.2274 11.6534 11.0541 9.68008 11.7874 8.09341C10.2008 9.41341 9.33411 11.6267 9.48078 13.7201C9.50745 14.2001 9.57411 14.6667 9.73411 15.1467C9.88078 15.7334 10.1208 16.3067 10.4274 16.8134C11.4274 18.4801 13.2008 19.6801 15.0941 19.9201C17.1208 20.1867 19.2808 19.8001 20.8408 18.3867C22.5741 16.7867 23.2008 14.2267 22.2808 12.0001L22.1474 11.7734C21.9608 11.3334 21.7074 10.9334 21.3874 10.5734L21.4274 10.5601ZM18.4408 16.6267C18.1741 16.8667 17.7474 17.1067 17.4008 17.2134C16.3474 17.5867 15.2808 17.0534 14.6674 16.4134C15.7874 16.1467 16.4541 15.2934 16.6674 14.4401C16.8141 13.6667 16.5208 13.0401 16.3874 12.2934C16.2808 11.5867 16.2941 10.9734 16.5608 10.3067C16.7341 10.6667 16.9208 11.0401 17.1474 11.3334C17.8808 12.2934 19.0274 12.7201 19.2674 14.0001C19.2941 14.1734 19.3341 14.2934 19.3341 14.4401C19.3341 15.2401 19.0141 16.0934 18.4274 16.6267" fill="black"/>
</g>
</svg>
