<svg width="51" height="51" viewBox="0 0 51 51" fill="none" xmlns="http://www.w3.org/2000/svg">
<g id="city-variant-outline">
<path id="Vector" d="M31.875 48.875H27.625V44.625H31.875V48.875ZM40.375 44.625H36.125V48.875H40.375V44.625ZM31.875 36.125H27.625V40.375H31.875V36.125ZM14.875 44.625H10.625V48.875H14.875V44.625ZM14.875 36.125H10.625V40.375H14.875V36.125ZM40.375 36.125H36.125V40.375H40.375V36.125ZM31.875 27.625H27.625V31.875H31.875V27.625ZM40.375 27.625H36.125V31.875H40.375V27.625ZM44.625 19.125C45.7522 19.125 46.8332 19.5728 47.6302 20.3698C48.4272 21.1668 48.875 22.2478 48.875 23.375V48.875H44.625V23.375H23.375V48.875H19.125V31.875H6.375V48.875H2.125V31.875C2.125 30.7478 2.57277 29.6668 3.3698 28.8698C4.16683 28.0728 5.24783 27.625 6.375 27.625H19.125V23.375C19.125 22.2478 19.5728 21.1668 20.3698 20.3698C21.1668 19.5728 22.2478 19.125 23.375 19.125V14.875C23.375 13.7478 23.8228 12.6668 24.6198 11.8698C25.4168 11.0728 26.4978 10.625 27.625 10.625H31.875V2.125H36.125V10.625H40.375C41.5022 10.625 42.5832 11.0728 43.3802 11.8698C44.1772 12.6668 44.625 13.7478 44.625 14.875V19.125ZM40.375 19.125V14.875H27.625V19.125H40.375Z" fill="black"/>
</g>
</svg>
