<svg width="51" height="51" viewBox="0 0 51 51" fill="none" xmlns="http://www.w3.org/2000/svg">
<path id="Vector" d="M7.79369 0C6.69656 0 5.65046 0.396667 4.68091 1.19C3.71135 1.98333 3.15003 3.00333 2.89489 4.25L0.266881 16.745C-0.370984 19.8333 0.139308 22.44 1.74673 24.735C2.0529 25.075 2.35908 25.415 2.63974 25.6983C4.1451 27.3133 5.80355 28.3333 8.20192 28.3333C10.6003 28.3333 12.5139 27.1717 13.9427 25.6417C15.5501 27.3983 17.4892 28.3333 19.8876 28.3333C22.0308 28.3333 24.072 27.285 25.5008 25.6983C27.2358 27.4833 29.2004 28.3333 31.3692 28.3333C33.589 28.3333 35.477 27.3983 37.0845 25.6417C38.5388 27.2567 40.4524 28.3333 42.8763 28.3333C45.3002 28.3333 47.0096 27.3417 48.464 25.67C48.6936 25.415 48.9232 25.1317 49.1784 24.8483C50.8623 22.525 51.3726 19.8333 50.7348 16.745L48.1068 4.25C47.7751 3.00333 47.1882 1.98333 46.2442 1.19C45.3257 0.396667 44.3306 0 43.208 0M43.0804 5.58167L45.836 18.0767C46.0656 19.295 45.836 20.4 45.1216 21.3917C44.4837 22.27 43.6927 22.6667 42.7232 22.6667C41.9322 22.6667 41.2433 22.3833 40.682 21.7033C40.1207 21.0517 39.8145 20.2867 39.738 19.38L38.1816 5.66667M7.79369 5.66667H12.8201L11.2637 19.38C10.9575 21.6183 9.96243 22.6667 8.27847 22.6667C7.23237 22.6667 6.44141 22.27 5.88009 21.3917C5.16568 20.4 4.93605 19.295 5.16569 18.0767M17.974 5.66667H22.9494V18.9833C22.9494 19.975 22.6687 20.825 22.0308 21.59C21.393 22.3267 20.602 22.6667 19.6325 22.6667C18.765 22.6667 18.025 22.3267 17.4382 21.505C16.8514 20.6833 16.5707 19.8333 16.5707 18.87V18.4167M28.0523 5.66667H33.0276L34.4309 18.4167C34.6351 19.6067 34.4309 20.5983 33.691 21.4483C33.0276 22.2983 32.1601 22.6667 31.114 22.6667C30.3231 22.6667 29.6087 22.3267 28.9708 21.59C28.3329 20.825 28.0523 19.975 28.0523 18.9833M2.53768 31.2517V45.3333C2.53768 48.4783 4.80848 51 7.6406 51C19.5559 51 31.4457 51 43.361 51C46.1677 51 48.464 48.4783 48.464 45.3333V31.3083C47.0607 32.9517 45.2746 33.8867 43.361 34C40.8096 34.085 38.896 33.2633 37.0845 31.3083C35.5536 33.0083 33.5124 34 31.3692 34C29.0729 34 27.0317 32.98 25.5008 31.365C24.0465 32.98 22.0564 34 19.8366 34C17.5148 34 15.4736 33.0083 13.9427 31.3083C12.4629 32.98 10.4472 34 8.22744 34C5.93112 34 4.22164 33.0083 2.53768 31.2517Z" fill="black"/>
</svg>
