<svg width="51" height="51" viewBox="0 0 51 51" fill="none" xmlns="http://www.w3.org/2000/svg">
<g id="day 1" clip-path="url(#clip0_697_29130)">
<g id="Group">
<path id="Vector" opacity="0.942" fill-rule="evenodd" clip-rule="evenodd" d="M50.9492 45.0732C50.9492 45.5048 50.9492 45.9366 50.9492 46.3682C50.7988 46.5012 50.6328 46.6175 50.4512 46.7168C38.0996 46.7832 25.748 46.7832 13.3965 46.7168C12.641 46.2556 12.6078 45.7576 13.2969 45.2227C22.1955 45.206 31.094 45.1562 39.9922 45.0732C41.1875 36.1084 42.3828 27.1436 43.5781 18.1787C38.598 18.0957 33.6175 18.0459 28.6367 18.0293C28.1352 17.7292 28.0189 17.3141 28.2881 16.7842C28.378 16.6645 28.4942 16.5815 28.6367 16.5352C33.6835 16.4854 38.7303 16.4687 43.7773 16.4854C44.0267 14.4241 44.2923 12.3655 44.5742 10.3096C42.9805 10.3096 41.3867 10.3096 39.793 10.3096C39.8095 11.1403 39.793 11.9704 39.7432 12.7998C39.22 14.5145 38.0745 15.1951 36.3066 14.8418C35.3741 14.5071 34.7931 13.8596 34.5635 12.8994C34.5137 12.0368 34.4971 11.1735 34.5137 10.3096C28.5039 10.3096 22.4941 10.3096 16.4844 10.3096C16.5009 11.1735 16.4844 12.0368 16.4346 12.8994C16.0795 14.2167 15.2161 14.914 13.8447 14.9912C12.4423 14.8889 11.579 14.1584 11.2549 12.7998C11.2051 11.9704 11.1885 11.1403 11.2051 10.3096C9.71094 10.3096 8.2168 10.3096 6.72266 10.3096C6.44237 12.3712 6.14354 14.4298 5.82617 16.4854C12.6329 16.4687 19.4395 16.4854 26.2461 16.5352C26.7476 16.8353 26.8639 17.2504 26.5947 17.7803C26.5048 17.8999 26.3886 17.983 26.2461 18.0293C19.3728 18.0459 12.4998 18.0957 5.62695 18.1787C4.26179 27.1704 2.93366 36.1685 1.64258 45.1729C4.76385 45.1562 7.88494 45.1729 11.0059 45.2227C11.4976 45.6465 11.5309 46.1114 11.1055 46.6172C7.55873 46.7812 4.006 46.8144 0.447266 46.7168C0.265672 46.6175 0.0996558 46.5012 -0.0507812 46.3682C-0.0507812 45.9697 -0.0507812 45.5713 -0.0507812 45.1729C1.74689 33.2372 3.52325 21.284 5.27832 9.31348C5.35646 9.13557 5.47268 8.98616 5.62695 8.86523C7.48603 8.81544 9.34541 8.79883 11.2051 8.81543C11.1885 7.98469 11.2051 7.15461 11.2549 6.3252C11.5809 4.96603 12.4442 4.23556 13.8447 4.13379C15.2136 4.20796 16.0769 4.90522 16.4346 6.22559C16.4844 7.08823 16.5009 7.95151 16.4844 8.81543C22.4941 8.81543 28.5039 8.81543 34.5137 8.81543C34.4971 7.95151 34.5137 7.08823 34.5635 6.22559C34.9186 4.90821 35.7819 4.21095 37.1533 4.13379C38.5578 4.23674 39.4211 4.96721 39.7432 6.3252C39.793 7.15461 39.8095 7.98469 39.793 8.81543C41.8186 8.79883 43.844 8.81543 45.8691 8.86523C46.0186 8.94824 46.1348 9.06445 46.2178 9.21387C47.1681 16.4019 48.1144 23.5904 49.0566 30.7793C48.9563 31.4104 48.5912 31.676 47.9609 31.5762C47.783 31.498 47.6336 31.3818 47.5127 31.2275C46.8401 26.2123 46.1595 21.1986 45.4707 16.1865C44.1355 25.8387 42.8738 35.5008 41.6855 45.1729C44.209 45.1729 46.7325 45.1729 49.2559 45.1729C48.7958 41.4378 48.331 37.7024 47.8613 33.9668C47.8855 33.0739 48.3171 32.8082 49.1562 33.1699C49.295 33.2866 49.3781 33.436 49.4053 33.6182C49.8895 37.4551 50.4042 41.2735 50.9492 45.0732ZM13.6953 5.72754C14.2612 5.73599 14.643 6.00161 14.8408 6.52441C14.9073 8.5498 14.9073 10.5752 14.8408 12.6006C14.4633 13.363 13.9154 13.529 13.1973 13.0986C13.0183 12.9362 12.902 12.737 12.8486 12.501C12.7822 10.542 12.7822 8.58301 12.8486 6.62402C12.9663 6.16065 13.2485 5.86182 13.6953 5.72754ZM37.0039 5.72754C37.5698 5.73599 37.9516 6.00161 38.1494 6.52441C38.2159 8.5498 38.2159 10.5752 38.1494 12.6006C37.7857 13.3416 37.2379 13.5243 36.5059 13.1484C36.3524 12.9912 36.2361 12.8085 36.1572 12.6006C36.0908 10.5752 36.0908 8.5498 36.1572 6.52441C36.3012 6.09789 36.5834 5.83226 37.0039 5.72754ZM10.0098 24.5537C11.4043 24.5537 12.7988 24.5537 14.1934 24.5537C14.018 25.8476 13.852 27.1426 13.6953 28.4385C12.3008 28.4385 10.9062 28.4385 9.51172 28.4385C9.66841 27.1424 9.83443 25.8474 10.0098 24.5537ZM15.7871 24.5537C17.1816 24.5537 18.5762 24.5537 19.9707 24.5537C19.8326 25.8523 19.6666 27.1472 19.4727 28.4385C18.0781 28.4385 16.6836 28.4385 15.2891 28.4385C15.483 27.1472 15.6491 25.8523 15.7871 24.5537ZM21.6641 24.5537C23.0602 24.5205 24.4547 24.5538 25.8477 24.6533C25.6269 25.9112 25.4277 27.1729 25.25 28.4385C23.8555 28.4385 22.4609 28.4385 21.0664 28.4385C21.2657 27.1428 21.4649 25.8478 21.6641 24.5537ZM27.4414 24.5537C28.8359 24.5537 30.2305 24.5537 31.625 24.5537C31.4379 25.8137 31.2552 27.0754 31.0771 28.3389C29.6735 28.454 28.2624 28.4707 26.8438 28.3887C27.0657 27.1174 27.2649 25.8391 27.4414 24.5537ZM33.2188 24.5537C34.6133 24.5537 36.0078 24.5537 37.4023 24.5537C37.227 25.8474 37.061 27.1424 36.9043 28.4385C35.5098 28.4385 34.1152 28.4385 32.7207 28.4385C32.8774 27.1423 33.0434 25.8473 33.2188 24.5537ZM9.21289 30.0322C10.6074 30.0322 12.002 30.0322 13.3965 30.0322C13.2119 31.2914 13.0459 32.5531 12.8984 33.8174C11.5039 33.8174 10.1094 33.8174 8.71484 33.8174C8.88083 32.5558 9.04685 31.2941 9.21289 30.0322ZM14.9902 30.0322C16.3848 30.0322 17.7793 30.0322 19.1738 30.0322C19.0264 31.2965 18.8604 32.5582 18.6758 33.8174C17.2812 33.8174 15.8867 33.8174 14.4922 33.8174C14.6769 32.558 14.8428 31.2963 14.9902 30.0322ZM20.8672 30.0322C22.2621 30.0156 23.6566 30.0322 25.0508 30.082C24.838 31.3218 24.6388 32.5669 24.4531 33.8174C23.057 33.8506 21.6625 33.8173 20.2695 33.7178C20.4688 32.4889 20.668 31.2603 20.8672 30.0322ZM26.6445 30.0322C28.0391 30.0322 29.4336 30.0322 30.8281 30.0322C30.6503 31.2601 30.4677 32.4887 30.2803 33.7178C28.8766 33.8329 27.4655 33.8496 26.0469 33.7676C26.2782 32.5307 26.4774 31.2856 26.6445 30.0322ZM32.4219 30.0322C33.8164 30.0322 35.2109 30.0322 36.6055 30.0322C36.4209 31.2914 36.2548 32.5531 36.1074 33.8174C34.7129 33.8174 33.3184 33.8174 31.9238 33.8174C32.0898 32.5558 32.2558 31.2941 32.4219 30.0322ZM8.41602 35.4111C9.81055 35.4111 11.2051 35.4111 12.5996 35.4111C12.4243 36.7051 12.2582 38 12.1016 39.2959C10.707 39.2959 9.3125 39.2959 7.91797 39.2959C8.07466 37.9998 8.24068 36.7049 8.41602 35.4111ZM14.1934 35.4111C15.5879 35.4111 16.9824 35.4111 18.377 35.4111C18.2218 36.7073 18.0558 38.0022 17.8789 39.2959C16.4844 39.2959 15.0898 39.2959 13.6953 39.2959C13.8893 38.0047 14.0553 36.7097 14.1934 35.4111ZM20.0703 35.4111C21.4664 35.378 22.861 35.4112 24.2539 35.5107C24.0269 36.7677 23.8277 38.0294 23.6562 39.2959C22.2617 39.2959 20.8672 39.2959 19.4727 39.2959C19.6612 37.9985 19.8604 36.7036 20.0703 35.4111ZM25.8477 35.4111C27.2422 35.4111 28.6367 35.4111 30.0312 35.4111C29.8442 36.6711 29.6615 37.9328 29.4834 39.1963C28.0797 39.3114 26.6686 39.3281 25.25 39.2461C25.4719 37.9748 25.6711 36.6965 25.8477 35.4111ZM31.625 35.4111C33.0195 35.4111 34.4141 35.4111 35.8086 35.4111C35.6333 36.7049 35.4672 37.9998 35.3105 39.2959C33.916 39.2959 32.5215 39.2959 31.127 39.2959C31.2836 37.9998 31.4497 36.7049 31.625 35.4111Z" fill="black"/>
</g>
<g id="Group_2">
<path id="Vector_2" opacity="0.946" fill-rule="evenodd" clip-rule="evenodd" d="M8.91406 22.9599C18.8751 22.9432 28.836 22.9599 38.7969 23.0097C39.0327 23.201 39.1654 23.45 39.1953 23.7567C38.3603 29.2317 37.5468 34.7102 36.7549 40.1923C36.7144 40.4905 36.565 40.7064 36.3066 40.8397C26.3789 40.9062 16.4512 40.9062 6.52344 40.8397C6.27258 40.6535 6.13976 40.4044 6.125 40.0927C6.94927 34.5826 7.76275 29.0709 8.56543 23.5575C8.62158 23.3197 8.73779 23.1205 8.91406 22.9599ZM10.0098 24.5536C9.83443 25.8473 9.66841 27.1423 9.51172 28.4384C10.9062 28.4384 12.3008 28.4384 13.6953 28.4384C13.852 27.1425 14.018 25.8475 14.1934 24.5536C12.7988 24.5536 11.4043 24.5536 10.0098 24.5536ZM15.7871 24.5536C15.6491 25.8522 15.483 27.1471 15.2891 28.4384C16.6836 28.4384 18.0781 28.4384 19.4727 28.4384C19.6666 27.1471 19.8326 25.8522 19.9707 24.5536C18.5762 24.5536 17.1816 24.5536 15.7871 24.5536ZM21.6641 24.5536C21.4649 25.8477 21.2657 27.1426 21.0664 28.4384C22.4609 28.4384 23.8555 28.4384 25.25 28.4384C25.4277 27.1728 25.6269 25.9111 25.8477 24.6532C24.4547 24.5537 23.0602 24.5204 21.6641 24.5536ZM27.4414 24.5536C27.2649 25.839 27.0657 27.1172 26.8438 28.3886C28.2624 28.4705 29.6735 28.4539 31.0771 28.3388C31.2552 27.0753 31.4379 25.8136 31.625 24.5536C30.2305 24.5536 28.8359 24.5536 27.4414 24.5536ZM33.2188 24.5536C33.0434 25.8472 32.8774 27.1422 32.7207 28.4384C34.1152 28.4384 35.5098 28.4384 36.9043 28.4384C37.061 27.1423 37.227 25.8473 37.4023 24.5536C36.0078 24.5536 34.6133 24.5536 33.2188 24.5536ZM9.21289 30.0321C9.04685 31.294 8.88083 32.5557 8.71484 33.8173C10.1094 33.8173 11.5039 33.8173 12.8984 33.8173C13.0459 32.553 13.2119 31.2913 13.3965 30.0321C12.002 30.0321 10.6074 30.0321 9.21289 30.0321ZM14.9902 30.0321C14.8428 31.2962 14.6769 32.5579 14.4922 33.8173C15.8867 33.8173 17.2812 33.8173 18.6758 33.8173C18.8604 32.5581 19.0264 31.2964 19.1738 30.0321C17.7793 30.0321 16.3848 30.0321 14.9902 30.0321ZM20.8672 30.0321C20.668 31.2602 20.4688 32.4888 20.2695 33.7177C21.6625 33.8172 23.057 33.8504 24.4531 33.8173C24.6388 32.5668 24.838 31.3217 25.0508 30.0819C23.6566 30.0321 22.2621 30.0155 20.8672 30.0321ZM26.6445 30.0321C26.4774 31.2855 26.2782 32.5306 26.0469 33.7675C27.4655 33.8494 28.8766 33.8328 30.2803 33.7177C30.4677 32.4886 30.6503 31.26 30.8281 30.0321C29.4336 30.0321 28.0391 30.0321 26.6445 30.0321ZM32.4219 30.0321C32.2558 31.294 32.0898 32.5557 31.9238 33.8173C33.3184 33.8173 34.7129 33.8173 36.1074 33.8173C36.2548 32.553 36.4209 31.2913 36.6055 30.0321C35.2109 30.0321 33.8164 30.0321 32.4219 30.0321ZM8.41602 35.411C8.24068 36.7048 8.07466 37.9997 7.91797 39.2958C9.3125 39.2958 10.707 39.2958 12.1016 39.2958C12.2582 37.9999 12.4243 36.705 12.5996 35.411C11.2051 35.411 9.81055 35.411 8.41602 35.411ZM14.1934 35.411C14.0553 36.7096 13.8893 38.0046 13.6953 39.2958C15.0898 39.2958 16.4844 39.2958 17.8789 39.2958C18.0558 38.0021 18.2218 36.7071 18.377 35.411C16.9824 35.411 15.5879 35.411 14.1934 35.411ZM20.0703 35.411C19.8604 36.7035 19.6612 37.9984 19.4727 39.2958C20.8672 39.2958 22.2617 39.2958 23.6562 39.2958C23.8277 38.0293 24.0269 36.7676 24.2539 35.5106C22.861 35.4111 21.4664 35.3779 20.0703 35.411ZM25.8477 35.411C25.6711 36.6964 25.4719 37.9747 25.25 39.246C26.6686 39.328 28.0797 39.3113 29.4834 39.1962C29.6615 37.9327 29.8442 36.671 30.0312 35.411C28.6367 35.411 27.2422 35.411 25.8477 35.411ZM31.625 35.411C31.4497 36.7048 31.2836 37.9997 31.127 39.2958C32.5215 39.2958 33.916 39.2958 35.3105 39.2958C35.4672 37.9997 35.6333 36.7048 35.8086 35.411C34.4141 35.411 33.0195 35.411 31.625 35.411Z" fill="black"/>
</g>
</g>
<defs>
<clipPath id="clip0_697_29130">
<rect width="51" height="51" fill="white"/>
</clipPath>
</defs>
</svg>
