<svg width="51" height="51" viewBox="0 0 51 51" fill="none" xmlns="http://www.w3.org/2000/svg">
<g id="heating-coil">
<path id="Vector" d="M40.375 36.125C42.9463 36.125 46.75 34.425 46.75 29.75C46.75 25.075 42.9463 23.375 40.375 23.375H36.125V19.125H40.375C45.05 19.125 46.75 15.3213 46.75 12.75C46.75 8.075 42.9463 6.375 40.375 6.375H36.125V4.25H34V6.375H17V4.25H14.875V6.375H4.25V10.625H14.875V14.875H10.625C8.05375 14.875 4.25 16.575 4.25 21.25C4.25 25.925 8.05375 27.625 10.625 27.625H14.875V31.875H10.625C8.05375 31.875 4.25 33.575 4.25 38.25C4.25 42.925 8.05375 44.625 10.625 44.625H14.875V46.75H17V44.625H34V46.75H36.125V44.625H46.75V40.375H36.125V36.125H40.375ZM40.375 27.625C41.3312 27.625 42.5 28.0287 42.5 29.75C42.5 31.4713 41.3312 31.875 40.375 31.875H36.125V27.625H40.375ZM34 23.375H17V19.125H34V23.375ZM40.375 10.625C41.3312 10.625 42.5 11.05 42.5 12.75C42.5 13.7062 42.0963 14.875 40.375 14.875H36.125V10.625H40.375ZM17 10.625H34V14.875H17V10.625ZM10.625 23.375C9.66875 23.375 8.5 22.9713 8.5 21.25C8.5 19.5287 9.66875 19.125 10.625 19.125H14.875V23.375H10.625ZM17 27.625H34V31.875H17V27.625ZM10.625 40.375C9.66875 40.375 8.5 39.9713 8.5 38.25C8.5 36.5287 9.66875 36.125 10.625 36.125H14.875V40.375H10.625ZM34 40.375H17V36.125H34V40.375Z" fill="black"/>
</g>
</svg>
