<svg width="26" height="26" viewBox="0 0 26 26" fill="none" xmlns="http://www.w3.org/2000/svg">
<g id="Icon/Navigation/exit">
<circle id="Ellipse 87" cx="13" cy="13" r="9.75" fill="#F5F5F5"/>
<path id="Union" fill-rule="evenodd" clip-rule="evenodd" d="M10.3623 9.13641C10.0239 8.79795 9.47511 8.79795 9.13665 9.13641C8.7982 9.47486 8.7982 10.0236 9.13665 10.3621L11.7739 12.9993L9.13676 15.6364C8.7983 15.9749 8.7983 16.5236 9.13676 16.8621C9.47521 17.2005 10.024 17.2005 10.3624 16.8621L12.9995 14.2249L15.6367 16.8621C15.9751 17.2005 16.5239 17.2005 16.8623 16.8621C17.2008 16.5236 17.2008 15.9749 16.8623 15.6364L14.2252 12.9993L16.8624 10.3621C17.2009 10.0236 17.2009 9.47486 16.8624 9.13641C16.524 8.79795 15.9752 8.79795 15.6368 9.13641L12.9995 11.7736L10.3623 9.13641Z" fill="#949494"/>
</g>
</svg>
