<svg width="51" height="51" viewBox="0 0 51 51" fill="none" xmlns="http://www.w3.org/2000/svg">
<g id="fall 1" clip-path="url(#clip0_697_28682)">
<g id="Group">
<path id="Vector" d="M26.8348 0.27859C25.7491 1.07547 23.5776 3.76492 22.9501 5.10964C22.4819 6.09578 23.6772 6.73328 24.255 5.79695C25.3905 3.94421 25.9184 3.25691 27.0141 2.16121C28.2991 0.886207 28.3887 0.686989 27.9405 0.248707C27.6218 -0.0800035 27.313 -0.0600816 26.8348 0.27859Z" fill="black"/>
<path id="Vector_2" d="M44.6748 0.73711C43.7186 1.03594 43.0611 1.60371 42.6627 2.45039L42.4336 2.9584L41.7762 3.01816C41.0889 3.06797 40.1326 3.47637 39.6246 3.92461C39.1365 4.36289 38.6484 5.09004 38.4891 5.63789C38.3795 6.02637 38.2898 6.17578 38.1604 6.17578C37.8117 6.17578 36.7758 6.7834 36.3773 7.21172C36.1482 7.45078 35.8494 7.88906 35.69 8.18789L35.4111 8.71582L35.3812 11.8137L35.3514 14.9016L33.6082 16.6447C32.0742 18.1787 31.875 18.4078 31.875 18.6967C31.875 19.115 32.1738 19.4238 32.5922 19.4238C32.8711 19.4238 33.1301 19.2047 34.6641 17.6807L36.4172 15.9375H39.3258C41.9256 15.9375 42.2941 15.9176 42.7723 15.7482C43.8979 15.3498 44.7545 14.5131 45.0932 13.4672C45.1828 13.1883 45.3023 12.9492 45.3621 12.9492C45.6211 12.9393 46.6371 12.4512 46.9957 12.1623C47.7826 11.5447 48.4102 10.2797 48.4102 9.32344C48.4102 8.93496 48.4301 8.90508 48.8783 8.72578C49.4959 8.4668 50.1533 7.85918 50.482 7.22168L50.751 6.72363L50.7809 3.86484C50.8107 1.0957 50.8107 1.00606 50.6115 0.806836C50.4123 0.607618 50.3027 0.597657 47.7428 0.607618C45.8801 0.607618 44.9537 0.647461 44.6748 0.73711ZM47.1352 3.21738C46.5176 3.84492 46.0195 4.42266 46.0195 4.5123C46.0195 5.01035 46.5275 5.44863 46.9559 5.31914C47.0654 5.28926 47.6531 4.78125 48.2408 4.19355L49.3166 3.1377L49.2867 4.80117C49.2568 6.29531 49.2369 6.48457 49.0477 6.73359C48.7289 7.17188 48.4002 7.36113 47.8125 7.4707C47.0256 7.61016 46.916 7.78945 46.916 8.85527C46.916 9.47285 46.8562 9.82148 46.7268 10.1104C46.3781 10.8773 45.651 11.3953 44.7445 11.5148C44.107 11.5945 43.8779 11.8436 43.7883 12.501C43.6986 13.2381 43.2902 13.8258 42.6428 14.1645L42.1148 14.4434H40.0031L37.9014 14.4334L41.4674 10.9271C45.3023 7.15195 45.2625 7.20176 44.8143 6.63398C44.6648 6.44473 44.5154 6.375 44.2764 6.375C43.9576 6.375 43.6488 6.65391 40.3916 9.88125L36.8455 13.3875L36.8754 11.1961L36.9053 8.99473L37.1842 8.58633C37.5527 8.02852 38.0807 7.6998 38.7779 7.59023C39.5051 7.4707 39.7143 7.29141 39.7939 6.64395C39.8936 5.95664 40.1426 5.47852 40.6406 5.06016C41.1486 4.62188 41.6168 4.48242 42.5631 4.48242C43.5094 4.48242 43.7484 4.30313 43.9178 3.47637C44.0373 2.88867 44.4258 2.40059 44.9238 2.20137C45.0633 2.15156 45.8701 2.10176 46.7068 2.10176L48.2508 2.0918L47.1352 3.21738Z" fill="black"/>
<path id="Vector_3" d="M9.96165 0.966211C9.40384 1.07578 6.90364 1.70332 6.65462 1.80293C6.33587 1.93242 6.2761 2.07188 5.8179 3.88477C5.28001 5.98652 5.33977 6.84316 6.06692 7.89902C6.2263 8.12813 7.0929 9.04453 8.0093 9.94102C9.95169 11.8535 10.3202 12.0826 11.6052 12.1324C12.2527 12.1523 12.6411 12.0926 13.697 11.8236L14.9919 11.485L15.9482 12.4113C16.5757 13.0189 16.9841 13.3477 17.1236 13.3477C17.2531 13.3477 17.4822 13.2082 17.6515 13.0488C18.0798 12.6105 17.9802 12.3615 16.9443 11.3057L16.0677 10.4092L16.4064 9.11426C16.6853 8.04844 16.7351 7.67988 16.7052 7.02246C16.6554 5.77734 16.3765 5.34902 14.2947 3.28711C12.8603 1.88262 12.4519 1.53398 11.9339 1.29492C11.3163 1.01602 10.4597 0.866602 9.96165 0.966211ZM11.3064 2.61973C11.6849 2.81895 14.7628 5.82715 15.0019 6.23555C15.2609 6.67383 15.3206 7.33125 15.1513 7.96875C15.0915 8.15801 15.0019 8.50664 14.9421 8.7457L14.8325 9.17402L11.7048 6.10605C9.98157 4.42266 8.56712 2.99824 8.54719 2.94844C8.52727 2.88867 8.89583 2.74922 9.36399 2.62969C10.2306 2.40059 10.888 2.39063 11.3064 2.61973ZM13.707 10.2398C13.6771 10.2598 13.3384 10.3594 12.93 10.4689C12.1232 10.6781 11.406 10.708 11.0175 10.5586C10.7187 10.449 7.64075 7.54043 7.29212 7.04238C6.87376 6.44473 6.83391 6.05625 7.08294 5.04023C7.20247 4.54219 7.322 4.10391 7.34192 4.0541C7.36184 4.01426 8.81614 5.37891 10.5593 7.09219C12.3124 8.80547 13.7269 10.2199 13.707 10.2398Z" fill="black"/>
<path id="Vector_4" d="M21.7329 8.23765C21.3942 8.52652 20.7766 10.957 20.6571 12.4611C20.5973 13.1484 20.6073 13.238 20.8065 13.4373C21.1352 13.766 21.8026 13.6763 21.952 13.2779C21.9919 13.1783 22.1114 12.5906 22.221 11.9531C22.3305 11.3255 22.5298 10.3992 22.6592 9.90113C22.7987 9.39312 22.9083 8.87515 22.9083 8.72574C22.9083 8.16793 22.1712 7.85914 21.7329 8.23765Z" fill="black"/>
<path id="Vector_5" d="M22.5213 14.9015C22.0731 15.0907 20.2104 16.9335 19.2342 18.1288C18.3576 19.2146 17.5807 20.4696 17.1822 21.4159C17.0328 21.7745 16.9033 22.0733 16.8834 22.0933C16.8735 22.1032 16.216 21.7845 15.4291 21.386C9.084 18.1487 5.46818 17.7901 4.37248 20.2704C4.19318 20.6689 4.15334 20.9478 4.15334 21.6649C4.17326 23.5774 5.00998 26.1872 6.74318 29.7134C7.20138 30.6398 7.55002 31.4366 7.51017 31.4864C7.48029 31.5362 7.4006 31.5761 7.32092 31.5761C7.05197 31.5761 5.19924 32.5921 4.28283 33.2396C3.08752 34.1062 0.676971 36.4271 0.408025 36.9948C0.149041 37.5128 0.13908 38.3296 0.358221 38.8077C0.557439 39.2261 1.91213 40.511 3.00783 41.3378C5.14943 42.9415 7.81896 44.1567 10.3988 44.7146C11.624 44.9835 11.8033 44.9735 12.1221 44.6648C12.3213 44.4655 12.3612 44.356 12.3113 44.097C12.2715 43.9276 12.1918 43.7284 12.1221 43.6587C12.0623 43.5989 11.4647 43.4196 10.8172 43.2802C7.60978 42.563 4.77092 41.0788 2.40021 38.8874C1.36428 37.9312 1.37424 37.9112 2.96799 36.3573C4.89045 34.4847 6.80295 33.2296 8.38674 32.8112C9.10392 32.612 9.46252 32.3431 9.46252 32.0044C9.46252 31.8749 9.13381 31.1378 8.72541 30.3509C6.80295 26.6753 5.6674 23.4679 5.64748 21.6849C5.63752 20.7386 5.81681 20.4497 6.51408 20.2306C7.9883 19.7724 12.0026 21.1271 16.2459 23.5177C17.1623 24.0357 17.6006 24.1153 17.8596 23.8265C17.9393 23.7368 18.1485 23.2288 18.3178 22.7108C18.8656 21.0075 19.9613 19.3939 21.8639 17.4515C22.7903 16.5251 23.1289 16.2362 23.3281 16.2362C23.866 16.2362 25.8881 18.6866 26.924 20.619C28.2787 23.1192 28.9461 25.5896 29.0557 28.4384C29.1154 30.1218 29.1752 30.3011 29.7529 30.4804C31.1076 30.9187 33.3389 32.4028 34.2951 33.4985C34.9426 34.2456 35.0123 34.4149 34.8131 34.7237C34.4445 35.2915 31.8746 36.9849 30.5199 37.5526C28.8764 38.23 26.8045 38.6284 25.5594 38.4989L24.9319 38.4292L23.5971 37.0944C22.8699 36.3673 22.2922 35.7497 22.3121 35.7298C22.342 35.7099 22.9895 35.5903 23.7565 35.4808C25.0016 35.2915 25.1709 35.2417 25.3801 35.0126C25.6291 34.7237 25.659 34.405 25.4598 34.146C25.2008 33.8073 24.902 33.7874 23.2783 34.0464C22.4117 34.1759 21.6846 34.2655 21.6547 34.2456C21.6348 34.2157 22.0233 32.353 22.5113 30.0919C23.0094 27.8407 23.4078 25.8386 23.4078 25.6493C23.4078 25.4103 23.3381 25.2608 23.1488 25.1114C22.8102 24.8425 22.5811 24.8524 22.2723 25.1214C22.0432 25.3306 21.9236 25.7589 21.1168 29.4644C20.6287 31.7255 20.2203 33.6081 20.2203 33.648C20.2203 33.6878 18.8856 32.3829 17.252 30.7493C14.5924 28.0997 14.2537 27.7909 13.9649 27.7909C13.5465 27.7909 13.2477 28.0898 13.2477 28.5081C13.2477 28.8069 13.5465 29.1357 16.2061 31.7952L19.1545 34.7437L18.766 34.8433C18.5569 34.903 16.6742 35.3114 14.5924 35.7597C10.5283 36.6362 10.359 36.706 10.359 37.2737C10.359 37.5726 10.7375 38.0507 10.9766 38.0507C11.0563 38.0507 13.0385 37.6323 15.3893 37.1144C17.75 36.5964 19.6824 36.188 19.7024 36.198C19.7123 36.2179 19.6028 36.9749 19.4633 37.9013C19.2043 39.5648 19.2043 39.5747 19.3936 39.8337C19.6625 40.1923 20.2004 40.2321 20.4893 39.9233C20.6487 39.7441 20.7483 39.3855 20.9076 38.2997C21.0272 37.5427 21.1467 36.8952 21.1766 36.8653C21.2065 36.8355 21.8141 37.4032 22.5412 38.1304L23.8561 39.4452L23.8461 40.9194C23.8461 42.1148 23.7963 42.5431 23.617 43.2304C23.099 45.1927 22.0332 47.2048 20.6188 48.8982C19.9414 49.7149 19.8319 49.705 18.8158 48.7388C17.7002 47.673 17.1225 46.8661 16.4252 45.4218C16.0865 44.7345 15.7877 44.1069 15.7479 44.0273C15.6981 43.9476 15.5586 43.8181 15.4192 43.7384C15.0606 43.5292 14.6721 43.6687 14.4828 44.0671C14.3235 44.3858 14.3334 44.4257 14.682 45.2724C15.3793 46.9956 16.3057 48.3702 17.6504 49.705C18.9453 50.98 19.7621 51.2589 20.7781 50.7509C21.844 50.213 23.866 47.145 24.6928 44.7942C25.0414 43.7982 25.4 42.1546 25.4 41.547C25.4 41.3179 25.4299 41.1386 25.4697 41.1386C25.5096 41.1386 26.8444 42.4335 28.4381 44.0273C30.3705 45.9597 31.4065 46.9159 31.5459 46.9159C31.9244 46.9159 32.2731 46.5374 32.2731 46.139C32.2731 45.8003 32.1137 45.611 29.4143 42.9216C26.8842 40.3816 26.5854 40.0528 26.8045 40.013C26.934 39.9831 27.4022 39.9134 27.8404 39.8636C29.4043 39.6544 31.6555 38.8077 33.2194 37.8316C34.4744 37.0446 35.9088 35.8792 36.1479 35.4608C36.4666 34.8931 36.4865 34.0763 36.1877 33.5185C35.5403 32.2833 33.1994 30.3708 31.2371 29.4843L30.5797 29.1855V28.4583C30.5697 25.6593 29.5338 22.0733 27.95 19.3939C26.8543 17.5312 25.0215 15.3099 24.2744 14.9513C23.7664 14.7023 23.0194 14.6823 22.5213 14.9015Z" fill="black"/>
<path id="Vector_6" d="M49.8426 18.0291C49.733 18.069 49.3844 18.4475 49.0656 18.8659C47.9201 20.37 46.0375 21.904 44.2346 22.8104C42.5014 23.677 40.569 24.1651 38.527 24.2647C36.9233 24.3344 36.8635 24.3444 36.7041 24.7229C36.5547 25.0815 36.6444 25.45 36.9332 25.6592C37.3117 25.9481 39.8916 25.7489 41.6945 25.3006C44.4139 24.6133 46.7348 23.3383 48.727 21.4358C50.0319 20.1807 50.7988 19.1747 50.7988 18.7065C50.7988 18.1985 50.3207 17.8598 49.8426 18.0291Z" fill="black"/>
<path id="Vector_7" d="M48.6273 26.2968C46.8842 27.4224 44.7127 28.1994 42.1328 28.6377C40.9475 28.8369 40.7383 28.9664 40.7383 29.4744C40.7383 30.2713 41.1766 30.3609 43.0592 29.9924C45.8383 29.4345 48.7568 28.2392 49.8326 27.2232C50.1414 26.9144 50.1812 26.516 49.9322 26.2172C49.6035 25.8287 49.3047 25.8486 48.6273 26.2968Z" fill="black"/>
<path id="Vector_8" d="M44.0273 36.9749C43.5592 37.1542 43.2105 37.453 41.577 39.0667C39.3656 41.2481 39.1365 41.5967 39.0768 42.8319C39.0469 43.4395 39.0967 43.828 39.3756 44.9237L39.7143 46.2684L38.5787 47.4239C37.5826 48.4499 37.4531 48.6192 37.4531 48.928C37.4531 49.3165 37.6523 49.5555 38.0807 49.6551C38.3297 49.7249 38.4592 49.6253 39.5449 48.5495L40.7402 47.3741L42.324 47.7526C44.9139 48.3801 45.1928 48.2805 47.7926 45.6907C50.482 43.0212 50.5916 42.7223 49.9143 39.8436C49.6852 38.8874 49.4162 37.9909 49.3166 37.8514C49.1672 37.6422 48.8684 37.5327 47.5535 37.184C45.6908 36.696 44.884 36.6462 44.0273 36.9749ZM46.398 38.4391C46.8064 38.5487 47.165 38.6583 47.1949 38.6981C47.2248 38.728 45.8502 40.1624 44.127 41.8856C42.4037 43.6088 40.9793 45.0034 40.9594 44.9835C40.9395 44.9536 40.8398 44.6149 40.7303 44.2065C40.4912 43.2901 40.4912 42.6924 40.7303 42.1844C40.9395 41.7362 43.9975 38.6483 44.4756 38.4092C44.874 38.2001 45.5115 38.21 46.398 38.4391ZM48.7986 41.786C48.8186 42.4434 48.3902 43.0212 46.657 44.7344C44.5951 46.7665 44.5453 46.7864 43.0711 46.4178C42.6428 46.2983 42.2145 46.1887 42.1447 46.1588C42.0451 46.129 43.0711 45.0333 45.1828 42.9215L48.3604 39.744L48.5795 40.6106C48.699 41.0987 48.7986 41.6167 48.7986 41.786Z" fill="black"/>
<path id="Vector_9" d="M5.81719 47.4337C5.59805 47.5333 5.37891 47.9018 5.37891 48.1509C5.37891 48.2206 5.46855 48.3999 5.58809 48.5493C5.85703 48.8979 6.48457 48.9179 6.71367 48.5892C6.9627 48.2405 6.91289 47.7624 6.61406 47.5233C6.3252 47.2942 6.13594 47.2743 5.81719 47.4337Z" fill="black"/>
</g>
</g>
<defs>
<clipPath id="clip0_697_28682">
<rect width="51" height="51" fill="white"/>
</clipPath>
</defs>
</svg>
