<svg width="51" height="51" viewBox="0 0 51 51" fill="none" xmlns="http://www.w3.org/2000/svg">
<g id="heat-wave">
<g id="Group">
<path id="Vector" d="M23.8721 3.14111C20.0869 3.60928 16.2121 5.22295 13.3633 7.54385C11.65 8.92842 9.66777 11.2095 8.53223 13.1021C6.99824 15.6421 5.98223 18.7997 5.70332 21.9175C5.63359 22.6147 5.59375 26.5991 5.59375 32.1474V41.2417H5.0459C4.5877 41.2417 4.44824 41.2815 4.24902 41.4907L4 41.7298V44.4292V47.1286L4.24902 47.3677L4.48809 47.6167H26.3125H48.1369L48.376 47.3677L48.625 47.1286V44.4292V41.7298L48.376 41.4907C48.1768 41.2815 48.0373 41.2417 47.5891 41.2417H47.0412L47.0014 31.4501C46.9715 22.6546 46.9516 21.5589 46.7922 20.6226C46.1746 16.9769 44.8498 13.879 42.6584 11.0103C42.0408 10.1935 40.2678 8.37061 39.3912 7.65342C35.108 4.14717 29.3605 2.48369 23.8721 3.14111ZM25.5156 7.77295V10.9604L25.2965 11.0003C25.167 11.0302 24.8084 11.08 24.4996 11.1099C23.6828 11.1995 22.3182 11.578 21.342 11.9964C20.8738 12.1956 20.4953 12.345 20.4854 12.3251C20.4754 12.3151 19.9873 11.3589 19.3896 10.2134C18.802 9.05791 18.1445 7.80283 17.9354 7.41436L17.5469 6.69717L18.1844 6.39834C20.2164 5.44209 22.3182 4.91416 25.0176 4.65518C25.2068 4.63525 25.3961 4.60537 25.4459 4.60537C25.4857 4.59541 25.5156 6.01982 25.5156 7.77295ZM28.8426 4.79463C30.6256 4.99385 32.5879 5.55166 34.5104 6.41826L35.0881 6.67725L34.6996 7.4044C34.4805 7.79287 33.823 9.05791 33.2354 10.2134C32.6377 11.3589 32.1496 12.3151 32.1396 12.3251C32.1396 12.3351 31.7711 12.1956 31.3328 12.0063C30.4164 11.6079 28.9521 11.1995 28.1254 11.1099C27.8166 11.08 27.458 11.0302 27.3385 11.0003L27.1094 10.9604V7.78291V4.60537L27.4879 4.64522C27.6871 4.66514 28.3047 4.7249 28.8426 4.79463ZM17.6664 10.3429C18.4533 11.8569 19.1008 13.122 19.1107 13.1519C19.1307 13.1817 18.9713 13.3112 18.7721 13.4507C18.1545 13.869 16.6902 15.3233 16.1424 16.0505C15.8635 16.429 15.6145 16.7378 15.5945 16.7378C15.4949 16.7378 10.5344 13.1817 10.5045 13.0921C10.4348 12.8929 11.6898 11.319 12.8055 10.2034C13.8713 9.1376 16.0129 7.43428 16.1623 7.53389C16.2121 7.55381 16.8795 8.81885 17.6664 10.3429ZM38.2756 8.779C39.71 9.91455 42.24 12.7435 42.1205 13.0821C42.0906 13.1917 37.1799 16.7179 37.0604 16.7278C37.0305 16.7378 36.7416 16.4091 36.4328 16.0007C35.8252 15.2038 34.5801 13.9786 33.9127 13.5005C33.6736 13.3312 33.4943 13.1817 33.5143 13.1519C33.6537 12.8431 36.3232 7.69326 36.393 7.60361C36.5125 7.4542 36.9508 7.73311 38.2756 8.779ZM28.0357 12.7036C30.765 13.112 33.2652 14.5663 35.0184 16.7577C35.7754 17.694 36.5424 19.1185 36.9209 20.2839C37.4588 21.9075 37.4687 22.1964 37.4687 32.0976V41.2417H26.3125H15.1562V32.0976C15.1562 22.1964 15.1662 21.9075 15.7041 20.2839C17.4174 15.0644 22.5871 11.8769 28.0357 12.7036ZM12.2576 16.3593L14.8275 18.1722L14.5387 18.8396C14.2697 19.487 13.8414 20.9812 13.7119 21.7382L13.6521 22.1167H10.4547H7.25723L7.32695 21.4892C7.44648 20.4632 7.7752 18.9491 8.15371 17.7837C8.52227 16.6083 9.44863 14.5464 9.59805 14.5464C9.64785 14.5464 10.8432 15.3632 12.2576 16.3593ZM43.5748 15.5325C44.4215 17.3155 45.0889 19.6464 45.2881 21.4892L45.3578 22.1167H42.1604H38.9729L38.9131 21.7382C38.7836 20.9812 38.3553 19.487 38.0863 18.8396L37.8074 18.1722L40.3475 16.3692C41.752 15.3731 42.9473 14.5563 43.007 14.5563C43.0668 14.5464 43.3258 14.9847 43.5748 15.5325ZM13.5625 26.1509V28.5913H10.375H7.1875V26.1509V23.7104H10.375H13.5625V26.1509ZM45.4375 26.1509V28.5913H42.25H39.0625V26.1509V23.7104H42.25H45.4375V26.1509ZM13.5625 32.5757V34.9663H10.375H7.1875V32.5757V30.1851H10.375H13.5625V32.5757ZM45.4375 32.5757V34.9663H42.25H39.0625V32.5757V30.1851H42.25H45.4375V32.5757ZM13.5625 38.9009V41.2417H10.375H7.1875V38.9009V36.5601H10.375H13.5625V38.9009ZM45.4375 38.9009V41.2417H42.25H39.0625V38.9009V36.5601H42.25H45.4375V38.9009ZM47.0312 44.4292V46.0229H26.3125H5.59375V44.4292V42.8354H26.3125H47.0312V44.4292Z" fill="black"/>
<path id="Vector_2" d="M21.7906 15.9708C21.2926 16.4788 21.5117 17.1063 22.2887 17.3753C22.8963 17.5845 23.5338 18.0726 23.9223 18.6403C24.4203 19.3774 24.6395 20.2042 24.6992 21.5987L24.7391 22.8339L24.2311 22.5749C22.9162 21.9075 20.6949 21.8179 20.2168 22.4255C19.908 22.794 19.9877 23.1726 20.4758 23.6507C20.8244 23.9794 20.934 24.1687 20.9838 24.5173C21.0436 24.9556 20.8543 26.3103 20.6451 26.8282L20.5355 27.0972L19.9279 26.7983C19.2805 26.4696 18.0055 26.1011 17.5273 26.1011C17.348 26.1011 17.1389 26.2007 16.9795 26.3601L16.7305 26.6091L16.7803 29.1192C16.8301 31.7888 16.8998 32.247 17.4078 33.5618C17.866 34.7073 18.5434 35.7433 19.4398 36.6597C19.908 37.1378 20.4459 37.6358 20.6352 37.7853L20.9838 38.0442L19.908 38.0542C18.902 38.0542 18.8223 38.0741 18.5932 38.3032C18.2645 38.622 18.2645 39.0802 18.5932 39.3989L18.8322 39.6479H26.3129H33.7936L34.0326 39.3989C34.192 39.2495 34.2816 39.0403 34.2816 38.8511C34.2816 38.6618 34.192 38.4526 34.0326 38.3032C33.8035 38.0741 33.7238 38.0542 32.7178 38.0542L31.642 38.0442L31.9906 37.7753C33.2855 36.7792 34.192 35.6636 34.8893 34.2192C35.7459 32.4462 35.8256 31.978 35.8256 28.7407C35.8256 26.0413 35.8156 25.9218 35.5566 24.9954C34.9689 22.8438 33.943 21.6884 33.1262 22.2661C32.9967 22.3458 32.7775 22.7841 32.5783 23.3519L32.2496 24.2882L31.8811 23.312C30.6061 19.9452 27.9166 17.4749 24.1016 16.1999C23.5238 16.0106 22.8266 15.8214 22.5477 15.7815C22.0895 15.7218 22.0197 15.7417 21.7906 15.9708ZM26.7312 19.1882C29.351 20.9313 31.0941 24.2085 31.0941 27.406C31.0941 27.904 31.134 28.0435 31.3432 28.2427C31.632 28.5415 32.0803 28.5714 32.3791 28.3124C32.5086 28.2128 32.7975 27.5354 33.1461 26.5493C33.4549 25.6728 33.7338 24.9157 33.7836 24.8759C33.8234 24.8261 33.943 25.1149 34.0426 25.5233C34.3115 26.5394 34.3215 31.0118 34.0625 31.9282C33.6242 33.512 32.9768 34.6675 31.9309 35.7034C28.843 38.7913 23.8426 38.8112 20.7447 35.7532C19.6689 34.6874 19.0115 33.5519 18.5732 31.978C18.3541 31.1911 18.2645 27.894 18.4637 27.894C18.7725 27.894 19.6291 28.422 20.0176 28.8403C20.7148 29.6073 21.2826 29.5476 21.6711 28.661C22.3484 27.147 22.7469 25.1548 22.5576 24.2185C22.458 23.7403 22.468 23.7104 22.6672 23.7104C23.0059 23.7104 24.0418 24.2483 24.5498 24.6866C25.1176 25.1747 25.4961 25.2345 25.8547 24.8759C26.3926 24.338 26.4723 21.0708 25.9842 19.4472C25.7053 18.4909 25.6854 18.5009 26.7312 19.1882Z" fill="black"/>
</g>
</g>
</svg>
