<svg width="32" height="32" viewBox="0 0 32 32" fill="none" xmlns="http://www.w3.org/2000/svg">
<g id="grill">
<path id="Vector" d="M10.746 2.66675C10.506 4.22675 10.8927 5.54675 11.9327 6.62675C12.5993 7.29341 12.8127 8.18675 12.5593 9.33341H13.8793C14.0393 8.60008 14.066 8.00008 13.9327 7.40008C13.8127 6.84008 13.3993 6.17341 12.666 5.37341C12.066 4.62675 11.8527 3.73341 12.066 2.66675H10.746ZM14.066 2.66675C13.8127 4.22675 14.2127 5.54675 15.2527 6.62675C15.9193 7.29341 16.1193 8.18675 15.8793 9.33341H17.186C17.3327 8.60008 17.3727 8.00008 17.2527 7.40008C17.1193 6.84008 16.706 6.17341 15.9993 5.37341C15.3727 4.62675 15.1727 3.73341 15.3727 2.66675H14.066ZM17.4393 2.66675C17.186 4.22675 17.586 5.54675 18.626 6.62675C19.2927 7.29341 19.4793 8.18675 19.186 9.33341H20.5593C20.7327 8.60008 20.746 8.00008 20.626 7.40008C20.506 6.84008 20.0793 6.17341 19.3727 5.37341C18.746 4.62675 18.546 3.73341 18.746 2.66675H17.4393ZM6.66602 10.6667C6.66602 12.5601 7.18602 14.2667 8.18602 15.7867C9.15935 17.2801 10.546 18.4667 12.186 19.1867L6.87935 27.2534C6.74602 27.4134 6.66602 27.6667 6.66602 28.0001C6.66602 28.5467 6.87935 28.9201 7.25268 29.1201C7.41268 29.2534 7.66602 29.3334 7.99935 29.3334C8.54602 29.3334 8.91935 29.1201 9.11935 28.7467L10.4393 26.6267H18.9327C19.2127 27.4001 19.7193 28.0667 20.3727 28.5601C21.0393 29.0667 21.8127 29.3334 22.666 29.3334C23.7727 29.3334 24.706 28.9201 25.506 28.1201C26.2927 27.3334 26.666 26.4001 26.666 25.3334C26.666 24.2267 26.2927 23.2934 25.506 22.5067C24.706 21.7067 23.7727 21.3334 22.666 21.3334C21.8127 21.3334 21.0393 21.5601 20.3727 22.0667C19.706 22.5601 19.226 23.2134 18.9327 24.0001H12.186L14.8127 19.9334C15.026 20.0001 15.4127 20.0001 15.9993 20.0001C16.586 20.0001 16.9727 20.0001 17.186 19.9334L18.506 22.0001C19.0527 21.2801 19.786 20.7201 20.626 20.3734L19.8793 19.1867C21.3727 18.5201 22.666 17.3334 23.7194 15.6934C24.786 14.0001 25.3327 12.3601 25.3327 10.6667H6.66602ZM22.666 24.0001C23.066 24.0001 23.3727 24.1201 23.626 24.3734C23.8793 24.6267 23.9993 24.9601 23.9993 25.3334C23.9993 25.6934 23.8793 26.0001 23.626 26.2801C23.386 26.5467 23.0393 26.6667 22.666 26.6667C22.3193 26.6667 21.9994 26.5467 21.7194 26.2801C21.4527 26.0001 21.3327 25.6801 21.3327 25.3334C21.3327 24.9334 21.4527 24.6267 21.7194 24.3734C21.9994 24.1201 22.306 24.0001 22.666 24.0001Z" fill="black"/>
</g>
</svg>
