<svg width="52" height="51" viewBox="0 0 52 51" fill="none" xmlns="http://www.w3.org/2000/svg">
<g id="hammer-screwdriver">
<path id="Vector" d="M34.6267 27.8163L46.5905 39.695L39.5355 46.665L27.6567 34.7863V32.8312L32.6717 27.8163H34.6267ZM36.5605 22.44L34.4992 20.4L24.3205 30.6V34.7863L12.3567 46.75L5.38672 39.695L17.2655 27.8163H21.4517L23.1092 26.1588L14.9492 17.9775H12.1867L6.21547 11.9425L11.783 6.375L17.733 12.325V15.1088L25.9992 23.2687L31.6517 17.6162L29.6117 15.47L32.3742 12.6862H26.7217L25.3405 11.305L32.3742 4.25L33.7767 5.6525V11.305L36.5605 8.5L43.5305 15.47C45.8467 17.8075 45.8467 21.6113 43.5305 23.9275L39.3442 19.6562L36.5605 22.44Z" fill="black"/>
</g>
</svg>
