<svg width="51" height="51" viewBox="0 0 51 51" fill="none" xmlns="http://www.w3.org/2000/svg">
<g id="Group">
<path id="Vector" d="M12.1337 0.0971361C10.4704 0.296394 8.5083 0.943981 7.01431 1.79083C3.14984 4.01255 0.600088 7.87815 0.11205 12.2718C-0.0373499 13.5968 -0.0373499 37.3882 0.11205 38.7133C0.819207 45.1194 5.87887 50.1806 12.2831 50.8879C13.6078 51.0374 37.3922 51.0374 38.7169 50.8879C45.1211 50.1806 50.1808 45.1194 50.888 38.7133C51.0374 37.3882 51.0374 13.5968 50.888 12.2718C50.1808 5.86565 45.1211 0.804501 38.7169 0.0971361C37.5416 -0.0323814 13.2791 -0.0323814 12.1337 0.0971361ZM39.7527 3.29522C41.8244 3.86311 43.418 4.76973 44.8124 6.1745C46.2167 7.5693 47.1231 9.16336 47.7008 11.2356L47.9597 12.1921V25.4925V38.793L47.7008 39.7494C47.1231 41.8217 46.2167 43.4158 44.8124 44.8106C43.418 46.2153 41.8244 47.1219 39.7527 47.6998L38.7966 47.9588H25.5H12.2034L11.2473 47.6998C9.17562 47.1219 7.58202 46.2153 6.18763 44.8106C4.78327 43.4158 3.87692 41.8217 3.29924 39.7494L3.04028 38.793V25.4925V12.1921L3.29924 11.2356C3.87692 9.16336 4.78327 7.5693 6.17767 6.1745C7.83102 4.52066 10.0123 3.42474 12.303 3.086C12.6317 3.03619 18.7272 3.0063 25.8486 3.01626L38.7966 3.02622L39.7527 3.29522Z" fill="black"/>
<path id="Vector_2" d="M39.2947 6.63269C36.8645 6.97142 35.2112 9.33263 35.7988 11.6241C36.2071 13.248 37.243 14.2742 38.8565 14.6927C41.5955 15.3901 44.2847 12.9093 43.8265 10.1097C43.5775 8.54556 42.4321 7.23046 40.9381 6.78213C40.4999 6.65261 39.6931 6.58287 39.2947 6.63269ZM40.4103 9.81085C40.9481 10.1496 41.0377 10.9765 40.5895 11.4448C40.221 11.8233 39.7728 11.913 39.3147 11.6938C38.6175 11.3651 38.4681 10.4485 39.0258 9.9304C39.4342 9.54185 39.9123 9.502 40.4103 9.81085Z" fill="black"/>
<path id="Vector_3" d="M23.5772 11.6941C18.0693 12.4513 13.418 16.5958 12.0137 22.0256C10.7786 26.7779 12.163 31.7992 15.6789 35.3161C21.1569 40.7957 29.842 40.7957 35.32 35.3161C40.7979 29.8365 40.7979 21.1489 35.32 15.6693C32.1726 12.531 27.9596 11.0963 23.5772 11.6941ZM27.093 14.683C29.4834 15.0416 31.5153 16.0678 33.2184 17.7715C37.5112 22.0555 37.5112 28.9299 33.2184 33.2139C28.9356 37.5079 22.0633 37.5079 17.7805 33.2139C13.4877 28.9299 13.4877 22.0555 17.7805 17.7715C20.2605 15.2907 23.6668 14.1549 27.093 14.683Z" fill="black"/>
</g>
</svg>
