<svg width="51" height="51" viewBox="0 0 51 51" fill="none" xmlns="http://www.w3.org/2000/svg">
<g id="Group">
<path id="Vector" d="M11.4947 0.0982914C10.8869 0.307598 10.4419 0.636509 10.138 1.12489C9.77986 1.68304 9.67133 2.56014 9.9101 3.06845C9.99693 3.26779 11.918 6.36753 14.1755 9.94568C16.4221 13.5338 18.354 16.6435 18.4626 16.8628C18.6254 17.1917 18.6688 17.5306 18.6688 18.7764C18.6688 20.1718 18.6905 20.3213 18.8858 20.5007C19.2114 20.7997 19.7867 20.7698 20.0689 20.4409C20.2751 20.2017 20.2968 20.0422 20.2968 18.7465C20.2968 17.9591 20.2425 17.102 20.1774 16.8329C20.1014 16.484 18.9835 14.6202 16.3896 10.4839C13.101 5.25123 12.7211 4.61334 12.8839 4.5037C12.9816 4.43393 13.3398 4.24456 13.6762 4.06515L14.2949 3.75618L16.9974 8.07188C18.4843 10.4341 19.8626 12.5471 20.058 12.7464C20.2534 12.9457 20.6441 13.1949 20.9263 13.2846C21.2085 13.3843 21.6317 13.6036 21.8705 13.783C22.8907 14.5305 24.1389 14.9192 25.5064 14.9192C26.8739 14.9192 28.1221 14.5305 29.1423 13.783C29.3811 13.6036 29.8043 13.3843 30.0865 13.2846C30.3687 13.1949 30.7486 12.9457 30.9548 12.7464C31.1502 12.5471 32.5285 10.4341 34.0154 8.06192L36.7179 3.75618L37.4343 4.11499C37.825 4.31433 38.1831 4.51367 38.2374 4.54357C38.2808 4.58344 36.6528 7.25459 34.6341 10.4739C32.0293 14.6202 30.9114 16.484 30.8354 16.8329C30.7594 17.1418 30.716 19.1851 30.716 22.2948V27.2783H25.5064H20.2968V25.2948C20.2968 23.451 20.2859 23.3014 20.0689 23.0523C19.7867 22.7234 19.2114 22.6935 18.8858 22.9925C18.6796 23.1818 18.6688 23.3214 18.6688 25.4643V27.7268L12.6126 33.2884L6.55641 38.85L5.86179 38.6805C4.97181 38.4712 4.20122 38.6008 3.40893 39.0892C2.46469 39.6573 2.0414 40.345 2.22591 41.0028C2.32359 41.4015 7.52236 46.1757 7.99991 46.3252C8.80306 46.5644 8.57513 46.7438 16.3896 39.5775L23.7156 32.8598H25.5064H27.2864L30.2493 35.5708C33.0386 38.1323 33.234 38.2818 33.603 38.2818C33.8852 38.2818 34.0589 38.2121 34.2 38.0526C34.6449 37.5443 34.6015 37.4845 31.454 34.5741C29.826 33.0791 28.2957 31.7535 28.0569 31.6339C27.6771 31.4445 27.4166 31.4146 25.832 31.3847C24.7032 31.3548 23.8241 31.3847 23.4443 31.4644L22.8473 31.584L16.878 37.0559C13.5894 40.0659 10.8543 42.5278 10.8001 42.5278C10.735 42.5278 10.0295 41.9198 9.22634 41.1822L7.76113 39.8367L13.7848 34.305L19.8084 28.7733H25.5064H31.2044L37.228 34.305L43.2517 39.8367L41.7865 41.1822C40.9833 41.9198 40.2778 42.5278 40.2127 42.5278C40.1476 42.5278 39.3227 41.8101 38.3676 40.9331C36.8373 39.5277 36.5877 39.3383 36.2838 39.3383C35.8171 39.3383 35.4915 39.6373 35.4915 40.056C35.4915 40.345 35.828 40.6839 38.6607 43.2952C40.8314 45.2886 41.9493 46.2455 42.188 46.3252C42.9369 46.5445 43.078 46.4448 45.889 43.8833C47.3434 42.5676 48.6024 41.3517 48.7001 41.1922C49.0691 40.5443 48.6458 39.7171 47.6039 39.0892C46.8116 38.6008 46.041 38.4712 45.151 38.6805L44.4564 38.85L38.4002 33.2884L32.344 27.7268V22.4941V17.2614L32.6045 16.7631C32.7456 16.484 34.7209 13.3145 36.9893 9.6965C40.0282 4.87248 41.1461 3.01862 41.2004 2.70964C41.3523 1.73288 40.8748 0.786014 39.9739 0.297631C39.5398 0.0683904 39.3336 0.0185554 38.6932 0.0185554C38.0638 0.0185554 37.8467 0.0683904 37.4343 0.287664C37.1629 0.437169 36.8807 0.616575 36.8048 0.696311C36.7396 0.776047 35.4915 2.72958 34.0372 5.04192L31.3889 9.23802L31.2587 8.59017C30.868 6.70641 29.2291 5.01202 27.2538 4.4439C25.908 4.05519 23.6939 4.22463 23.1187 4.75288C22.8365 5.01202 22.8365 5.49043 23.1295 5.75954C23.3791 5.98878 23.4985 5.98878 24.8769 5.75954C26.1902 5.55024 27.6879 6.02865 28.5996 6.96555C29.7935 8.18152 30.0431 9.79617 29.2942 11.2912C28.9578 11.949 28.0352 12.7763 27.2755 13.1052C26.7111 13.3444 26.5158 13.3743 25.5064 13.3743C24.497 13.3743 24.3017 13.3444 23.7373 13.1052C22.9884 12.7763 22.055 11.949 21.7294 11.3112C21.2302 10.3145 21.1542 9.41743 21.4906 8.42073C21.762 7.62337 21.762 7.39413 21.4798 7.13499C21.3278 6.99545 21.1542 6.94561 20.8612 6.96555C20.3293 7.00542 20.0363 7.42403 19.7975 8.45063L19.613 9.22806L16.9756 5.03195C15.5213 2.72958 14.2732 0.776047 14.208 0.696311C13.6979 0.138159 12.287 -0.170817 11.4947 0.0982914ZM12.8514 1.67308C13.0033 1.78271 13.2095 2.01195 13.2964 2.16146L13.4592 2.4505L12.7103 2.85915C12.2978 3.07842 11.9288 3.25783 11.8963 3.25783C11.8094 3.25783 11.397 2.49037 11.397 2.32093C11.397 1.62324 12.2544 1.2445 12.8514 1.67308ZM39.1057 1.57341C39.377 1.68304 39.6158 2.04185 39.6158 2.32093C39.6158 2.49037 39.2034 3.25783 39.1165 3.25783C39.084 3.25783 38.715 3.07842 38.3025 2.85915L37.5536 2.4505L37.7164 2.16146C37.9118 1.81261 38.3785 1.46377 38.6498 1.46377C38.7584 1.46377 38.9646 1.5136 39.1057 1.57341ZM5.53619 40.1357C5.81838 40.2055 6.40446 40.6839 7.79369 41.9597L9.66047 43.674L9.03098 44.2521L8.41233 44.8202L6.15483 42.747L3.89733 40.6739L4.15781 40.4546C4.37488 40.2653 4.77645 40.0958 5.10206 40.046C5.13462 40.036 5.32998 40.0859 5.53619 40.1357ZM46.2472 40.1357C46.4534 40.1955 46.7356 40.335 46.8658 40.4646L47.0938 40.6938L44.8471 42.757L42.6005 44.8202L41.971 44.2421L41.3523 43.674L43.23 41.9497C44.8797 40.4347 45.3138 40.1158 45.8022 40.046C45.8348 40.036 46.0301 40.0859 46.2472 40.1357Z" fill="black"/>
<path id="Vector_2" d="M25.0167 0.487379C24.4414 0.945861 24.5717 2.40104 25.212 2.60038C25.9501 2.83959 26.4493 2.2316 26.3299 1.21497C26.2648 0.676752 25.9066 0.268105 25.5051 0.268105C25.3965 0.268105 25.1686 0.367775 25.0167 0.487379Z" fill="black"/>
<path id="Vector_3" d="M21.0553 1.46401C20.7623 1.73311 20.784 2.14176 21.1096 2.67998C21.4678 3.278 21.75 3.4873 22.1624 3.4873C22.564 3.4873 22.9004 3.16836 22.9004 2.78962C22.9004 2.47067 22.3035 1.49391 22.0321 1.36434C21.7065 1.20486 21.2941 1.24473 21.0553 1.46401Z" fill="black"/>
<path id="Vector_4" d="M28.9559 1.36463C28.6955 1.50416 28.1094 2.4909 28.1094 2.78991C28.1094 3.39789 28.9234 3.71684 29.4226 3.29822C29.7265 3.03908 30.1715 2.23175 30.1715 1.91281C30.1715 1.41446 29.466 1.09552 28.9559 1.36463Z" fill="black"/>
<path id="Vector_5" d="M18.2318 4.05554C17.9279 4.33461 17.9496 4.86286 18.2643 5.12201C19.3171 5.98913 20.4025 5.94927 20.4025 5.0323C20.4025 4.64359 20.2831 4.52399 19.5125 4.12531C18.9047 3.80636 18.5248 3.78643 18.2318 4.05554Z" fill="black"/>
<path id="Vector_6" d="M31.4648 4.13547C30.6942 4.55408 30.6074 4.64378 30.6074 5.05243C30.6074 5.94946 31.6928 5.98933 32.7564 5.1222C33.2556 4.70359 32.93 3.84642 32.268 3.86636C32.0943 3.86636 31.7362 3.98596 31.4648 4.13547Z" fill="black"/>
<path id="Vector_7" d="M23.4765 7.54371C23.14 7.66332 23.0098 7.95236 23.0098 8.52048C23.0098 9.16833 23.3028 9.53711 23.8346 9.53711C24.4099 9.53711 24.6378 9.25803 24.6378 8.54041C24.6378 8.03209 24.5944 7.89256 24.3664 7.69322C24.0951 7.43407 23.878 7.39421 23.4765 7.54371Z" fill="black"/>
<path id="Vector_8" d="M26.6552 7.67328C26.4165 7.89256 26.373 8.02213 26.373 8.54041C26.373 9.25803 26.601 9.53711 27.1762 9.53711C27.7189 9.53711 28.0011 9.16833 28.0011 8.49058C28.0011 7.87262 27.784 7.57361 27.2739 7.48391C26.9917 7.43407 26.8723 7.47394 26.6552 7.67328Z" fill="black"/>
<path id="Vector_9" d="M23.4959 10.3847C23.1703 10.6737 23.1595 10.9528 23.4417 11.3814C24.3099 12.6771 26.4915 12.697 27.5225 11.4212C27.859 11.0026 27.8481 10.6936 27.5117 10.3847C27.1427 10.0358 26.7737 10.0657 26.2527 10.5043C25.9597 10.7435 25.71 10.8631 25.5038 10.8631C25.2976 10.8631 25.048 10.7435 24.7549 10.5043C24.234 10.0657 23.865 10.0358 23.4959 10.3847Z" fill="black"/>
<path id="Vector_10" d="M7.68404 15.3082C6.29481 16.5839 6.16457 16.8331 6.62041 17.2916C6.98943 17.6604 7.51039 17.5906 8.08562 17.1022L8.57402 16.6836V21.5176C8.57402 26.232 8.57402 26.3516 8.79109 26.5609C9.09498 26.8599 9.68106 26.8599 9.98496 26.5609C10.202 26.3516 10.202 26.232 10.202 21.5176V16.6836L10.6904 17.1022C11.2657 17.5906 11.7866 17.6604 12.1556 17.2916C12.6115 16.8331 12.4812 16.5839 11.092 15.3082C9.88728 14.1919 9.7896 14.1221 9.38802 14.1221C8.98645 14.1221 8.88877 14.1919 7.68404 15.3082Z" fill="black"/>
<path id="Vector_11" d="M39.9184 15.3082C38.5292 16.5839 38.3989 16.8331 38.8548 17.2916C39.2238 17.6604 39.7448 17.5906 40.32 17.1022L40.8084 16.6836V21.5176C40.8084 26.232 40.8084 26.3516 41.0255 26.5609C41.3294 26.8599 41.9154 26.8599 42.2193 26.5609C42.4364 26.3516 42.4364 26.232 42.4364 21.5176V16.6836L42.9248 17.1022C43.5 17.5906 44.021 17.6604 44.39 17.2916C44.8458 16.8331 44.7156 16.5839 43.3264 15.3082C42.1217 14.1919 42.024 14.1221 41.6224 14.1221C41.2208 14.1221 41.1231 14.1919 39.9184 15.3082Z" fill="black"/>
<path id="Vector_12" d="M0.271334 49.7549C0.119387 49.8844 0 50.1135 0 50.2529C0 50.3924 0.119387 50.6215 0.271334 50.751L0.531815 51H25.5054H50.479L50.7395 50.751C51.0868 50.4422 51.0868 50.0637 50.7395 49.7549L50.479 49.5059H25.5054H0.531815L0.271334 49.7549Z" fill="black"/>
</g>
</svg>
