<svg width="51" height="51" viewBox="0 0 51 51" fill="none" xmlns="http://www.w3.org/2000/svg">
<g id="close-box-outline">
<path id="Vector" d="M40.375 6.375H10.625C9.49783 6.375 8.41683 6.82277 7.6198 7.6198C6.82277 8.41683 6.375 9.49783 6.375 10.625V40.375C6.375 41.5022 6.82277 42.5832 7.6198 43.3802C8.41683 44.1772 9.49783 44.625 10.625 44.625H40.375C41.5022 44.625 42.5832 44.1772 43.3802 43.3802C44.1772 42.5832 44.625 41.5022 44.625 40.375V10.625C44.625 9.49783 44.1772 8.41683 43.3802 7.6198C42.5832 6.82277 41.5022 6.375 40.375 6.375ZM40.375 40.375H10.625V10.625H40.375V40.375ZM36.125 17.85L28.475 25.5L36.125 33.15L33.15 36.125L25.5 28.475L17.85 36.125L14.875 33.15L22.525 25.5L14.875 17.85L17.85 14.875L25.5 22.525L33.15 14.875L36.125 17.85Z" fill="black"/>
</g>
</svg>
