<svg width="51" height="51" viewBox="0 0 51 51" fill="none" xmlns="http://www.w3.org/2000/svg">
<g id="waves">
<path id="Vector" d="M42.5 25.5H46.75V29.75H42.5C39.5675 29.75 36.6775 29.0062 34 27.625C28.6875 30.3875 22.3125 30.3875 17 27.625C14.3225 29.0062 11.4113 29.75 8.5 29.75H4.25V25.5H8.5C11.4537 25.5 14.4075 24.5012 17 22.6737C22.185 26.3075 28.815 26.3075 34 22.6737C36.5925 24.5012 39.5463 25.5 42.5 25.5ZM42.5 12.75H46.75V17H42.5C39.5675 17 36.6775 16.2562 34 14.875C28.6875 17.6375 22.3125 17.6375 17 14.875C14.3225 16.2562 11.4113 17 8.5 17H4.25V12.75H8.5C11.4537 12.75 14.4075 11.7512 17 9.92371C22.185 13.5575 28.815 13.5575 34 9.92371C36.5925 11.7512 39.5463 12.75 42.5 12.75ZM42.5 38.25H46.75V42.5H42.5C39.5675 42.5 36.6775 41.7562 34 40.375C28.6875 43.1375 22.3125 43.1375 17 40.375C14.3225 41.7562 11.4113 42.5 8.5 42.5H4.25V38.25H8.5C11.4537 38.25 14.4075 37.2512 17 35.4237C22.185 39.0575 28.815 39.0575 34 35.4237C36.5925 37.2512 39.5463 38.25 42.5 38.25Z" fill="black"/>
</g>
</svg>
