<svg width="51" height="51" viewBox="0 0 51 51" fill="none" xmlns="http://www.w3.org/2000/svg">
<g id="pets 1">
<g id="Group">
<path id="Vector" d="M23.9561 1.75313C23.4082 1.89258 22.0137 2.55996 21.7447 2.81895C21.6551 2.90859 21.7148 3.07793 22.0236 3.55606C22.2428 3.90469 22.442 4.18359 22.4719 4.18359C22.5117 4.18359 22.7906 4.02422 23.1094 3.83496C24.1652 3.19746 24.3645 3.17754 29.3549 3.20742C33.2496 3.23731 33.8672 3.25723 34.2357 3.40664C34.4648 3.49629 35.7797 4.27324 37.1543 5.12988L39.6445 6.68379L39.5051 7.00254C39.4354 7.18184 39.007 8.18789 38.5488 9.23379L37.732 11.1563H37.1941H36.6562V9.46289V7.76953L35.8494 6.1459C35.4012 5.25938 35.0227 4.51231 35.0027 4.49238C34.9629 4.44258 33.5684 5.09004 33.5684 5.14981C33.5684 5.16973 33.907 5.85703 34.3154 6.67383L35.0625 8.16797V12.0527V15.9375H29.0859H23.1094V12.0527V8.16797L23.8564 6.67383C24.2648 5.85703 24.6035 5.16973 24.6035 5.14981C24.6035 5.09004 23.209 4.44258 23.1691 4.49238C23.1492 4.51231 22.7707 5.25938 22.3225 6.1459L21.5156 7.76953V9.46289V11.1563H20.9777H20.4398L19.623 9.23379C19.1648 8.18789 18.7365 7.18184 18.6668 7.00254L18.5273 6.68379L19.8521 5.86699C20.5693 5.41875 21.177 5.0502 21.1869 5.04024C21.2068 5.02031 20.4498 3.79512 20.3701 3.70547C20.3203 3.65566 17.083 5.70762 16.9137 5.89688C16.8141 6.00645 16.7344 6.1957 16.7344 6.31524C16.7344 6.64395 19.2146 12.3814 19.4437 12.5707C19.6031 12.7102 19.8322 12.75 20.5793 12.75H21.5156V28.3189V43.8979L21.0973 44.0871C20.1709 44.5055 19.6131 45.1131 19.2645 46.0992C19.1549 46.408 19.135 45.651 19.125 41.1586V35.8594H18.3281H17.5312V41.8359V47.8125H16.7443H15.9674L15.8977 47.3443C15.8678 47.0953 15.6785 46.5973 15.4893 46.2486L15.1406 45.6111V40.7402V35.8594H14.3437H13.5469V40.302V44.7445L13.3277 44.6848C13.1982 44.6549 12.6703 44.625 12.1424 44.625H11.1861L11.1264 43.2006C11.0666 41.5072 10.8574 40.5908 10.21 39.2859C9.75176 38.3496 8.7457 36.9551 8.53652 36.9551C8.40703 36.9551 7.4707 37.8516 7.4707 37.9811C7.4707 38.0209 7.68984 38.3197 7.95879 38.6584C8.22773 38.9971 8.60625 39.5848 8.79551 39.9832C9.37324 41.1686 9.49277 41.7662 9.55254 43.9078C9.63223 46.3682 9.49277 46.2188 11.5646 46.2188C12.6105 46.2188 13.1584 46.2586 13.3875 46.3582C13.7859 46.5275 14.2143 47.0654 14.3039 47.4938L14.3736 47.8125H8.77559H3.17754L3.21738 43.0014C3.25723 37.8217 3.26719 37.752 3.84492 36.1582C4.43262 34.5047 5.33906 33.0803 6.56426 31.8949C7.04238 31.4367 8.08828 30.6398 9.3832 29.7732C10.5088 29.0063 11.5846 28.2193 11.7539 28.0201C11.9332 27.8209 12.2221 27.3527 12.3914 26.9941L12.7002 26.3467L12.7301 21.3363C12.75 18.5871 12.7799 16.3359 12.8098 16.3359C13.1285 16.3359 14.0848 17.2324 14.3836 17.8201C14.4732 17.9895 14.6326 18.1688 14.7322 18.2285C14.9912 18.358 19.2744 18.358 19.5334 18.2285C19.633 18.1688 19.7924 17.9895 19.8721 17.8201C19.9617 17.6508 20.1809 17.352 20.3701 17.1428L20.7088 16.7742L20.2008 16.1467L19.6928 15.5291L19.4139 15.798C19.2545 15.9475 19.0254 16.2264 18.9059 16.4057L18.6768 16.7344L17.1328 16.7244H15.5889L15.1904 16.2064C14.7223 15.6088 13.7959 14.9514 12.9791 14.6426C12.1125 14.3139 11.7439 14.284 11.4551 14.523L11.2061 14.7223L11.1562 20.39C11.1064 25.9482 11.1064 26.0578 10.8873 26.4463C10.5885 27.0041 10.3494 27.2033 8.26758 28.5979C6.12598 30.0322 4.68164 31.367 3.7752 32.7516L3.2373 33.5684L3.20742 31.2574C3.16758 28.1895 3.15762 28.2094 4.68164 25.8984C5.97656 23.9162 6.26543 23.2389 6.34512 21.9639C6.44473 20.2805 5.89687 18.8361 4.68164 17.6309C4.27324 17.2225 3.76523 16.7443 3.55605 16.575C3.09785 16.1965 3.05801 15.7582 3.43652 15.3896C3.97441 14.8418 4.71152 15.1307 5.92676 16.3857C7.95879 18.4975 8.52656 21.7248 7.33125 24.4143C7.20176 24.7131 6.68379 25.5797 6.17578 26.3467C5.20957 27.8109 4.91074 28.3688 5.0502 28.4883C5.09004 28.5281 5.43867 28.6576 5.80723 28.7672L6.48457 28.9664L6.57422 28.7373C6.62402 28.6178 7.02246 27.9604 7.48066 27.283C8.91504 25.1115 9.42305 23.7867 9.53262 21.8643C9.67207 19.3043 8.77559 17.0232 6.88301 15.1307C5.71758 13.9752 5.18965 13.6465 4.38281 13.5768C3.48633 13.4971 2.93848 13.6863 2.34082 14.284C1.64355 14.9912 1.44434 15.7383 1.70332 16.6846C1.81289 17.093 2.31094 17.6309 3.33691 18.4875C4.21348 19.2146 4.78125 20.4697 4.78125 21.675C4.78125 22.6014 4.47246 23.2986 3.28711 25.1115C2.57988 26.1773 2.07187 27.0639 1.90254 27.5221L1.64355 28.2393L1.61367 38.5787L1.59375 48.9082L1.83281 49.1572L2.08184 49.4062H21.4658H40.8398V48.6094V47.8125H36.7459H32.652L32.6918 47.1152C32.7316 46.3781 32.8811 46.0693 33.409 45.6809C33.648 45.4916 33.8672 45.4617 35.3613 45.4219C36.8057 45.382 37.0746 45.3422 37.224 45.1928C37.3834 45.0334 37.4133 44.7047 37.4631 41.9057C37.5129 39.1863 37.5527 38.6982 37.742 37.9711C38.1404 36.4172 38.8277 35.0525 39.8139 33.8971C40.1027 33.5584 40.3418 33.2396 40.3418 33.1898C40.3418 33.0205 39.3557 32.1439 39.2162 32.2037C39.007 32.2834 37.8516 33.8074 37.3834 34.6143C36.8754 35.5008 36.5068 36.4371 36.1881 37.6424C35.949 38.5189 35.9291 38.8078 35.8793 41.2084L35.8395 43.8281H34.8732C34.0066 43.8281 33.4488 43.9277 32.8512 44.1768C32.6818 44.2465 32.6719 43.858 32.6719 36.8654V29.4844H31.875H31.0781V38.6484V47.8125H28.2791H25.4801L25.5199 47.1152C25.5797 46.0893 26.018 45.5813 26.9941 45.4318C27.9703 45.2725 27.8906 46.0096 27.8906 37.1941V29.4844H27.0937H26.2969V36.6762V43.8779L25.6494 44.2166C24.5437 44.7844 23.9959 45.6609 23.9262 46.9857L23.8764 47.8125H22.2926H20.6988L20.7387 47.1152C20.7984 46.0893 21.2367 45.5813 22.2129 45.4318C23.199 45.2725 23.1094 46.5973 23.1094 32.8113V20.7188H29.1357H35.1621V20.9777C35.1621 21.3861 35.6203 22.6213 36.0187 23.3186C36.2977 23.7967 37.2738 24.8426 39.9932 27.5918C41.9654 29.5939 43.8381 31.5662 44.1469 31.9746C46.1391 34.6641 47.3443 37.732 47.7029 41.059C47.7627 41.5969 47.8125 43.3301 47.8125 44.9238V47.8125H45.0234H42.2344V48.6094V49.4062H45.5713H48.9182L49.1572 49.1572L49.4062 48.9182V45.4916C49.4062 43.599 49.3564 41.5969 49.3066 41.0291C48.8684 36.7459 47.1152 32.8113 44.1967 29.5541L43.5094 28.7871L43.6687 27.9105C43.8979 26.7053 43.9775 24.3844 43.8381 23.1094C43.6189 21.1869 42.9914 19.0453 42.2244 17.6408C42.065 17.342 41.9654 17.0631 42.0053 17.0232C42.0551 16.9934 42.2344 16.9137 42.4236 16.8439C43.7385 16.4057 44.9437 17.2922 45.1629 18.8561C45.2326 19.2844 45.3123 19.4039 45.8701 19.9318C46.677 20.6988 47.0355 21.4459 47.0953 22.5117C47.1252 23.0994 47.0953 23.3883 46.926 23.8564C46.657 24.6334 46.657 24.6932 47.0555 25.49C47.6332 26.6256 47.7428 27.2232 47.683 28.9365C47.6432 30.0023 47.5734 30.6398 47.424 31.1777C47.3145 31.5861 47.2348 31.9248 47.2447 31.9348C47.3543 32.0344 48.6691 32.3531 48.7289 32.2934C48.7687 32.2535 48.8982 31.8451 49.0178 31.377C49.1672 30.7594 49.2469 30.102 49.2768 28.9664C49.3365 27.1934 49.207 26.3268 48.699 25.2012C48.4002 24.5637 48.4002 24.5637 48.5596 23.9561C48.9879 22.2328 48.4898 20.3602 47.2547 19.0553C46.8562 18.627 46.7168 18.3979 46.6271 17.9795C46.3881 16.9336 45.5115 15.8877 44.4656 15.4195C43.6488 15.0609 42.9217 15.0709 41.6367 15.4395C40.2422 15.8279 40.0928 15.8977 39.9533 16.2064C39.784 16.585 39.8139 16.6846 40.3816 17.6309C41.7861 19.9617 42.4037 22.5117 42.3041 25.5199C42.2742 26.3766 42.2145 27.1436 42.1646 27.2332C42.0949 27.3627 41.6268 26.9344 39.774 25.0816C37.7918 23.0795 37.4432 22.6711 37.1742 22.1133C36.6861 21.0674 36.6562 20.7188 36.6562 16.585V12.75H37.5926C38.3396 12.75 38.5687 12.7102 38.7281 12.5707C38.9572 12.3814 41.4375 6.64395 41.4375 6.31524C41.4375 6.1957 41.3578 6.00645 41.2682 5.89688C41.0689 5.67774 36.1184 2.56992 35.2916 2.15156C34.2357 1.62363 33.907 1.59375 29.0361 1.60371C25.49 1.61367 24.4342 1.64356 23.9561 1.75313ZM35.0625 18.3281V19.125H29.0859H23.1094V18.3281V17.5313H29.0859H35.0625V18.3281Z" fill="black"/>
<path id="Vector_2" d="M24.7031 7.17188V7.96875H25.5H26.2969V7.17188V6.375H25.5H24.7031V7.17188Z" fill="black"/>
<path id="Vector_3" d="M31.0781 7.17188V7.96875H31.875H32.6719V7.17188V6.375H31.875H31.0781V7.17188Z" fill="black"/>
<path id="Vector_4" d="M27.2432 8.1083C26.8746 8.27764 26.5459 8.62627 26.4064 8.99482C26.257 9.39326 26.267 10.5985 26.4363 10.987C26.5758 11.3356 27.1236 11.8536 27.3428 11.8536C27.5818 11.8536 27.6217 12.0528 27.4225 12.272C27.1137 12.6306 26.6555 12.7501 25.6494 12.7501H24.7031V13.5569V14.3638L25.9283 14.3239C27.2232 14.2741 27.5818 14.1646 28.3687 13.5669L28.6875 13.3278L29.0162 13.5669C29.7932 14.1646 30.1518 14.2741 31.4566 14.3239L32.6719 14.3638V13.5569V12.7501H31.7256C30.6896 12.7501 30.2713 12.6306 29.9027 12.2222L29.6637 11.9731L30.0223 11.8536C30.4705 11.7142 30.9486 11.1663 31.0383 10.7081C31.1578 10.0706 31.0383 8.99482 30.8191 8.696C30.3609 8.08838 30.1717 8.01865 28.807 7.98877C27.9006 7.97881 27.4623 8.00869 27.2432 8.1083ZM29.4844 9.96104V10.3595H28.6875H27.8906V9.96104V9.5626H28.6875H29.4844V9.96104Z" fill="black"/>
<path id="Vector_5" d="M14.3438 20.7188V21.5156H15.1406H15.9375V20.7188V19.9219H15.1406H14.3438V20.7188Z" fill="black"/>
<path id="Vector_6" d="M18.3281 20.7188V21.5156H19.125H19.9219V20.7188V19.9219H19.125H18.3281V20.7188Z" fill="black"/>
</g>
</g>
</svg>
