<svg width="51" height="51" viewBox="0 0 51 51" fill="none" xmlns="http://www.w3.org/2000/svg">
<g id="phone-check">
<path id="Vector" d="M14.0675 22.9287C17.1421 28.9564 22.0436 33.8579 28.0713 36.9325L32.7462 32.2575C33.0188 31.9843 33.3607 31.7906 33.735 31.697C34.1094 31.6034 34.5022 31.6135 34.8712 31.7263C37.3327 32.5369 39.9086 32.9458 42.5 32.9375C43.0636 32.9375 43.6041 33.1614 44.0026 33.5599C44.4011 33.9584 44.625 34.4989 44.625 35.0625V42.5C44.625 43.0636 44.4011 43.6041 44.0026 44.0026C43.6041 44.4011 43.0636 44.625 42.5 44.625C32.9191 44.625 23.7305 40.819 16.9558 34.0442C10.181 27.2695 6.375 18.0809 6.375 8.5C6.375 7.93641 6.59888 7.39591 6.9974 6.9974C7.39591 6.59888 7.93641 6.375 8.5 6.375H15.9375C16.5011 6.375 17.0416 6.59888 17.4401 6.9974C17.8386 7.39591 18.0625 7.93641 18.0625 8.5C18.0587 11.0772 18.4676 13.6384 19.2737 16.0863C19.3865 16.4553 19.3966 16.8481 19.303 17.2225C19.2094 17.5968 19.0157 17.9387 18.7425 18.2112M46.1337 10.0088L43.1163 6.99125L31.875 18.2538L27.0088 13.3662L23.9912 16.3838L31.875 24.2462L46.1337 10.0088Z" fill="black"/>
</g>
</svg>
