<svg width="32" height="32" viewBox="0 0 32 32" fill="none" xmlns="http://www.w3.org/2000/svg">
<g id="radiator">
<path id="Vector" d="M10.5993 4.00008L8.70602 6.92008L10.5993 9.86675H10.586L7.93268 14.0001L5.62602 12.8001L7.51935 9.85341L5.62602 6.92008L8.29268 2.78675L10.5993 4.00008ZM18.5993 3.85341L16.706 6.80008L18.5993 9.73341L18.586 9.74675L15.9327 13.8667L13.626 12.6667L15.5193 9.73341L13.626 6.80008L16.2927 2.66675L18.5993 3.85341ZM26.666 3.85341L24.746 6.80008L26.666 9.73341V9.74675L23.9993 13.8667L21.666 12.6667L23.5593 9.73341L21.666 6.80008L24.3327 2.66675L26.666 3.85341ZM2.66602 29.3334V18.6667C2.66602 17.9595 2.94697 17.2812 3.44706 16.7811C3.94716 16.281 4.62544 16.0001 5.33268 16.0001H26.666C27.3733 16.0001 28.0515 16.281 28.5516 16.7811C29.0517 17.2812 29.3327 17.9595 29.3327 18.6667V29.3334H26.666V26.6667H5.33268V29.3334H2.66602ZM7.99935 18.6667C7.64573 18.6667 7.30659 18.8072 7.05654 19.0573C6.80649 19.3073 6.66602 19.6465 6.66602 20.0001V22.6667C6.66602 23.0204 6.80649 23.3595 7.05654 23.6096C7.30659 23.8596 7.64573 24.0001 7.99935 24.0001C8.35297 24.0001 8.69211 23.8596 8.94216 23.6096C9.19221 23.3595 9.33268 23.0204 9.33268 22.6667V20.0001C9.33268 19.6465 9.19221 19.3073 8.94216 19.0573C8.69211 18.8072 8.35297 18.6667 7.99935 18.6667ZM13.3327 18.6667C12.9791 18.6667 12.6399 18.8072 12.3899 19.0573C12.1398 19.3073 11.9993 19.6465 11.9993 20.0001V22.6667C11.9993 23.0204 12.1398 23.3595 12.3899 23.6096C12.6399 23.8596 12.9791 24.0001 13.3327 24.0001C13.6863 24.0001 14.0254 23.8596 14.2755 23.6096C14.5255 23.3595 14.666 23.0204 14.666 22.6667V20.0001C14.666 19.6465 14.5255 19.3073 14.2755 19.0573C14.0254 18.8072 13.6863 18.6667 13.3327 18.6667ZM18.666 18.6667C18.3124 18.6667 17.9733 18.8072 17.7232 19.0573C17.4732 19.3073 17.3327 19.6465 17.3327 20.0001V22.6667C17.3327 23.0204 17.4732 23.3595 17.7232 23.6096C17.9733 23.8596 18.3124 24.0001 18.666 24.0001C19.0196 24.0001 19.3588 23.8596 19.6088 23.6096C19.8589 23.3595 19.9993 23.0204 19.9993 22.6667V20.0001C19.9993 19.6465 19.8589 19.3073 19.6088 19.0573C19.3588 18.8072 19.0196 18.6667 18.666 18.6667ZM23.9993 18.6667C23.6457 18.6667 23.3066 18.8072 23.0565 19.0573C22.8065 19.3073 22.666 19.6465 22.666 20.0001V22.6667C22.666 23.0204 22.8065 23.3595 23.0565 23.6096C23.3066 23.8596 23.6457 24.0001 23.9993 24.0001C24.353 24.0001 24.6921 23.8596 24.9422 23.6096C25.1922 23.3595 25.3327 23.0204 25.3327 22.6667V20.0001C25.3327 19.6465 25.1922 19.3073 24.9422 19.0573C24.6921 18.8072 24.353 18.6667 23.9993 18.6667Z" fill="black"/>
</g>
</svg>
