<svg width="51" height="51" viewBox="0 0 51 51" fill="none" xmlns="http://www.w3.org/2000/svg">
<path id="Vector" d="M17 51H39.6667V44.625C46.495 40.4685 51 33.456 51 25.5V5.1C51 3.7474 50.403 2.45019 49.3403 1.49376C48.2776 0.53732 46.8362 0 45.3333 0H34C30.855 0 28.3333 2.295 28.3333 5.1V25.5H0C0 33.3795 5.66667 40.8 17 44.625V51ZM6.48833 30.6H44.5117C42.8967 35.4705 39.015 39.525 34 41.6415V45.9H22.6667V41.6415C17 40.8 8.10333 35.4705 6.48833 30.6ZM34 5.1H45.3333V25.5H34V5.1ZM36.8333 7.65V15.3H42.5V7.65H36.8333Z" fill="black"/>
</svg>
