<svg width="51" height="51" viewBox="0 0 51 51" fill="none" xmlns="http://www.w3.org/2000/svg">
<path id="Vector" d="M48.1667 45.9C48.9181 45.9 49.6388 46.1687 50.1701 46.6469C50.7015 47.1251 51 47.7737 51 48.45C51 49.1263 50.7015 49.7749 50.1701 50.2531C49.6388 50.7313 48.9181 51 48.1667 51C47.4152 51 46.6945 50.7313 46.1632 50.2531C45.6318 49.7749 45.3333 49.1263 45.3333 48.45C45.3333 47.7737 45.6318 47.1251 46.1632 46.6469C46.6945 46.1687 47.4152 45.9 48.1667 45.9ZM36.8333 45.9C37.5848 45.9 38.3055 46.1687 38.8368 46.6469C39.3682 47.1251 39.6667 47.7737 39.6667 48.45C39.6667 49.1263 39.3682 49.7749 38.8368 50.2531C38.3055 50.7313 37.5848 51 36.8333 51C36.0819 51 35.3612 50.7313 34.8299 50.2531C34.2985 49.7749 34 49.1263 34 48.45C34 47.7737 34.2985 47.1251 34.8299 46.6469C35.3612 46.1687 36.0819 45.9 36.8333 45.9ZM25.5 45.9C26.2514 45.9 26.9721 46.1687 27.5035 46.6469C28.0348 47.1251 28.3333 47.7737 28.3333 48.45C28.3333 49.1263 28.0348 49.7749 27.5035 50.2531C26.9721 50.7313 26.2514 51 25.5 51C24.7486 51 24.0279 50.7313 23.4965 50.2531C22.9652 49.7749 22.6667 49.1263 22.6667 48.45C22.6667 47.7737 22.9652 47.1251 23.4965 46.6469C24.0279 46.1687 24.7486 45.9 25.5 45.9ZM14.1667 45.9C14.9181 45.9 15.6388 46.1687 16.1701 46.6469C16.7015 47.1251 17 47.7737 17 48.45C17 49.1263 16.7015 49.7749 16.1701 50.2531C15.6388 50.7313 14.9181 51 14.1667 51C13.4152 51 12.6946 50.7313 12.1632 50.2531C11.6318 49.7749 11.3333 49.1263 11.3333 48.45C11.3333 47.7737 11.6318 47.1251 12.1632 46.6469C12.6946 46.1687 13.4152 45.9 14.1667 45.9ZM2.83333 45.9C3.58478 45.9 4.30545 46.1687 4.8368 46.6469C5.36815 47.1251 5.66667 47.7737 5.66667 48.45C5.66667 49.1263 5.36815 49.7749 4.8368 50.2531C4.30545 50.7313 3.58478 51 2.83333 51C2.08189 51 1.36122 50.7313 0.829864 50.2531C0.298511 49.7749 0 49.1263 0 48.45C0 47.7737 0.298511 47.1251 0.829864 46.6469C1.36122 46.1687 2.08189 45.9 2.83333 45.9ZM8.5 38.25C9.25145 38.25 9.97212 38.5187 10.5035 38.9969C11.0348 39.4751 11.3333 40.1237 11.3333 40.8C11.3333 41.4763 11.0348 42.1249 10.5035 42.6031C9.97212 43.0813 9.25145 43.35 8.5 43.35C7.74855 43.35 7.02788 43.0813 6.49653 42.6031C5.96518 42.1249 5.66667 41.4763 5.66667 40.8C5.66667 40.1237 5.96518 39.4751 6.49653 38.9969C7.02788 38.5187 7.74855 38.25 8.5 38.25ZM19.8333 38.25C20.5848 38.25 21.3054 38.5187 21.8368 38.9969C22.3682 39.4751 22.6667 40.1237 22.6667 40.8C22.6667 41.4763 22.3682 42.1249 21.8368 42.6031C21.3054 43.0813 20.5848 43.35 19.8333 43.35C19.0819 43.35 18.3612 43.0813 17.8299 42.6031C17.2985 42.1249 17 41.4763 17 40.8C17 40.1237 17.2985 39.4751 17.8299 38.9969C18.3612 38.5187 19.0819 38.25 19.8333 38.25ZM31.1667 38.25C31.9181 38.25 32.6388 38.5187 33.1701 38.9969C33.7015 39.4751 34 40.1237 34 40.8C34 41.4763 33.7015 42.1249 33.1701 42.6031C32.6388 43.0813 31.9181 43.35 31.1667 43.35C30.4152 43.35 29.6946 43.0813 29.1632 42.6031C28.6318 42.1249 28.3333 41.4763 28.3333 40.8C28.3333 40.1237 28.6318 39.4751 29.1632 38.9969C29.6946 38.5187 30.4152 38.25 31.1667 38.25ZM42.5 38.25C43.2514 38.25 43.9721 38.5187 44.5035 38.9969C45.0348 39.4751 45.3333 40.1237 45.3333 40.8C45.3333 41.4763 45.0348 42.1249 44.5035 42.6031C43.9721 43.0813 43.2514 43.35 42.5 43.35C41.7486 43.35 41.0279 43.0813 40.4965 42.6031C39.9652 42.1249 39.6667 41.4763 39.6667 40.8C39.6667 40.1237 39.9652 39.4751 40.4965 38.9969C41.0279 38.5187 41.7486 38.25 42.5 38.25ZM14.1667 30.6C14.9181 30.6 15.6388 30.8687 16.1701 31.3469C16.7015 31.8251 17 32.4737 17 33.15C17 33.8263 16.7015 34.4749 16.1701 34.9531C15.6388 35.4313 14.9181 35.7 14.1667 35.7C13.4152 35.7 12.6946 35.4313 12.1632 34.9531C11.6318 34.4749 11.3333 33.8263 11.3333 33.15C11.3333 32.4737 11.6318 31.8251 12.1632 31.3469C12.6946 30.8687 13.4152 30.6 14.1667 30.6ZM25.5 30.6C26.2514 30.6 26.9721 30.8687 27.5035 31.3469C28.0348 31.8251 28.3333 32.4737 28.3333 33.15C28.3333 33.8263 28.0348 34.4749 27.5035 34.9531C26.9721 35.4313 26.2514 35.7 25.5 35.7C24.7486 35.7 24.0279 35.4313 23.4965 34.9531C22.9652 34.4749 22.6667 33.8263 22.6667 33.15C22.6667 32.4737 22.9652 31.8251 23.4965 31.3469C24.0279 30.8687 24.7486 30.6 25.5 30.6ZM36.8333 30.6C37.5848 30.6 38.3055 30.8687 38.8368 31.3469C39.3682 31.8251 39.6667 32.4737 39.6667 33.15C39.6667 33.8263 39.3682 34.4749 38.8368 34.9531C38.3055 35.4313 37.5848 35.7 36.8333 35.7C36.0819 35.7 35.3612 35.4313 34.8299 34.9531C34.2985 34.4749 34 33.8263 34 33.15C34 32.4737 34.2985 31.8251 34.8299 31.3469C35.3612 30.8687 36.0819 30.6 36.8333 30.6ZM45.3333 25.5H5.66667V20.4H45.3333V25.5ZM42.2733 17.85H8.72667C9.91667 11.475 15.5833 6.375 22.6667 5.304V0H28.3333V5.304C35.4167 6.375 41.0833 11.475 42.2733 17.85Z" fill="black"/>
</svg>
