<svg width="51" height="51" viewBox="0 0 51 51" fill="none" xmlns="http://www.w3.org/2000/svg">
<path id="Vector" d="M43.35 31.875C43.35 31.875 48.45 37.4085 48.45 40.8C48.45 42.1526 47.9127 43.4498 46.9562 44.4062C45.9998 45.3627 44.7026 45.9 43.35 45.9C41.9974 45.9 40.7002 45.3627 39.7438 44.4062C38.7873 43.4498 38.25 42.1526 38.25 40.8C38.25 37.4085 43.35 31.875 43.35 31.875ZM7.65 40.8V17.85C6.2974 17.85 5.00019 17.3127 4.04376 16.3562C3.08732 15.3998 2.55 14.1026 2.55 12.75C2.55 11.3974 3.08732 10.1002 4.04376 9.14376C5.00019 8.18732 6.2974 7.65 7.65 7.65V5.1C7.65 3.7474 8.18732 2.45019 9.14376 1.49376C10.1002 0.53732 11.3974 0 12.75 0H17.85C19.2026 0 20.4998 0.53732 21.4562 1.49376C22.4127 2.45019 22.95 3.7474 22.95 5.1V7.65H43.35C44.7026 7.65 45.9998 8.18732 46.9562 9.14376C47.9127 10.1002 48.45 11.3974 48.45 12.75V17.85V22.95C49.1263 22.95 49.7749 23.2187 50.2531 23.6969C50.7313 24.1751 51 24.8237 51 25.5C51 26.1763 50.7313 26.8249 50.2531 27.3031C49.7749 27.7813 49.1263 28.05 48.45 28.05H38.25C37.5737 28.05 36.9251 27.7813 36.4469 27.3031C35.9687 26.8249 35.7 26.1763 35.7 25.5C35.7 24.8237 35.9687 24.1751 36.4469 23.6969C36.9251 23.2187 37.5737 22.95 38.25 22.95V17.85H22.95V40.8H25.5C26.8526 40.8 28.1498 41.3373 29.1062 42.2938C30.0627 43.2502 30.6 44.5474 30.6 45.9V51H0V45.9C0 44.5474 0.53732 43.2502 1.49376 42.2938C2.45019 41.3373 3.7474 40.8 5.1 40.8H7.65Z" fill="black"/>
</svg>
