<svg width="52" height="52" viewBox="0 0 52 52" fill="none" xmlns="http://www.w3.org/2000/svg">
<g id="soccer-field">
<path id="Vector" d="M8.78125 8.70361C6.4225 8.70361 4.53125 10.5949 4.53125 12.9536V38.4536C4.53125 39.5808 4.97902 40.6618 5.77605 41.4588C6.57308 42.2558 7.65408 42.7036 8.78125 42.7036H42.7812C43.9084 42.7036 44.9894 42.2558 45.7865 41.4588C46.5835 40.6618 47.0312 39.5808 47.0312 38.4536V12.9536C47.0312 10.5949 45.1188 8.70361 42.7812 8.70361H8.78125ZM8.78125 12.9536H23.6562V17.4799C19.9163 18.4574 17.2812 21.8361 17.2812 25.7036C17.2812 29.5711 19.9163 32.9499 23.6562 33.9274V38.4536H8.78125V34.2036H15.1562V17.2036H8.78125V12.9536ZM27.9062 12.9536H42.7812V17.2036H36.4062V34.2036H42.7812V38.4536H27.9062V33.9274C31.6462 32.9499 34.2812 29.5711 34.2812 25.7036C34.2812 21.8361 31.6462 18.4574 27.9062 17.4799V12.9536ZM8.78125 21.4536H10.9062V29.9536H8.78125V21.4536ZM40.6562 21.4536H42.7812V29.9536H40.6562V21.4536ZM27.9062 22.0274C29.2238 22.7924 30.0312 24.1949 30.0312 25.7036C30.0312 27.2124 29.2238 28.6149 27.9062 29.3799V22.0274ZM23.6562 22.0274V29.3799C22.3387 28.6149 21.5312 27.2124 21.5312 25.7036C21.5312 24.1949 22.3387 22.7924 23.6562 22.0274Z" fill="black"/>
</g>
</svg>
