<svg width="43" height="41" viewBox="0 0 43 41" fill="none" xmlns="http://www.w3.org/2000/svg">
<path id="Vector" d="M36.125 11.1643V6.6986C36.125 3.01437 33.2562 0 29.75 0H12.75C9.24375 0 6.375 3.01437 6.375 6.6986V11.1643C2.86875 11.1643 0 14.1787 0 17.8629V29.0273C0 32.7115 2.86875 35.7259 6.375 35.7259V40.1916H10.625V35.7259H31.875V40.1916H36.125V35.7259C39.6312 35.7259 42.5 32.7115 42.5 29.0273V17.8629C42.5 14.1787 39.6312 11.1643 36.125 11.1643ZM10.625 6.6986C10.625 5.47053 11.5812 4.46574 12.75 4.46574H29.75C30.9188 4.46574 31.875 5.47053 31.875 6.6986V12.906C30.5788 14.1341 29.75 15.898 29.75 17.8629V22.3287H12.75V17.8629C12.75 15.898 11.9212 14.1341 10.625 12.906V6.6986ZM38.25 29.0273C38.25 30.2554 37.2938 31.2602 36.125 31.2602H6.375C5.20625 31.2602 4.25 30.2554 4.25 29.0273V17.8629C4.25 16.6349 5.20625 15.6301 6.375 15.6301C7.54375 15.6301 8.5 16.6349 8.5 17.8629V26.7944H34V17.8629C34 16.6349 34.9562 15.6301 36.125 15.6301C37.2938 15.6301 38.25 16.6349 38.25 17.8629V29.0273Z" fill="black"/>
</svg>
