<svg width="51" height="51" viewBox="0 0 51 51" fill="none" xmlns="http://www.w3.org/2000/svg">
<g id="spring 1" clip-path="url(#clip0_697_28660)">
<g id="Group">
<path id="Vector" d="M9.16441 0.0896622C8.6564 0.249037 8.26793 0.508022 8.02887 0.826772C7.87945 1.01603 7.76988 1.20529 7.76988 1.26505C7.76988 1.32482 7.57066 1.34474 7.27183 1.31486C6.56461 1.24513 5.99683 1.49415 5.42906 2.10177C4.02457 3.60587 4.00465 5.75744 5.37926 8.02853L5.74781 8.63615L4.88121 8.70587C3.77555 8.78556 3.00855 8.98478 2.21168 9.38322C0.3191 10.3295 -0.607267 12.8197 0.488436 14.0151L0.777303 14.3338L0.588045 14.7123C-0.139103 16.1367 1.40484 18.2783 3.46676 18.7166C4.38316 18.9059 5.76773 18.8162 6.94312 18.4676L7.16226 18.4078L6.97301 19.0154C6.31558 21.1172 6.65426 23.1194 7.84957 24.2848C8.76597 25.1713 9.84176 25.4801 10.6486 25.0717C10.9773 24.9123 10.9972 24.9123 11.1267 25.1016C11.306 25.3506 11.8937 25.6594 12.3718 25.749C12.591 25.7889 12.9695 25.759 13.348 25.6594C14.9816 25.241 16.0076 24.1652 16.5554 22.3125C16.9738 20.8981 16.8742 18.0193 16.3961 17.4615C16.0873 17.1029 15.4796 17.1129 15.1609 17.4914C14.9418 17.7404 14.9318 17.8102 15.0115 18.4178C15.0513 18.7764 15.0912 19.5633 15.0912 20.1709C15.0812 22.0137 14.5433 23.2787 13.5472 23.7668C12.6109 24.235 12.3121 24.1453 12.1826 23.3783C12.0431 22.4819 11.1865 22.1133 10.6685 22.7209C9.92144 23.6174 9.89156 23.6274 9.58277 23.468C9.14449 23.2389 8.58668 22.5715 8.46715 22.1033C8.32769 21.5854 8.32769 20.5096 8.45719 19.892C8.6066 19.2246 9.015 18.1887 9.36363 17.5811C9.74215 16.9236 9.75211 16.5451 9.39351 16.1965C9.04488 15.8479 8.81578 15.8777 7.62047 16.4156C5.28961 17.4516 3.33726 17.352 2.42086 16.1467C1.97262 15.559 1.99254 15.3996 2.59019 15.0311C3.14801 14.6824 3.28746 14.4932 3.28746 14.0549C3.28746 13.6664 3.01851 13.3875 2.47066 13.2381C2.2316 13.1684 1.95269 13.0389 1.85308 12.9393C1.68375 12.7799 1.67379 12.7102 1.7734 12.3715C2.25152 10.7678 4.36324 10.0307 7.11246 10.5088C7.86949 10.6383 8.00894 10.6383 8.25797 10.5088C8.57672 10.3494 8.66637 10.1801 8.66637 9.74181C8.66637 9.51271 8.52691 9.29357 8.06871 8.80548C7.36148 8.03849 6.7439 7.15197 6.40523 6.39494C6.07652 5.67775 5.98687 4.50236 6.19605 3.98439C6.39527 3.51622 6.85347 2.98829 7.06265 2.98829C7.1523 2.98829 7.44117 3.16759 7.71012 3.38673C8.20816 3.80509 8.43726 3.86486 8.79586 3.66564C9.16441 3.47638 9.25406 3.2672 9.26402 2.61974C9.26402 1.80294 9.41344 1.65353 10.1207 1.72326C10.3996 1.75314 10.808 1.86271 11.0271 1.97228C12.1427 2.55001 13.1089 4.39279 13.3181 6.37501C13.3878 7.05236 13.607 7.41095 14.0054 7.51056C14.4736 7.63009 14.7923 7.41095 15.141 6.74357C16.5255 4.12384 18.5277 2.809 20.0517 3.53615C20.48 3.73537 20.49 3.83497 20.2111 4.75138C20.0517 5.27931 20.1613 5.65783 20.5398 5.86701C20.7689 5.9965 20.8685 6.00646 21.2371 5.88693C21.4761 5.8172 21.8148 5.73751 21.9941 5.70763C22.2929 5.65783 22.3228 5.68771 22.4822 6.03634C23.1496 7.58029 21.9742 9.35334 19.3345 10.7479C18.3285 11.2858 18.1392 11.5447 18.3683 12.0826C18.448 12.2719 18.5576 12.4611 18.6273 12.501C18.697 12.5408 19.1652 12.6604 19.6732 12.75C21.7252 13.1485 23.3089 14.0947 23.7671 15.2004C23.9564 15.6486 23.9464 16.6746 23.7671 16.824C23.6675 16.9037 23.4285 16.9236 23.0201 16.8738C22.4423 16.8141 22.4125 16.824 22.1136 17.1129C21.6853 17.5512 21.7252 17.8899 22.283 18.5672C22.6416 19.0055 22.5619 19.3043 21.9742 19.6729C21.5359 19.9318 21.3865 19.9717 20.6693 19.9817C19.6234 20.0016 19.4341 20.0713 19.2648 20.4697C19.1054 20.8582 19.1851 21.157 19.5238 21.4658C19.8326 21.7447 21.1972 21.8045 21.9343 21.5654C23.4086 21.0873 24.2552 20.141 24.2353 18.9955C24.2254 18.5772 24.2652 18.4277 24.3648 18.4277C24.5541 18.4277 25.1816 17.85 25.3609 17.5113C25.6 17.0432 25.7095 16.1567 25.6 15.4893C25.3609 14.0449 24.3548 12.8397 22.6814 12.0029C22.1933 11.7539 21.7351 11.5547 21.6554 11.5547C21.4064 11.5547 21.506 11.3854 21.9244 11.0965C22.5718 10.6483 23.5779 9.49279 23.9066 8.82541C24.3548 7.91896 24.4744 7.22169 24.325 6.37501C24.1955 5.59806 23.8568 4.85099 23.4882 4.51232C23.2193 4.25333 22.6117 3.98439 22.3129 3.98439C22.1535 3.98439 22.1136 3.91466 22.1136 3.68556C22.1136 3.2672 21.7849 2.64962 21.3964 2.35079C20.7589 1.87267 20.0517 1.65353 19.0755 1.65353C18.3484 1.65353 18.0795 1.69337 17.6312 1.89259C16.8343 2.23126 15.9478 2.88869 15.2505 3.64572C14.9119 4.01427 14.623 4.29318 14.613 4.27326C14.5931 4.25333 14.4537 3.9047 14.3043 3.4963C13.4675 1.34474 12.0332 0.119545 10.2302 0.0398575C9.78199 0.0199356 9.30387 0.0398575 9.16441 0.0896622Z" fill="black"/>
<path id="Vector_2" d="M32.853 1.52425C31.3389 1.95257 29.8946 3.78539 29.2371 6.11625C28.8985 7.3016 28.8885 7.89925 29.1873 8.218C29.3567 8.3973 29.526 8.46703 29.785 8.46703C30.293 8.46703 30.562 8.14828 30.6815 7.40121C31.0002 5.45882 32.2254 3.46664 33.2813 3.18773C34.1977 2.93871 34.9248 3.49652 35.0344 4.5225C35.1141 5.31937 35.3432 5.50863 36.2895 5.51859C37.1362 5.52855 37.4948 5.70785 37.7139 6.22582C37.9131 6.70394 37.8832 7.04261 37.6143 7.62035C37.3055 8.29769 36.17 9.33363 35.1838 9.84164C33.9188 10.509 33.1518 10.6883 31.4784 10.7082C29.6754 10.7381 29.8248 10.7182 29.5858 10.9772C29.3069 11.276 29.3268 11.8039 29.6256 12.1028C29.9145 12.3916 30.811 12.5012 32.1756 12.4215C33.8192 12.3119 35.4428 11.7741 36.7577 10.9075C37.6641 10.2998 38.8495 9.04476 39.1981 8.30765C40.0149 6.59437 39.2877 4.62211 37.6243 3.99457C37.3055 3.885 36.9668 3.78539 36.8672 3.78539C36.7477 3.78539 36.6182 3.62601 36.4787 3.2973C35.911 1.91273 34.2873 1.12582 32.853 1.52425Z" fill="black"/>
<path id="Vector_3" d="M11.0387 9.56234C10.0426 10.2297 9.4748 11.3155 9.46484 12.5606C9.46484 12.9789 9.53457 13.5368 9.61426 13.7957C9.92305 14.8317 10.8594 15.7979 11.9551 16.1963C12.224 16.2959 12.7221 16.3657 13.2201 16.3657C13.9572 16.3756 14.0867 16.3457 14.774 16.0071C15.6805 15.5588 16.3279 14.8914 16.6467 14.0647C17.085 12.969 16.8957 11.1162 16.308 10.7078C15.9693 10.4688 15.4713 10.5186 15.1824 10.8174C14.9035 11.0864 14.9035 11.2657 15.1426 12.1223C15.5809 13.6463 14.1266 15.0508 12.5926 14.5926C12.0547 14.4332 11.4471 13.8953 11.2678 13.4172C10.959 12.5905 11.2777 11.4649 11.9551 10.9868C12.5826 10.5385 12.7121 10.0504 12.3336 9.6221C11.975 9.2137 11.5865 9.19378 11.0387 9.56234Z" fill="black"/>
<path id="Vector_4" d="M45.434 10.5285C44.7666 10.7676 44.1291 11.4549 43.8403 12.2617C43.7705 12.461 43.6211 12.5705 43.2526 12.6901C41.6887 13.208 40.9815 15.0209 41.7285 16.5848C42.366 17.9295 44.0893 19.1846 46.0317 19.7125C47.5756 20.1508 49.9762 20.0612 50.4742 19.5631C50.8727 19.1647 50.7731 18.5172 50.285 18.2682C50.026 18.1287 49.8666 18.1287 49.1395 18.2283C47.8047 18.4176 46.699 18.2483 45.3742 17.6307C44.5375 17.2522 43.5414 16.4354 43.2824 15.9274C43.1131 15.5987 43.0932 15.011 43.2326 14.7321C43.392 14.4531 43.8602 14.244 44.3682 14.244C44.6073 14.244 44.8862 14.2141 44.9758 14.1842C45.2049 14.0946 45.424 13.6164 45.424 13.1981C45.424 11.8434 46.7887 11.6442 47.8246 12.8395C48.0438 13.0885 48.3824 13.6363 48.5817 14.0447C49.0598 15.011 49.259 15.2401 49.6574 15.2401C50.1455 15.2401 50.5041 14.9113 50.5041 14.4531C50.5041 13.6862 49.4084 11.8733 48.4621 11.1063C47.6055 10.399 46.4301 10.1799 45.434 10.5285Z" fill="black"/>
<path id="Vector_5" d="M31.0205 17.87C28.4307 18.6868 27.0461 21.0575 27.2353 24.4044C27.2752 25.0319 27.3449 25.7491 27.3848 25.9981C27.4346 26.2471 27.4644 26.4563 27.4445 26.4762C27.4246 26.4962 27.066 26.3368 26.6377 26.1176C23.4801 24.5438 20.7707 24.6434 18.898 26.3965C17.8023 27.4126 17.4736 28.309 17.7924 29.345C17.892 29.6737 17.9717 29.9626 17.9816 30.0024C17.9816 30.0423 17.7824 30.2016 17.5334 30.361C17.2346 30.5503 16.9855 30.8192 16.7863 31.1878C16.5273 31.6659 16.4875 31.8253 16.4975 32.5225C16.5074 33.9868 17.135 35.4212 18.1908 36.3475C19.2068 37.244 20.94 37.9811 22.6633 38.26C23.1016 38.3298 23.4801 38.3995 23.5 38.4094C23.5199 38.4294 23.2609 38.7481 22.9123 39.1167C21.2389 40.9495 20.4719 42.4337 20.3523 44.0772C20.2627 45.3821 20.7209 46.7567 21.5875 47.713C22.1154 48.3106 22.6533 48.5298 23.4402 48.4999L24.0379 48.47L24.1574 48.9182C24.2969 49.496 24.6355 50.0438 25.0141 50.3128C25.7711 50.8507 27.315 51.1196 28.4406 50.9104C30.2535 50.5817 31.9967 49.0178 33.3514 46.5276L33.7498 45.8005L34.1781 46.6272C35.7121 49.5657 37.9832 51.1794 40.324 50.9702C42.0572 50.8208 43.1131 50.0837 43.3123 48.8983L43.382 48.47L43.9996 48.4999C44.7865 48.5298 45.3344 48.3007 45.8922 47.6831C47.1373 46.3383 47.466 44.2565 46.7389 42.3839C46.3404 41.3778 45.6332 40.2921 44.6769 39.2661C44.2685 38.8278 43.9299 38.4493 43.9299 38.4194C43.9299 38.3995 44.1988 38.3397 44.5375 38.3098C46.2109 38.1206 48.3127 37.2241 49.3387 36.2579C50.1355 35.5108 50.5539 34.8135 50.8129 33.7676C51.2711 31.9747 50.9125 30.9288 49.5678 30.1319C49.4084 30.0423 49.4084 30.0024 49.5976 29.584C50.0459 28.6079 49.7969 27.6915 48.8008 26.6456C47.725 25.51 46.5396 25.002 44.9558 25.002C44.0793 25.002 42.874 25.2411 42.5453 25.4801C42.0473 25.8487 42.0672 26.5161 42.5851 26.8548C42.8342 27.0241 42.8939 27.0241 43.7406 26.8448C45.3443 26.526 46.44 26.7551 47.3664 27.6018C47.8644 28.06 48.1135 28.4585 48.1135 28.7772C48.1135 28.8967 47.8346 29.2553 47.466 29.6139C46.948 30.1219 46.8185 30.3112 46.8185 30.5602C46.8185 31.1977 47.0875 31.4069 48.0637 31.5264C49.1594 31.6659 49.4084 31.9548 49.259 32.9508C48.9203 35.2917 46.44 36.6862 42.4357 36.8057C41.1308 36.8456 41.081 36.8555 40.8719 37.1046C40.6328 37.3835 40.583 37.7421 40.7424 38.0409C40.7922 38.1405 41.2006 38.4891 41.6588 38.8178C42.6748 39.5649 43.9598 40.8698 44.5076 41.7264C45.165 42.7424 45.3642 43.3401 45.3642 44.376C45.3642 45.3622 45.2049 45.8801 44.6869 46.4977C44.3183 46.9161 43.9896 46.9161 43.1928 46.4678C42.4656 46.0594 42.1469 46.0296 41.7883 46.3483C41.4795 46.6073 41.4496 46.946 41.6289 47.8325C41.848 48.8784 41.4297 49.237 39.9953 49.2469C39.308 49.2569 39.1088 49.2071 38.551 48.9481C36.9473 48.1911 35.4531 46.0794 34.6762 43.4596C34.4471 42.7126 34.218 42.4337 33.7996 42.4337C33.3812 42.4337 33.0824 42.6528 32.933 43.0712C32.8533 43.3003 32.6939 43.7684 32.5744 44.127C31.6281 46.8663 29.9049 48.8286 28.0721 49.2171C27.4047 49.3665 26.3289 49.1872 26.0002 48.8883C25.801 48.6991 25.781 48.6194 25.8408 48.0715C25.8707 47.7329 25.9305 47.3046 25.9603 47.1053C26.0101 46.8165 25.9703 46.6969 25.7512 46.438C25.4025 46.0196 25.1037 46.0296 24.2769 46.4678C23.2012 47.0456 22.8824 46.926 22.3545 45.7706C21.976 44.9438 21.966 43.8581 22.3346 42.9516C22.9123 41.5471 24.0279 40.1725 25.4723 39.0868C26.6975 38.1704 26.7971 38.0608 26.7971 37.6524C26.7971 37.0747 26.4285 36.7958 25.7213 36.8356C24.8646 36.8755 23.0418 36.6762 22.1553 36.4571C20.4719 36.0288 19.1072 35.1124 18.5693 34.0366C18.0912 33.1003 18.0613 31.9049 18.5096 31.7257C18.5992 31.6858 19.0375 31.5962 19.4658 31.5165C20.3922 31.3671 20.6611 31.1678 20.6611 30.6299C20.6611 30.3311 20.5615 30.1817 20.0535 29.6538C19.7248 29.3151 19.426 28.9565 19.3861 28.8569C19.2267 28.3887 20.0336 27.4624 20.9898 27.0241C22.6334 26.2671 25.2631 26.9344 27.7633 28.7274C28.7992 29.4745 29.1379 29.5442 29.5363 29.1358C29.8252 28.8569 29.8551 28.4784 29.6359 27.9505C29.5562 27.7612 29.367 27.1337 29.2176 26.5758C28.9785 25.6893 28.9486 25.3507 28.9387 24.0557C28.9387 22.7409 28.9685 22.4819 29.1678 21.8842C29.5562 20.7786 30.3232 19.9518 31.3293 19.5633C32.0365 19.2944 32.2457 19.4139 32.7238 20.3503C33.1422 21.177 33.3314 21.3464 33.7896 21.3364C34.1881 21.3264 34.3275 21.187 34.726 20.41C35.0547 19.7426 35.3635 19.4239 35.6623 19.4239C35.981 19.4239 36.9273 19.9518 37.3357 20.3503C38.1924 21.177 38.551 22.2528 38.551 23.9661C38.551 25.2411 38.3717 26.3368 37.9433 27.5919C37.784 28.0799 37.6545 28.5382 37.6545 28.6178C37.6545 28.7075 37.774 28.9067 37.9135 29.076C38.2123 29.4346 38.7004 29.4944 39.0391 29.2055C39.4475 28.8669 40.085 26.6157 40.2443 24.9024C40.4635 22.6413 39.9455 20.679 38.81 19.3542C38.1027 18.5374 36.5289 17.7305 35.6424 17.7305C35.1344 17.7305 34.5865 17.9397 34.1682 18.2983L33.7797 18.637L33.3215 18.2883C32.6142 17.7405 31.8672 17.611 31.0205 17.87Z" fill="black"/>
<path id="Vector_6" d="M33.2586 26.1275C32.9199 26.3865 32.8701 26.6754 32.8701 28.3189V29.9525L32.4916 30.0223C31.4855 30.1816 29.9914 31.2176 29.3738 32.1838C29.1945 32.4527 29.0053 32.6719 28.9554 32.6719C28.8957 32.6719 28.1685 32.4527 27.3318 32.1738C26.007 31.7455 25.7779 31.6957 25.509 31.7854C25.3396 31.8451 25.1504 31.9746 25.1006 32.0742C24.9312 32.393 24.981 32.9209 25.2101 33.1301C25.3197 33.2297 26.0967 33.5484 26.9234 33.8273L28.4375 34.3354L28.4474 35.2219C28.4773 36.5467 28.9455 37.8018 29.7324 38.6484L29.9715 38.8975L28.9754 40.2422C28.2084 41.298 27.9892 41.6566 27.9892 41.9156C27.9892 42.3539 28.3678 42.7324 28.816 42.7324C29.2144 42.7324 29.4435 42.5033 30.5293 41.0191C30.9576 40.4215 31.3162 39.9434 31.3361 39.9434C31.356 39.9434 31.7246 40.0629 32.1429 40.2023C32.8402 40.4414 33.0295 40.4613 33.9658 40.4215C34.7029 40.3816 35.1711 40.3119 35.5496 40.1625C35.8484 40.043 36.1174 39.9732 36.1572 39.9932C36.1971 40.023 36.6254 40.5809 37.1035 41.2383C37.5816 41.9057 38.0697 42.5033 38.1892 42.583C38.498 42.8021 38.9762 42.7723 39.2152 42.5133C39.6933 41.9754 39.6336 41.8061 38.4482 40.1924C37.9502 39.515 37.5517 38.9273 37.5517 38.8875C37.5517 38.8477 37.6713 38.6883 37.8107 38.5389C38.1693 38.1604 38.1693 37.5926 37.8008 37.2838C37.3525 36.8953 37.0437 36.975 36.2568 37.6922C35.3304 38.5488 34.7228 38.7879 33.5972 38.7281C31.5951 38.6285 30.1607 37.1543 30.1607 35.192C30.1607 34.3254 30.3799 33.658 30.8779 33.0006C32.4916 30.849 35.8783 31.2375 37.0138 33.7078C37.2728 34.2656 37.4721 34.5047 37.8008 34.6043C38.0896 34.684 42.1338 33.3393 42.3131 33.1002C42.6517 32.632 42.5222 32.0643 42.0142 31.8152C41.6955 31.6658 41.6357 31.6758 40.1316 32.1639C39.275 32.4428 38.5279 32.6719 38.4681 32.6719C38.4084 32.6719 38.3287 32.5822 38.2988 32.4627C38.1992 32.1539 37.1035 31.0283 36.5457 30.6797C36.2767 30.5004 35.7289 30.2514 35.3304 30.1318L34.6133 29.9027L34.5635 28.1396C34.5137 26.4363 34.5037 26.3766 34.2746 26.1873C34.0156 25.9781 33.4976 25.9383 33.2586 26.1275Z" fill="black"/>
<path id="Vector_7" d="M5.82874 30.4506C3.30862 30.849 1.02757 32.1937 0.340261 33.6879C-0.0382546 34.5047 -0.0681374 35.6502 0.270534 36.3773C0.549441 36.9849 1.28655 37.7719 1.7846 37.991C2.14319 38.1603 2.17307 38.2002 2.23284 38.6883C2.34241 39.6445 2.58147 40.1525 3.22893 40.8C3.68714 41.2582 3.976 41.4474 4.3844 41.5869C5.06175 41.816 5.94827 41.826 6.67542 41.6068C8.13967 41.1785 10.0223 39.4254 11.0582 37.5428C11.5264 36.6762 11.5662 36.2578 11.2076 35.9092C10.7196 35.4111 10.1219 35.6402 9.70354 36.4869C9.04612 37.8017 7.69143 39.2461 6.63557 39.784C6.15745 40.033 5.98811 40.0629 5.4303 40.023C4.85257 39.9931 4.743 39.9433 4.43421 39.6445C3.96604 39.1863 3.86643 38.7879 4.00589 37.9412C4.12542 37.2838 4.11546 37.2539 3.89632 37.0148C3.7469 36.8555 3.45803 36.726 3.09944 36.6463C2.41214 36.5068 1.84436 35.9988 1.74475 35.4211C1.56546 34.4748 2.22288 33.5982 3.62737 32.9209C4.91233 32.2933 5.6594 32.134 7.27307 32.134C8.73733 32.134 9.42464 32.2635 10.6897 32.7814C11.0682 32.9408 11.4666 33.0703 11.5762 33.0703C11.8352 33.0703 12.3532 32.5424 12.3532 32.2734C12.3532 31.7654 12.0942 31.5164 11.1877 31.1478C9.87288 30.6299 8.99632 30.4605 7.47229 30.4306C6.73518 30.4107 5.99807 30.4207 5.82874 30.4506Z" fill="black"/>
</g>
</g>
<defs>
<clipPath id="clip0_697_28660">
<rect width="51" height="51" fill="white"/>
</clipPath>
</defs>
</svg>
