<svg width="51" height="51" viewBox="0 0 51 51" fill="none" xmlns="http://www.w3.org/2000/svg">
<g id="summer 1">
<g id="Group">
<path id="Vector" d="M3.18453 1.72324C2.69645 1.88262 1.85973 2.73926 1.71031 3.24727C1.52106 3.88477 1.5609 4.26328 1.83981 4.53223C2.32789 5.03027 3.18453 4.68164 3.18453 3.98438C3.18453 3.57598 3.57301 3.1875 3.98141 3.1875C4.38981 3.1875 4.77828 3.57598 4.77828 3.98438C4.77828 4.39277 5.16676 4.78125 5.57516 4.78125C5.98356 4.78125 6.37203 4.39277 6.37203 3.98438C6.37203 3.79512 6.46168 3.58594 6.62106 3.43652C6.77047 3.27715 6.97965 3.1875 7.16891 3.1875C7.35817 3.1875 7.56735 3.27715 7.71676 3.43652C7.87614 3.58594 7.96578 3.79512 7.96578 3.98438C7.96578 4.68164 8.82242 5.03027 9.31051 4.53223C9.78864 4.06406 9.5695 3.08789 8.81246 2.34082C7.94586 1.47422 6.81032 1.34473 5.85407 2.01211C5.57516 2.20137 5.57516 2.20137 5.30621 2.01211C4.70856 1.60371 3.91168 1.49414 3.18453 1.72324Z" fill="black"/>
<path id="Vector_2" d="M39.2959 1.84277C39.0568 2.07188 39.0469 2.15156 39.0469 3.1875C39.0469 4.22344 39.0568 4.30313 39.2959 4.53223C39.4453 4.6916 39.6545 4.78125 39.8437 4.78125C40.033 4.78125 40.2422 4.6916 40.3916 4.53223C40.6307 4.30313 40.6406 4.22344 40.6406 3.1875C40.6406 2.15156 40.6307 2.07188 40.3916 1.84277C40.2422 1.6834 40.033 1.59375 39.8437 1.59375C39.6545 1.59375 39.4453 1.6834 39.2959 1.84277Z" fill="black"/>
<path id="Vector_3" d="M15.1377 4.11387C14.6496 4.27324 13.8129 5.12988 13.6634 5.63789C13.4742 6.27539 13.514 6.65391 13.7929 6.92285C14.281 7.4209 15.1377 7.07227 15.1377 6.375C15.1377 5.9666 15.5261 5.57813 15.9345 5.57813C16.3429 5.57813 16.7314 5.9666 16.7314 6.375C16.7314 6.7834 17.1199 7.17188 17.5283 7.17188C17.9367 7.17188 18.3252 6.7834 18.3252 6.375C18.3252 5.9666 18.7136 5.57813 19.122 5.57813C19.5304 5.57813 19.9189 5.9666 19.9189 6.375C19.9189 7.07227 20.7755 7.4209 21.2636 6.92285C21.7418 6.45469 21.5226 5.47852 20.7656 4.73145C19.899 3.86484 18.7634 3.73535 17.8072 4.40273C17.5283 4.59199 17.5283 4.59199 17.2593 4.40273C16.6617 3.99434 15.8648 3.88477 15.1377 4.11387Z" fill="black"/>
<path id="Vector_4" d="M33.1197 4.43255C32.6615 4.88079 32.7611 5.2095 33.6476 6.09602C34.5342 6.98255 34.8629 7.08216 35.3111 6.62395C35.7693 6.17571 35.6697 5.847 34.7832 4.96048C33.8967 4.07395 33.5679 3.97434 33.1197 4.43255Z" fill="black"/>
<path id="Vector_5" d="M44.9015 4.96048C44.015 5.847 43.9154 6.17571 44.3736 6.62395C44.8218 7.08216 45.1506 6.98255 46.0371 6.09602C46.9236 5.2095 47.0232 4.88079 46.565 4.43255C46.1168 3.97434 45.7881 4.07395 44.9015 4.96048Z" fill="black"/>
<path id="Vector_6" d="M38.6984 5.69757C37.802 5.86691 36.6664 6.49445 35.9193 7.23156C34.216 8.94484 33.7977 11.4152 34.8535 13.5866C36.517 17.0232 41.1189 17.7802 43.7885 15.0708C45.95 12.8694 45.94 9.42296 43.7785 7.24152C42.4637 5.90675 40.591 5.33898 38.6984 5.69757ZM41.4775 7.55031C42.384 7.96867 42.9617 8.5464 43.41 9.44289C43.7586 10.1601 43.7785 10.2497 43.7785 11.1562C43.7785 12.0626 43.7586 12.1523 43.41 12.8694C42.9617 13.7759 42.384 14.3337 41.4576 14.772C40.85 15.0609 40.7006 15.0907 39.8439 15.0907C38.9873 15.0907 38.8379 15.0609 38.2303 14.772C37.3039 14.3337 36.7262 13.7759 36.2779 12.8694C35.9293 12.1523 35.9094 12.0626 35.9094 11.1661C35.9094 10.2995 35.9393 10.1501 36.2281 9.54249C36.6266 8.69582 37.1943 8.07824 37.9414 7.68976C38.7184 7.2714 39.1566 7.17179 40.0631 7.21164C40.6707 7.24152 40.9795 7.32121 41.4775 7.55031Z" fill="black"/>
<path id="Vector_7" d="M16.3847 8.83535C12.5199 9.17402 8.74466 10.4889 5.50736 12.6504C4.14271 13.5469 1.83177 15.4395 1.68236 15.7781C1.52298 16.1168 1.73216 19.6728 1.93138 19.9617C2.04095 20.1311 2.74818 20.4299 4.75033 21.1471C6.21458 21.685 7.52943 22.1133 7.65892 22.1133C7.82825 22.1133 8.08724 21.9141 8.5056 21.4559L9.11321 20.7984L9.17298 21.0773C9.21282 21.2367 9.24271 21.6152 9.25267 21.924C9.26263 22.3025 9.32239 22.5615 9.44193 22.701C9.63118 22.94 14.6814 24.8027 15.1296 24.8027C15.3189 24.8027 15.548 24.6334 15.9962 24.1553C16.3349 23.7967 16.6337 23.5078 16.6736 23.5078C16.7034 23.5078 16.7333 23.8564 16.7333 24.2748C16.7333 25.3605 16.823 25.49 17.829 25.8686C18.2872 26.0379 18.6857 26.2172 18.6956 26.267C18.7156 26.3068 17.5003 29.7533 15.9962 33.917L13.2669 41.4873L12.9283 41.557C12.749 41.5969 12.1513 41.7264 11.6034 41.8459C8.02747 42.6229 4.64075 44.6549 2.32982 47.434C1.50306 48.4301 1.41341 48.7389 1.84173 49.1572L2.08079 49.4062H25.499H48.9171L49.1562 49.1572C49.3255 48.9979 49.4052 48.8086 49.4052 48.5895C49.4052 48.3205 49.2956 48.1611 48.7378 47.6332C46.9449 45.9598 44.1259 44.3561 41.4365 43.4795C40.9683 43.3301 40.5798 43.2006 40.5699 43.1906C40.5699 43.1906 40.6097 42.8918 40.6695 42.5531L40.789 41.9156L41.5659 42.6229C42.4126 43.3998 42.7015 43.4895 43.1697 43.1209C43.3589 42.9715 43.4286 42.8221 43.4286 42.5631C43.4286 42.1746 43.339 42.075 41.8548 40.7203L41.1376 40.0629L41.4763 40.0031C42.074 39.8936 42.1337 39.7441 42.3329 37.752C42.5322 35.8195 42.5122 35.5805 42.0939 35.3713C41.9146 35.2816 33.5275 34.3951 32.2824 34.3354C31.9337 34.3254 31.8142 34.3652 31.6349 34.5744C31.4456 34.7936 31.3859 35.0725 31.2365 36.6363C31.0372 38.6484 31.0572 38.768 31.6349 39.007L31.9736 39.1465V40.1725C31.9736 40.7303 31.9437 41.4275 31.9138 41.7064L31.8441 42.2344H31.2365C29.4435 42.2344 26.2261 42.7324 24.5029 43.2803C24.4132 43.3102 24.2638 43.2703 24.1642 43.2006C24.0048 43.0811 24.0048 43.0512 24.2538 42.6229C24.5427 42.085 25.1005 40.3219 25.1005 39.9035C25.1005 39.4652 24.8515 39.266 23.9351 38.9871C23.4769 38.8477 23.1083 38.6783 23.1083 38.6186C23.1083 38.5488 23.188 38.2301 23.2876 37.9014C23.4868 37.2439 23.4769 37.2539 24.3534 37.4033C24.9909 37.5129 25.1404 37.3236 25.6085 35.7299C25.9572 34.5445 25.997 34.3154 25.8974 34.0764C25.8376 33.917 25.6783 33.7477 25.5488 33.6879C25.1105 33.4887 22.3314 32.6719 22.0923 32.6719C21.6042 32.6719 21.4648 32.901 21.0165 34.415L20.5783 35.8594L20.7775 36.1383C20.897 36.2977 21.1759 36.467 21.4449 36.5566C21.7337 36.6463 21.913 36.7658 21.913 36.8654C21.913 36.9949 21.5245 38.25 21.4847 38.25C21.4747 38.25 21.1062 38.1404 20.6679 38.001C19.6917 37.6922 19.6021 37.6922 19.2833 37.9711C18.9745 38.25 18.3271 40.3318 18.3271 41.0291V41.4873L16.7134 41.4475C15.8169 41.4375 15.0699 41.3977 15.0499 41.3777C15.0101 41.3479 20.1997 26.8846 20.2794 26.8049C20.2993 26.785 20.7675 26.9344 21.3154 27.1336C21.8732 27.3328 22.4409 27.4922 22.5904 27.4922C22.7796 27.4922 23.0386 27.3129 23.5267 26.8248L24.204 26.1574V26.8547C24.204 27.6516 24.3435 28.1496 24.5925 28.2891C25.0906 28.548 29.832 30.1816 30.1009 30.1816C30.3699 30.1816 30.5292 30.0721 31.0472 29.5143L31.6747 28.8369L31.6847 29.335C31.6947 30.1119 31.8341 30.7992 32.0034 30.9287C32.2923 31.1379 37.2927 32.901 37.6015 32.901C37.8406 32.901 38.0298 32.7516 38.6773 32.0643C40.2411 30.4008 40.6396 29.8928 40.6396 29.584C40.6396 29.1756 40.0021 26.1176 39.6933 25.0518C38.8964 22.3025 37.4122 19.4637 35.5595 17.1328C34.7228 16.077 32.6808 14.0848 31.6449 13.3078C27.6505 10.3195 22.8095 8.71582 17.9884 8.78554C17.321 8.7955 16.6038 8.81543 16.3847 8.83535ZM15.6376 10.9172C14.3527 11.6045 13.3267 12.3914 12.2708 13.4971C11.2249 14.5828 10.6074 15.4395 9.89017 16.8041C9.64114 17.2922 9.422 17.6906 9.41204 17.7105C9.39212 17.7404 4.07298 15.8478 4.00325 15.798C3.99329 15.7781 4.35189 15.4793 4.80013 15.1207C7.24056 13.1982 9.99974 11.8037 12.8984 11.0467C14.024 10.7578 15.5081 10.4889 16.1357 10.4689C16.4544 10.459 16.4146 10.4988 15.6376 10.9172ZM21.9728 11.6643C21.1659 12.5209 20.399 13.5369 19.6519 14.7621C19.0144 15.818 17.7195 18.4178 17.2911 19.5234C17.1318 19.9318 16.9624 20.3103 16.9226 20.3502C16.8827 20.4 15.7173 20.0314 14.3327 19.5234C11.1452 18.3779 10.956 18.3082 10.956 18.2584C10.956 18.2385 11.0954 17.9396 11.2648 17.601C12.1214 15.8877 13.6554 14.1047 15.1495 13.0787C17.1915 11.6742 19.3232 10.9869 21.7038 10.967L22.6302 10.957L21.9728 11.6643ZM25.2898 11.6543C25.5986 11.8137 25.8974 12.6803 25.987 13.6764C26.0867 14.7123 25.987 16.4654 25.738 17.9197C25.4591 19.5732 24.5228 23.0197 24.3435 23.0795C24.2638 23.1094 18.5562 21.0773 18.4665 20.9877C18.347 20.8682 19.7714 17.7404 20.6181 16.2662C21.8732 14.0947 23.2378 12.4213 24.2439 11.8436C24.7818 11.5348 25.0009 11.4949 25.2898 11.6543ZM28.0888 13.1982C28.3478 13.3875 28.8658 13.8656 29.2443 14.2641C31.3859 16.5152 32.4816 19.5234 32.3421 22.7508C32.2824 24.1254 32.0134 25.6893 31.8341 25.759C31.7345 25.7988 26.0568 23.7967 25.9472 23.6871C25.9273 23.6672 26.0568 23.1592 26.246 22.5615C26.7142 21.0773 27.2521 18.7266 27.4513 17.2822C27.6206 16.057 27.6804 13.4771 27.5509 13.0687C27.4513 12.7699 27.531 12.7898 28.0888 13.1982ZM34.6531 18.5771C36.0874 20.4697 37.1533 22.4918 37.9003 24.743C38.3884 26.1973 38.8665 28.2193 38.737 28.2691C38.6574 28.299 33.7068 26.5459 33.4876 26.4064C33.4079 26.3566 33.4179 26.2072 33.5175 25.8686C33.7566 25.0816 33.9658 23.3982 33.9658 22.3125C33.9658 20.4697 33.5574 18.4975 32.8202 16.7643L32.5712 16.1865L33.2784 16.9336C33.657 17.342 34.2845 18.0891 34.6531 18.5771ZM6.872 18.5273C7.66888 18.8162 8.34622 19.0752 8.38607 19.1051C8.41595 19.1449 8.19681 19.4537 7.88802 19.7824L7.32025 20.39L5.32806 19.6728L3.33587 18.9457L3.30599 18.0891L3.27611 17.2324L4.35189 17.6209C4.93958 17.8301 6.07513 18.2385 6.872 18.5273ZM13.6454 20.9678C14.8208 21.3961 15.8169 21.7746 15.8568 21.8045C15.8966 21.8443 15.6775 22.1432 15.3587 22.4818L14.7909 23.0994L12.8286 22.3822C10.6273 21.5853 10.7568 21.7049 10.7568 20.5096V19.9318L11.1353 20.0613C11.3345 20.141 12.4701 20.5494 13.6454 20.9678ZM21.7138 23.8863C22.6202 24.2051 23.3574 24.5238 23.3574 24.5736C23.3574 24.6334 23.1183 24.9322 22.8294 25.241L22.3015 25.7889L20.3392 25.0816C19.2634 24.6932 18.3669 24.3744 18.3669 24.3645C18.357 24.3645 18.3171 23.966 18.2773 23.4879L18.2076 22.6213L19.1339 22.96C19.6519 23.1393 20.8074 23.5576 21.7138 23.8863ZM28.4374 26.3068L30.9675 27.2232L30.3997 27.8607C30.0909 28.2094 29.7921 28.4783 29.7324 28.4584C29.6825 28.4385 28.7661 28.1197 27.7202 27.7412L25.7978 27.0539V26.4463C25.7978 26.1176 25.7679 25.749 25.738 25.6195C25.6982 25.4801 25.7181 25.4004 25.7978 25.4004C25.8575 25.4004 27.0529 25.8088 28.4374 26.3068ZM35.8783 28.9963C37.2628 29.4943 38.4083 29.9127 38.4283 29.9326C38.4482 29.9525 38.1991 30.2414 37.8804 30.5801L37.3027 31.1977L35.2806 30.4805L33.2685 29.7533V28.9266C33.2685 28.4684 33.2884 28.0898 33.3083 28.0898C33.3382 28.0898 34.4837 28.4982 35.8783 28.9963ZM23.4669 34.684C24.0247 34.8434 24.1941 34.933 24.1542 35.0426C24.1243 35.1123 24.0745 35.2916 24.0447 35.4211C24.0048 35.5904 23.9251 35.6502 23.8156 35.6203C22.8195 35.3414 22.5107 35.2119 22.5107 35.0725C22.5107 34.8533 22.6202 34.4648 22.68 34.4648C22.7099 34.4648 23.0585 34.5645 23.4669 34.684ZM34.663 36.1582C35.3503 36.218 36.0575 36.2877 36.2368 36.3176L36.5656 36.3674L36.3265 36.5566C35.9679 36.8355 35.9081 37.2041 36.1472 37.6025L36.3365 37.9312L36.0277 37.8914C35.8484 37.8715 35.0714 37.7818 34.2845 37.7121C33.4976 37.6324 32.8402 37.5527 32.8103 37.5229C32.7804 37.5029 32.7904 37.1344 32.8302 36.716C32.8999 35.959 32.8999 35.949 33.1589 35.9988C33.2984 36.0287 33.9757 36.0984 34.663 36.1582ZM40.799 36.7857C40.8089 36.7957 40.789 37.1443 40.7591 37.5527L40.6894 38.2998L39.9423 38.2699C39.0857 38.2301 39.0857 38.2301 37.9601 37.1742L37.1333 36.3973L38.9562 36.5766C39.9622 36.6762 40.789 36.7758 40.799 36.7857ZM36.0376 39.4852C38.2888 39.7242 38.3585 39.7342 38.7271 40.023C39.4841 40.6307 39.4642 40.4613 39.0458 42.583C38.7868 43.9277 38.6374 44.4855 38.5378 44.5055C38.3286 44.5453 33.5673 44.0572 33.4976 43.9975C33.4179 43.9178 33.5773 39.2461 33.657 39.2461C33.6868 39.2461 34.7626 39.3557 36.0376 39.4852ZM22.7896 40.302C23.0685 40.3916 23.3075 40.4812 23.3075 40.5211C23.3075 40.8498 22.9191 41.8061 22.67 42.0949C22.3812 42.4236 22.3413 42.4436 22.0624 42.334C21.9031 42.2742 21.3851 42.1148 20.9169 41.9953C20.0802 41.7762 20.0702 41.7662 19.9806 41.3977C19.8909 41.049 19.9806 40.4314 20.2296 39.774L20.3093 39.5648L21.2855 39.8537C21.8234 40.0131 22.5007 40.2223 22.7896 40.302ZM19.6718 43.3301C20.2197 43.4496 21.0165 43.6588 21.4449 43.7982L22.2318 44.0572L21.0962 44.615C19.7415 45.2824 18.2673 46.2387 17.1816 47.1451L16.3847 47.8125H10.2587L4.13275 47.8025L4.89974 47.0754C6.66282 45.392 8.94388 44.1469 11.4042 43.5293C13.0777 43.101 13.755 43.0412 16.3349 43.0811C18.2673 43.1109 18.8451 43.1508 19.6718 43.3301ZM31.874 44.3162C31.874 44.9338 32.0034 45.2725 32.2824 45.4219C32.4019 45.4916 34.0654 45.7008 35.9779 45.89C39.4642 46.2387 39.4642 46.2387 39.7331 46.0494C39.9025 45.9199 40.032 45.6809 40.1116 45.3721C40.1814 45.1131 40.2511 44.874 40.281 44.8441C40.3806 44.7545 42.4724 45.5314 43.5781 46.0693C44.1857 46.3682 45.0722 46.8662 45.5603 47.185L46.4368 47.7627L39.5538 47.7926C35.7687 47.8025 29.573 47.8025 25.7878 47.7926L18.9148 47.7627L19.6917 47.2547C22.939 45.143 26.9931 43.9377 31.107 43.848L31.874 43.8281V44.3162Z" fill="black"/>
<path id="Vector_8" d="M30.5303 10.6084C30.3709 10.7578 30.2812 10.967 30.2812 11.1563C30.2812 11.3455 30.3709 11.5547 30.5303 11.7041C30.7594 11.9432 30.8391 11.9531 31.875 11.9531C32.9109 11.9531 32.9906 11.9432 33.2197 11.7041C33.3791 11.5547 33.4687 11.3455 33.4687 11.1563C33.4687 10.967 33.3791 10.7578 33.2197 10.6084C32.9906 10.3693 32.9109 10.3594 31.875 10.3594C30.8391 10.3594 30.7594 10.3693 30.5303 10.6084Z" fill="black"/>
<path id="Vector_9" d="M46.4678 10.6084C46.3084 10.7578 46.2188 10.967 46.2188 11.1563C46.2188 11.3455 46.3084 11.5547 46.4678 11.7041C46.6969 11.9432 46.7766 11.9531 47.8125 11.9531C48.8484 11.9531 48.9281 11.9432 49.1572 11.7041C49.3166 11.5547 49.4062 11.3455 49.4062 11.1563C49.4062 10.967 49.3166 10.7578 49.1572 10.6084C48.9281 10.3693 48.8484 10.3594 47.8125 10.3594C46.7766 10.3594 46.6969 10.3693 46.4678 10.6084Z" fill="black"/>
<path id="Vector_10" d="M44.3736 15.6884C43.9154 16.1366 44.015 16.4654 44.9015 17.3519C45.7881 18.2384 46.1168 18.338 46.565 17.8798C47.0232 17.4316 46.9236 17.1029 46.0371 16.2163C45.1506 15.3298 44.8218 15.2302 44.3736 15.6884Z" fill="black"/>
<path id="Vector_11" d="M39.2959 17.7803C39.0568 18.0094 39.0469 18.0891 39.0469 19.125C39.0469 20.1609 39.0568 20.2406 39.2959 20.4697C39.4453 20.6291 39.6545 20.7188 39.8437 20.7188C40.033 20.7188 40.2422 20.6291 40.3916 20.4697C40.6307 20.2406 40.6406 20.1609 40.6406 19.125C40.6406 18.0891 40.6307 18.0094 40.3916 17.7803C40.2422 17.6209 40.033 17.5313 39.8437 17.5313C39.6545 17.5313 39.4453 17.6209 39.2959 17.7803Z" fill="black"/>
</g>
</g>
</svg>
