<svg width="32" height="32" viewBox="0 0 32 32" fill="none" xmlns="http://www.w3.org/2000/svg">
<g id="toothbrush-paste">
<path id="Vector" d="M23.8134 2L17.2134 8.57333L20.0401 11.4L21.4534 10L20.0401 8.57333L23.8134 4.8L25.2267 6.21333L26.6667 4.8M28.5334 4.8L20.7467 12.5867L17.9067 13.5333L4.00008 27.4267L5.90674 29.3333L13.4401 21.7733L19.1067 27.4267L24.7601 21.7733L19.1067 16.12L19.3334 15.8667L22.1734 14.92L28.5334 8.57333C29.5734 7.53333 29.5734 5.84 28.5334 4.8ZM8.73341 5.74667L3.08008 11.4L9.68008 18L15.3334 12.3467M24.2934 24.1333L21.4534 26.96L23.3334 28.84L26.1734 26L24.2934 24.1333Z" fill="black"/>
</g>
</svg>
