<svg width="60" height="60" viewBox="0 0 60 60" fill="none" xmlns="http://www.w3.org/2000/svg">
<g id="uploadImage 1" clip-path="url(#clip0_765_29259)">
<g id="Group">
<path id="Vector" opacity="0.967" fill-rule="evenodd" clip-rule="evenodd" d="M4.98047 -0.0585938C21.6211 -0.0585938 38.2617 -0.0585938 54.9023 -0.0585938C57.5586 0.644531 59.2383 2.32421 59.9414 4.98047C59.9414 21.6211 59.9414 38.2617 59.9414 54.9023C59.2393 57.5576 57.5596 59.2372 54.9023 59.9414C38.2617 59.9414 21.6211 59.9414 4.98047 59.9414C2.32111 59.2351 0.641423 57.5555 -0.0585938 54.9023C-0.0585938 38.2617 -0.0585938 21.6211 -0.0585938 4.98047C0.644531 2.32421 2.32421 0.644531 4.98047 -0.0585938ZM5.44922 2.51953C21.7774 2.5 38.1055 2.51953 54.4336 2.57812C55.9375 2.98828 56.8945 3.94532 57.3047 5.44922C57.3829 21.7773 57.3829 38.1055 57.3047 54.4336C56.8945 55.9375 55.9375 56.8945 54.4336 57.3047C38.1055 57.3829 21.7773 57.3829 5.44922 57.3047C3.94532 56.8945 2.98828 55.9375 2.57812 54.4336C2.5 38.1055 2.5 21.7773 2.57812 5.44922C3.00971 3.94352 3.96675 2.96696 5.44922 2.51953Z" fill="black"/>
</g>
<g id="Group_2">
<path id="Vector_2" opacity="0.966" fill-rule="evenodd" clip-rule="evenodd" d="M29.3545 14.9413C29.7471 14.922 30.1377 14.9415 30.5264 14.9999C30.864 15.1465 31.0788 15.4003 31.1709 15.7616C31.2295 20.0583 31.2491 24.3552 31.2295 28.6522C35.5266 28.6327 39.8235 28.6522 44.1202 28.7108C44.73 28.895 45.0034 29.3052 44.9405 29.9413C45.0034 30.5774 44.73 30.9875 44.1202 31.1718C39.8235 31.2304 35.5266 31.2499 31.2295 31.2304C31.2491 35.5274 31.2295 39.8243 31.1709 44.121C30.9867 44.7308 30.5766 45.0042 29.9405 44.9413C29.3044 45.0042 28.8942 44.7308 28.71 44.121C28.6514 39.8243 28.6318 35.5274 28.6514 31.2304C24.3544 31.2499 20.0575 31.2304 15.7608 31.1718C15.1509 30.9875 14.8775 30.5774 14.9405 29.9413C14.8775 29.3052 15.1509 28.895 15.7608 28.7108C20.0575 28.6522 24.3544 28.6327 28.6514 28.6522C28.6318 24.3552 28.6514 20.0583 28.71 15.7616C28.8233 15.3959 29.0381 15.1225 29.3545 14.9413Z" fill="black"/>
</g>
</g>
<defs>
<clipPath id="clip0_765_29259">
<rect width="60" height="60" fill="white"/>
</clipPath>
</defs>
</svg>
