<svg width="51" height="51" viewBox="0 0 51 51" fill="none" xmlns="http://www.w3.org/2000/svg">
<g clip-path="url(#clip0_1233_17500)">
<path fill-rule="evenodd" clip-rule="evenodd" d="M22.354 4.46479C19.6936 1.1784 14.6815 1.17841 12.021 4.46479L0.219594 19.0431C-0.297791 19.6822 0.157079 20.6356 0.979373 20.6356H23.4483C24.0882 21.8076 24.8431 22.5962 25.7011 23.1732C26.6268 23.7959 27.6454 24.15 28.6283 24.4917L28.6613 24.5032C29.2401 24.7044 30.2366 25.2578 30.8926 25.9034C31.2239 26.2294 31.3933 26.5063 31.4428 26.7025C31.4753 26.8313 31.4716 26.9477 31.2977 27.1217C30.8766 27.5429 30.2771 27.8621 29.3454 28.2036C28.7969 28.4047 28.1918 28.5947 27.4868 28.8159L27.4867 28.816L27.4866 28.816L27.4864 28.8161C26.9645 28.9799 26.388 29.1609 25.7392 29.3762C25.4967 29.4567 25.2385 29.5345 24.9595 29.6184L24.959 29.6186L24.9589 29.6186C23.588 30.0312 21.7152 30.5949 18.7395 32.3805C16.0025 34.0227 14.907 36.7885 15.4093 39.8159C15.9041 42.7981 17.9307 45.9997 21.3256 48.7649C21.4982 48.9055 21.7162 48.9847 21.9431 48.9847H44.0361C44.9263 48.9847 45.3855 47.8538 44.645 47.2601C44.2019 46.9049 43.517 46.3733 42.743 45.7726L42.7428 45.7725L42.7414 45.7714C42.0428 45.2292 41.2716 44.6307 40.5403 44.0547C39.7609 43.4409 39.02 42.8477 38.4359 42.3573C38.1435 42.1119 37.8957 41.8965 37.7041 41.7199C37.5011 41.5328 37.3963 41.4207 37.3609 41.3743L37.3133 41.3119L37.2542 41.2602C36.2938 40.4199 35.4218 39.5613 34.7649 38.7059C34.103 37.8438 33.7039 37.0416 33.606 36.3114C33.5135 35.6213 33.6796 34.9289 34.2982 34.21C34.941 33.4629 36.086 32.6759 37.9692 31.9121C39.8923 31.1321 41.13 30.2286 41.802 29.2164C42.4999 28.1651 42.5299 27.0839 42.2185 26.1336C41.9184 25.2178 41.309 24.4348 40.7308 23.8558C40.151 23.2752 39.5415 22.8391 39.1549 22.6307C37.6788 21.8349 36.1567 21.1886 34.6086 20.6356H35.4447L35.4447 20.6355H50.0206C50.8373 20.6355 51.2939 19.6936 50.7881 19.0525L44.0731 10.5419C41.4117 7.16892 36.2976 7.16892 33.6362 10.5419L30.4957 14.5222L22.354 4.46479ZM31.5047 15.7685L34.1785 19.0715H48.8108L42.8452 11.5107C40.81 8.93138 36.8993 8.93138 34.8641 11.5108L31.5047 15.7685ZM13.2367 5.44889C15.2711 2.93577 19.104 2.93576 21.1384 5.44888L32.1663 19.0716H2.20878L13.2367 5.44889ZM25.294 20.6364C25.693 21.1822 26.1214 21.571 26.5739 21.8754C27.3142 22.3733 28.1493 22.6693 29.1749 23.0259C29.9483 23.2947 31.151 23.9633 31.9897 24.7886C32.4058 25.1981 32.8076 25.7189 32.9593 26.3198C33.128 26.9882 32.9627 27.6684 32.4038 28.2275C31.7374 28.8941 30.8766 29.3081 29.8838 29.6721C29.3132 29.8813 28.6413 30.0926 27.8958 30.3271C27.3741 30.4912 26.8163 30.6667 26.2319 30.8606C25.967 30.9486 25.6937 31.031 25.4049 31.1181L25.4047 31.1182C24.0469 31.5277 22.3452 32.0409 19.5442 33.7216C17.4072 35.0039 16.5453 37.1071 16.9523 39.5599C17.3597 42.0159 19.0574 44.8507 22.1534 47.4207H42.3155L41.8001 47.0206C41.1043 46.4807 40.3288 45.879 39.5726 45.2835C38.7897 44.6669 38.0334 44.0616 37.4302 43.5552C37.1289 43.3022 36.8606 43.0696 36.644 42.8699C36.4668 42.7066 36.2971 42.5408 36.1728 42.3922C35.1966 41.5347 34.2582 40.6142 33.5244 39.6584C32.7827 38.6925 32.2052 37.6333 32.0559 36.5192C31.9011 35.3651 32.2172 34.2304 33.1126 33.1898C33.9838 32.1774 35.3846 31.2726 37.3814 30.4627C39.1645 29.7395 40.0738 28.9917 40.4989 28.3514C40.898 27.7503 40.9149 27.1779 40.7323 26.6207C40.5384 26.029 40.1128 25.4504 39.6241 24.961C39.137 24.4732 38.6478 24.1341 38.4128 24.0074C35.939 22.6739 33.3 21.7693 30.5521 20.9989L30.5468 20.9974L30.5467 20.9973L30.5467 20.9973C30.1133 20.8758 29.6891 20.7569 29.2894 20.6364H25.294Z" fill="black"/>
<path d="M10.084 8.22693C10.084 8.47632 10.3464 8.9751 11.3959 8.9751C12.4455 8.9751 12.7079 8.47632 12.7079 8.22693C12.7808 7.97754 13.0627 7.47852 14.1123 7.47852C15.1619 7.47852 15.5504 7.97754 15.5504 8.22693" stroke="black" stroke-width="1.6" stroke-linecap="round"/>
<path d="M15.5488 8.22656C15.5488 8.47595 15.8112 8.97473 16.8608 8.97473C17.9103 8.97473 18.1727 8.47595 18.1727 8.22656" stroke="black" stroke-width="1.6" stroke-linecap="round"/>
<path d="M15.5527 8.22693C15.5527 8.47632 15.8151 8.9751 16.8647 8.9751C17.9142 8.9751 18.1766 8.47632 18.1766 8.22693C18.2495 7.97754 18.5315 7.47852 19.581 7.47852C20.6306 7.47852 21.0192 7.97754 21.0192 8.22693" stroke="black" stroke-width="1.6" stroke-linecap="round"/>
<path d="M21.0176 8.22656C21.0176 8.47595 21.28 8.97473 22.3295 8.97473C23.3791 8.97473 23.6415 8.47595 23.6415 8.22656" stroke="black" stroke-width="1.6" stroke-linecap="round"/>
<path d="M32.0469 13.9926C32.0469 14.2419 32.3093 14.7407 33.3588 14.7407C34.4084 14.7407 34.6708 14.2419 34.6708 13.9926C34.7436 13.7432 35.0256 13.2441 36.0752 13.2441C37.1247 13.2441 37.5133 13.7432 37.5133 13.9926" stroke="black" stroke-width="1.6" stroke-linecap="round"/>
<path d="M37.5117 13.9922C37.5117 14.2416 37.7741 14.7404 38.8237 14.7404C39.8732 14.7404 40.1356 14.2416 40.1356 13.9922" stroke="black" stroke-width="1.6" stroke-linecap="round"/>
<path d="M37.5156 13.9926C37.5156 14.2419 37.778 14.7407 38.8276 14.7407C39.8771 14.7407 40.1395 14.2419 40.1395 13.9926C40.2124 13.7432 40.4944 13.2441 41.5439 13.2441C42.5935 13.2441 42.982 13.7432 42.982 13.9926" stroke="black" stroke-width="1.6" stroke-linecap="round"/>
<path d="M42.9805 13.9922C42.9805 14.2416 43.2429 14.7404 44.2924 14.7404C45.342 14.7404 45.6044 14.2416 45.6044 13.9922" stroke="black" stroke-width="1.6" stroke-linecap="round"/>
</g>
<defs>
<clipPath id="clip0_1233_17500">
<rect width="51" height="51" fill="white"/>
</clipPath>
</defs>
</svg>
