<svg width="51" height="51" viewBox="0 0 51 51" fill="none" xmlns="http://www.w3.org/2000/svg">
<g id="weekend 1" clip-path="url(#clip0_697_29110)">
<g id="Group">
<path id="Vector" opacity="0.981" fill-rule="evenodd" clip-rule="evenodd" d="M5.52734 -0.0498047C6.58985 -0.0498047 7.65234 -0.0498047 8.71484 -0.0498047C9.31745 0.171777 9.69929 0.603418 9.86035 1.24512C9.91015 2.40675 9.92674 3.56886 9.91016 4.73145C11.4047 4.71485 12.8988 4.73146 14.3926 4.78125C14.9238 5.2461 14.9238 5.71093 14.3926 6.17578C12.8988 6.22558 11.4047 6.24218 9.91016 6.22559C9.92674 7.38817 9.91015 8.55028 9.86035 9.71191C9.71735 10.3464 9.33552 10.7615 8.71484 10.957C7.65234 11.0235 6.58985 11.0235 5.52734 10.957C4.90667 10.7615 4.52484 10.3464 4.38184 9.71191C4.33204 8.55028 4.31545 7.38817 4.33203 6.22559C3.62848 6.19692 2.93121 6.24672 2.24023 6.375C1.95801 6.52441 1.74219 6.74024 1.59277 7.02246C1.44829 9.44192 1.39849 11.8658 1.44336 14.2939C17.4473 14.2939 33.4511 14.2939 49.4551 14.2939C49.4717 12.0359 49.4551 9.77807 49.4053 7.52051C49.3223 6.77344 48.9072 6.3584 48.1602 6.27539C46.9653 6.2256 45.77 6.209 44.5742 6.22559C44.5909 7.38817 44.5742 8.55028 44.5244 9.71191C44.3814 10.3464 43.9996 10.7615 43.3789 10.957C42.3164 11.0235 41.2539 11.0235 40.1914 10.957C39.5707 10.7615 39.1889 10.3464 39.0459 9.71191C38.9961 8.55028 38.9795 7.38817 38.9961 6.22559C31.6913 6.24219 24.3867 6.22559 17.082 6.17578C16.7966 6.03704 16.6638 5.80462 16.6836 5.47852C16.6638 5.15241 16.7966 4.92 17.082 4.78125C24.3867 4.73145 31.6913 4.71484 38.9961 4.73145C38.9795 3.56886 38.9961 2.40675 39.0459 1.24512C39.207 0.603418 39.5888 0.171777 40.1914 -0.0498047C41.2539 -0.0498047 42.3164 -0.0498047 43.3789 -0.0498047C43.9815 0.171777 44.3633 0.603418 44.5244 1.24512C44.5742 2.40675 44.5909 3.56886 44.5742 4.73145C46.0355 4.71485 47.4965 4.73146 48.957 4.78125C49.9382 5.11508 50.6023 5.76254 50.9492 6.72363C50.9492 11.1396 50.9492 15.5557 50.9492 19.9717C50.5988 20.39 50.1672 20.473 49.6543 20.2207C49.5919 20.146 49.5421 20.0629 49.5049 19.9717C49.4551 18.5775 49.4384 17.183 49.4551 15.7881C33.4511 15.7881 17.4473 15.7881 1.44336 15.7881C1.45996 23.7901 1.44336 31.792 1.39355 39.7939C0.912505 40.3187 0.43106 40.3187 -0.0507812 39.7939C-0.0507812 28.7705 -0.0507812 17.7471 -0.0507812 6.72363C0.247594 5.87691 0.812047 5.26265 1.64258 4.88086C2.53087 4.74004 3.42736 4.69024 4.33203 4.73145C4.31545 3.56886 4.33204 2.40675 4.38184 1.24512C4.54289 0.603418 4.92474 0.171777 5.52734 -0.0498047ZM6.125 1.44434C6.78989 1.42777 7.45396 1.44438 8.11719 1.49414C8.16699 1.54395 8.2168 1.59375 8.2666 1.64355C8.33301 4.2002 8.33301 6.75683 8.2666 9.31348C8.2168 9.36328 8.16699 9.41309 8.11719 9.46289C7.41489 9.54226 6.71763 9.52565 6.02539 9.41309C5.99219 8.10156 5.95898 6.79004 5.92578 5.47852C5.92756 4.11166 5.99397 2.76693 6.125 1.44434ZM40.7891 1.44434C41.454 1.42777 42.1181 1.44438 42.7812 1.49414C42.8311 1.54395 42.8809 1.59375 42.9307 1.64355C42.9971 4.2002 42.9971 6.75683 42.9307 9.31348C42.8809 9.36328 42.8311 9.41309 42.7812 9.46289C42.079 9.54226 41.3817 9.52565 40.6895 9.41309C40.6563 8.10156 40.623 6.79004 40.5898 5.47852C40.5916 4.11166 40.6581 2.76693 40.7891 1.44434Z" fill="black"/>
</g>
<g id="Group_2">
<path id="Vector_2" opacity="0.982" fill-rule="evenodd" clip-rule="evenodd" d="M50.9492 22.6611C50.9492 28.6376 50.9492 34.6142 50.9492 40.5908C50.7961 40.9294 50.6135 41.2614 50.4014 41.5869C47.4629 44.5253 44.5244 47.4638 41.5859 50.4023C41.2605 50.6145 40.9285 50.797 40.5898 50.9501C27.7071 50.9501 14.8242 50.9501 1.94141 50.9501C0.978515 50.5849 0.314453 49.9209 -0.0507812 48.958C-0.0507812 46.7997 -0.0507812 44.6416 -0.0507812 42.4833C0.299644 42.065 0.731284 41.982 1.24414 42.2343C1.30648 42.309 1.35628 42.3921 1.39355 42.4833C1.42675 44.3759 1.45996 46.2685 1.49316 48.1611C1.57617 48.9081 1.99121 49.3232 2.73828 49.4062C15.0898 49.4726 27.4414 49.4726 39.793 49.4062C39.8754 46.9066 39.9252 44.3997 39.9424 41.8857C40.2578 40.9062 40.9053 40.2588 41.8848 39.9433C44.3988 39.9262 46.9057 39.8764 49.4053 39.7939C49.4384 34.083 49.4717 28.372 49.5049 22.6611C49.9853 22.1403 50.4667 22.1403 50.9492 22.6611ZM42.6816 41.3876C44.5413 41.371 46.4007 41.3876 48.2598 41.4374C45.9854 43.7118 43.7109 45.9863 41.4365 48.2607C41.3701 46.4013 41.3701 44.542 41.4365 42.6826C41.5373 41.9345 41.9524 41.5028 42.6816 41.3876Z" fill="black"/>
</g>
<g id="Group_3">
<path id="Vector_3" opacity="0.93" fill-rule="evenodd" clip-rule="evenodd" d="M5.82715 26.048C6.18792 25.9906 6.48675 26.0902 6.72363 26.3468C6.99606 27.2602 7.21189 28.19 7.37109 29.1358C7.72817 28.2971 8.027 27.4339 8.26758 26.546C8.65525 25.9724 9.12009 25.9059 9.66211 26.3468C9.98066 27.2693 10.2795 28.1989 10.5586 29.1358C10.8026 28.2159 11.0351 27.2862 11.2559 26.3468C11.6875 25.9483 12.1192 25.9483 12.5508 26.3468C12.6985 26.6657 12.7318 26.9978 12.6504 27.3429C12.3184 29.0031 11.9863 30.6632 11.6543 32.3233C11.4411 32.9197 11.0261 33.1356 10.4092 32.9708C10.2313 32.8926 10.0819 32.7765 9.96094 32.6222C9.66069 31.6534 9.34527 30.6904 9.01465 29.7335C8.67614 30.7324 8.3275 31.7285 7.96875 32.7218C7.43929 33.1481 6.94124 33.1149 6.47461 32.6222C5.95836 30.587 5.59313 28.5284 5.37891 26.4464C5.51804 26.29 5.66745 26.1571 5.82715 26.048Z" fill="black"/>
</g>
<g id="Group_4">
<path id="Vector_4" opacity="0.923" fill-rule="evenodd" clip-rule="evenodd" d="M14.1932 26.0479C15.1567 26.0314 16.1196 26.0479 17.0819 26.0978C17.6556 26.4854 17.722 26.9503 17.2811 27.4923C16.6287 27.6337 15.9647 27.6835 15.2889 27.6417C15.2889 28.007 15.2889 28.3721 15.2889 28.7374C15.8213 28.7209 16.3525 28.7375 16.8827 28.7872C17.3532 29.0298 17.5027 29.4117 17.3309 29.9327C17.21 30.087 17.0606 30.2032 16.8827 30.2813C16.3525 30.331 15.8213 30.3477 15.2889 30.3311C15.2889 30.6964 15.2889 31.0616 15.2889 31.4269C15.8875 31.4103 16.4852 31.427 17.0819 31.4767C17.5163 31.6984 17.6657 32.047 17.5302 32.5226C17.4472 32.7384 17.2978 32.8878 17.0819 32.9708C16.119 33.0372 15.1562 33.0372 14.1932 32.9708C14.0507 32.9245 13.9346 32.8414 13.8446 32.7218C13.682 30.6696 13.6489 28.611 13.745 26.546C13.8471 26.3281 13.9965 26.1621 14.1932 26.0479Z" fill="black"/>
</g>
<g id="Group_5">
<path id="Vector_5" opacity="0.928" fill-rule="evenodd" clip-rule="evenodd" d="M19.0768 26.0479C20.0402 26.0314 21.0032 26.0479 21.9655 26.0978C22.6277 26.591 22.6277 27.0891 21.9655 27.5919C21.3687 27.6416 20.7711 27.6582 20.1725 27.6417C20.1725 28.007 20.1725 28.3721 20.1725 28.7374C20.7048 28.7209 21.2361 28.7375 21.7663 28.7872C22.2678 29.0873 22.3841 29.5024 22.1149 30.0323C22.025 30.152 21.9088 30.235 21.7663 30.2813C21.2361 30.331 20.7048 30.3477 20.1725 30.3311C20.1725 30.6964 20.1725 31.0616 20.1725 31.4269C20.7711 31.4103 21.3687 31.427 21.9655 31.4767C22.6277 31.9699 22.6277 32.468 21.9655 32.9708C21.0026 33.0372 20.0397 33.0372 19.0768 32.9708C18.9343 32.9245 18.8181 32.8414 18.7282 32.7218C18.5645 30.6721 18.5314 28.6135 18.6286 26.546C18.7307 26.3281 18.8801 26.1621 19.0768 26.0479Z" fill="black"/>
</g>
<g id="Group_6">
<path id="Vector_6" opacity="0.929" fill-rule="evenodd" clip-rule="evenodd" d="M23.9551 26.0478C24.4802 25.9531 24.8289 26.1523 25.001 26.6455C25.0342 26.9775 25.0674 27.3095 25.1006 27.6415C25.6485 27.1601 26.1963 26.6786 26.7442 26.1972C27.6897 26.0467 28.0383 26.4286 27.7901 27.3427C27.0887 28.0608 26.3748 28.7581 25.6485 29.4345C26.3473 30.2165 27.0944 30.9469 27.8897 31.6259C28.2926 32.3475 28.0934 32.8124 27.292 33.0205C26.4501 32.5788 25.7197 31.9811 25.1006 31.2275C25.0674 31.6259 25.0342 32.0244 25.001 32.4228C24.5984 33.1372 24.1003 33.2036 23.5069 32.622C23.4404 30.5634 23.4404 28.5049 23.5069 26.4462C23.646 26.2898 23.7954 26.157 23.9551 26.0478Z" fill="black"/>
</g>
<g id="Group_7">
<path id="Vector_7" opacity="0.935" fill-rule="evenodd" clip-rule="evenodd" d="M29.5352 26.0479C30.5319 26.0314 31.528 26.0479 32.5235 26.0978C33.0097 26.5335 33.0429 26.9984 32.6231 27.4923C32.004 27.6333 31.3732 27.6831 30.7305 27.6417C30.7305 28.007 30.7305 28.3721 30.7305 28.7374C31.2628 28.7209 31.794 28.7375 32.3242 28.7872C32.9866 29.2809 32.9866 29.7789 32.3242 30.2813C31.794 30.331 31.2628 30.3477 30.7305 30.3311C30.7305 30.6964 30.7305 31.0616 30.7305 31.4269C31.329 31.4103 31.9267 31.427 32.5235 31.4767C32.8997 31.771 33.0158 32.1528 32.8721 32.6222C32.7512 32.7765 32.6018 32.8926 32.4239 32.9708C31.4942 33.0372 30.5644 33.0372 29.6348 32.9708C29.4569 32.8926 29.3075 32.7765 29.1865 32.6222C29.1201 30.5635 29.1201 28.505 29.1865 26.4464C29.3236 26.3264 29.4398 26.1936 29.5352 26.0479Z" fill="black"/>
</g>
<g id="Group_8">
<path id="Vector_8" opacity="0.929" fill-rule="evenodd" clip-rule="evenodd" d="M34.5156 26.0479C34.9589 26.0123 35.3075 26.1782 35.5615 26.546C36.2201 27.5697 36.9173 28.5658 37.6533 29.5343C37.6603 28.4646 37.7268 27.402 37.8526 26.3468C38.346 25.9307 38.8108 25.964 39.2471 26.4464C39.3135 28.505 39.3135 30.5635 39.2471 32.6222C38.8976 33.0319 38.4825 33.1148 38.002 32.8712C37.1885 31.7257 36.3751 30.5802 35.5615 29.4347C35.5284 30.4972 35.4951 31.5596 35.4619 32.6222C34.82 33.211 34.3219 33.1113 33.9678 32.3233C33.9014 30.4308 33.9014 28.5382 33.9678 26.6456C34.0695 26.3617 34.2521 26.1625 34.5156 26.0479Z" fill="black"/>
</g>
<g id="Group_9">
<path id="Vector_9" opacity="0.929" fill-rule="evenodd" clip-rule="evenodd" d="M40.791 26.0479C44.4511 25.6072 45.995 27.201 45.4229 30.8292C45.086 32.0294 44.3057 32.7433 43.0821 32.9708C42.3184 33.0372 41.5547 33.0372 40.791 32.9708C40.5693 32.8485 40.4199 32.6659 40.3428 32.4229C40.2764 30.4972 40.2764 28.5713 40.3428 26.6456C40.4025 26.3712 40.5519 26.172 40.791 26.0479ZM41.8867 27.6417C43.3057 27.4666 44.0029 28.0975 43.9785 29.5342C44.0071 30.9646 43.3099 31.5955 41.8867 31.4268C41.8867 30.1651 41.8867 28.9034 41.8867 27.6417Z" fill="black"/>
</g>
</g>
<defs>
<clipPath id="clip0_697_29110">
<rect width="51" height="51" fill="white"/>
</clipPath>
</defs>
</svg>
