<svg width="51" height="51" viewBox="0 0 51 51" fill="none" xmlns="http://www.w3.org/2000/svg">
<path id="Vector" d="M25.5 51L34 37.4C31.6389 35.275 28.6875 34 25.5 34C22.3125 34 19.3611 35.275 17 37.4L25.5 51ZM25.5 0C15.9375 0 7.10694 3.79667 0 10.2L4.25 17C10.1528 11.6733 17.5194 8.5 25.5 8.5C33.4806 8.5 40.8472 11.6733 46.75 17L51 10.2C43.8931 3.79667 35.0625 0 25.5 0ZM25.5 17C19.125 17 13.2458 19.5217 8.5 23.8L12.75 30.6C16.2917 27.3983 20.7069 25.5 25.5 25.5C30.2931 25.5 34.7083 27.3983 38.25 30.6L42.5 23.8C37.7542 19.5217 31.875 17 25.5 17Z" fill="black"/>
</svg>
