<svg width="51" height="51" viewBox="0 0 51 51" fill="none" xmlns="http://www.w3.org/2000/svg">
<g id="winter 1">
<g id="Group">
<path id="Vector" d="M30.9657 1.13538C29.3122 1.72308 28.854 3.80492 30.139 4.86077C31.6929 6.14574 33.8644 5.32894 33.8644 3.45628C33.8644 2.76898 33.6651 2.30081 33.1571 1.743C32.5495 1.08558 31.7327 0.856478 30.9657 1.13538ZM32.2806 2.36058C32.8882 2.87855 33.0276 3.58577 32.6093 4.07386C32.2706 4.48226 31.8224 4.56195 31.2646 4.30296C30.6669 4.04398 30.4478 3.77503 30.4478 3.30687C30.4478 2.31077 31.5435 1.743 32.2806 2.36058Z" fill="black"/>
<path id="Vector_2" d="M8.96186 3.17774C8.43393 3.34708 8.07534 3.5961 7.63705 4.08419C6.23256 5.64805 6.87006 7.78966 8.88217 8.26778C11.0636 8.79571 12.6872 6.72383 11.7509 4.60216C11.4919 4.03438 11.1333 3.63594 10.6154 3.367C10.1871 3.14786 9.34037 3.04825 8.96186 3.17774ZM10.2667 4.4129C11.1931 5.03048 11.1931 6.64415 10.2667 7.12227C9.5894 7.46094 8.51362 7.21192 8.15502 6.63419C7.92592 6.26563 7.906 5.57833 8.10522 5.19981C8.26459 4.90098 8.83237 4.33321 9.06147 4.25352C9.4101 4.12403 9.94799 4.19376 10.2667 4.4129Z" fill="black"/>
<path id="Vector_3" d="M41.2364 4.8312C39.8319 5.27944 39.1446 6.923 39.7921 8.23784C40.6288 9.90132 43.0891 10.0208 44.0653 8.43706C45.2108 6.58433 43.3083 4.16382 41.2364 4.8312ZM42.6708 5.96675C44.0554 6.82339 43.2087 8.8853 41.6448 8.46694C41.1169 8.32749 40.7882 8.0187 40.6388 7.50073C40.5292 7.1521 40.5391 7.04253 40.7184 6.64409C41.077 5.84722 41.9636 5.53843 42.6708 5.96675Z" fill="black"/>
<path id="Vector_4" d="M25.1784 5.23931C23.3754 5.66763 22.0506 7.12192 21.9311 8.77544C21.8614 9.79146 22.0905 10.3493 22.9073 11.176C23.5249 11.7936 23.5846 11.9032 23.7042 12.4809C23.8934 13.4272 23.8536 15.0309 23.6245 16.3856C23.5049 17.043 23.3456 18.0889 23.2659 18.7165C23.1862 19.334 23.1065 19.862 23.0866 19.8819C23.0667 19.8918 22.8575 19.6627 22.6284 19.3739C22.3993 19.075 21.9311 18.6268 21.5924 18.3877C20.5067 17.6208 20.1381 17.2422 19.7895 16.545C19.4907 15.9274 19.4708 15.8178 19.4309 14.6125C19.401 13.3475 19.401 13.3375 19.152 13.2379C18.9628 13.1682 18.8333 13.1782 18.6639 13.2877C18.2356 13.5766 18.2157 15.2301 18.634 16.4653C18.7436 16.794 18.8133 17.0729 18.7934 17.0928C18.7735 17.1127 18.4448 16.9833 18.0663 16.784C16.6219 16.0668 15.845 15.0508 15.7753 13.8157C15.7454 13.3774 15.6856 13.1583 15.5661 13.0686C15.327 12.8993 15.0979 12.9192 14.8887 13.1483C14.7393 13.3077 14.7194 13.467 14.7592 14.0846C14.8788 15.9672 16.2733 17.3418 19.0026 18.2981C20.3772 18.7762 20.7557 18.9754 21.3833 19.5532C21.9311 20.0512 22.3395 20.7086 22.6184 21.5155C22.8176 22.1032 22.8376 22.392 22.8674 24.5536C22.8874 25.8684 22.9272 27.1334 22.9571 27.3625C22.9969 27.6016 23.0069 27.7909 22.987 27.7909C22.9571 27.7909 22.6284 27.6315 22.2399 27.4422C21.8514 27.253 21.0844 26.9741 20.5465 26.8346C19.2417 26.486 18.1958 26.0676 17.5284 25.6194C17.0104 25.2708 16.5323 24.7129 16.5323 24.454C16.5323 24.3842 16.8012 24.1651 17.12 23.9659C17.7774 23.5674 18.4049 22.9 18.6838 22.3323C18.9428 21.8043 18.9926 20.629 18.7835 20.0711C18.2057 18.577 16.9008 17.9295 14.7294 18.0491C13.1456 18.1387 11.8805 18.7364 10.6553 19.9616C9.87838 20.7286 9.2608 21.8043 9.06158 22.7208C8.86236 23.6172 8.97193 24.8624 9.30064 25.5297C9.67916 26.3067 10.3864 26.9243 11.1335 27.1334C11.5219 27.243 11.8506 27.4124 12.0997 27.6514C13.0858 28.5778 14.2811 28.8268 17.1299 28.6874L17.9766 28.6475L19.5305 29.4045C20.8753 30.0719 21.1542 30.2413 21.6024 30.7293C22.21 31.3967 22.718 32.4227 22.9969 33.5184C23.2061 34.385 23.4053 35.67 23.4053 36.2278C23.4053 36.5665 23.3954 36.5665 23.0866 36.5067C21.8215 36.2278 20.2975 35.3612 19.411 34.4049C19.1122 34.0961 18.7336 33.6877 18.5643 33.5084C18.2157 33.1299 17.877 33.1399 17.7077 33.5284C17.5682 33.8172 17.9069 34.9428 18.4249 35.9389L18.8034 36.6561L18.5643 36.7159C18.2356 36.8055 17.1897 36.676 16.5422 36.4668C16.0641 36.3274 15.9645 36.2477 15.7553 35.8592C15.4167 35.2217 15.4864 34.5444 15.9944 33.5782C16.5622 32.4924 16.5821 31.3868 16.0243 30.7991C15.7653 30.5102 15.3868 30.5202 15.1876 30.809C15.0481 31.0282 15.0581 31.0879 15.2473 31.5163C15.4963 32.084 15.4465 32.353 14.9784 33.2694C14.6397 33.9069 14.3708 34.9727 14.4903 35.162C14.6895 35.4807 14.2911 35.1321 13.4045 34.2256C12.3487 33.1399 11.4422 32.4725 11.0139 32.4725C10.6952 32.4725 10.3963 32.8809 10.5358 33.1299C10.5856 33.2196 10.9342 33.4985 11.3028 33.7575C11.6813 34.0065 12.0001 34.2655 12.02 34.3352C12.0797 34.5045 11.0338 34.6938 10.5258 34.6141C10.0378 34.5245 9.50982 34.2754 9.0815 33.9168C8.70299 33.5981 8.41412 33.5981 8.20494 33.9168C8.06549 34.136 8.06549 34.1758 8.2149 34.4448C8.43404 34.8133 9.21099 35.3313 9.80865 35.5206C10.4262 35.6999 11.3924 35.6999 12.01 35.5106C12.777 35.2815 12.9065 35.3114 13.5739 35.919C14.321 36.5864 15.2573 37.1641 16.1338 37.4729C16.6817 37.6622 16.9905 37.702 18.2057 37.702L19.6301 37.712L20.0983 38.1702C20.7657 38.8077 21.2637 39.1663 22.0606 39.5946C22.9471 40.0727 23.1862 40.2918 23.4153 40.7999C23.8237 41.7063 24.0428 45.2225 23.7938 46.8461C23.6544 47.7526 23.5249 48.0016 22.9073 48.5295C22.3993 48.9678 22.2698 49.3264 22.5288 49.5854C22.6981 49.7547 29.8899 49.7547 30.0592 49.5854C30.2585 49.3862 30.1987 49.1073 29.6907 48.0713C29.0233 46.6967 28.844 45.9596 28.844 44.4256C28.834 42.8817 28.9735 42.2741 29.5313 41.4374C30.0094 40.7202 30.6469 40.1823 31.4737 39.8038C31.9717 39.5747 32.1411 39.5448 33.2965 39.5448C35.2489 39.5448 36.5338 39.226 37.6694 38.4491L38.2272 38.0606L38.7352 38.2299C40.1696 38.6881 41.7335 37.5227 41.7335 35.9987C41.7335 33.8471 39.1735 32.8211 37.6794 34.385C37.0419 35.0424 36.8626 36.0883 37.251 36.925L37.4403 37.3434L37.1514 37.5526C36.6036 37.9411 35.8067 38.2399 34.8803 38.3993C34.3624 38.4889 33.9241 38.5487 33.9141 38.5288C33.8942 38.5088 34.1731 38.1702 34.5516 37.7817C35.5378 36.7358 36.0756 35.66 36.2649 34.3252C36.3446 33.7575 36.3346 33.5981 36.2051 33.4088C35.9262 32.9905 35.6473 33.1 34.9102 33.9168C34.3126 34.5842 32.7288 35.9588 32.5594 35.9588C32.5196 35.9588 32.5495 35.7497 32.6292 35.4907C32.7088 35.2417 32.7686 34.8034 32.7686 34.5245C32.7686 34.0165 32.7686 34.0165 33.2368 33.7674C34.3026 33.2096 35.2688 31.8749 35.6174 30.5002C35.7569 29.9225 35.7569 29.8528 35.6174 29.6237C35.4282 29.3448 35.0596 29.3049 34.8405 29.554C34.7508 29.6536 34.6512 29.9225 34.6114 30.1417C34.462 31.068 33.5954 32.3829 32.8782 32.7614C32.6889 32.8709 32.669 32.851 32.669 32.6219C32.669 32.4825 32.7387 32.0243 32.8284 31.6159C32.9977 30.7493 32.9579 30.5102 32.5993 30.4206C31.912 30.2413 31.7426 30.809 31.7227 33.2196C31.7028 34.903 31.6829 35.1719 31.4936 35.5803C31.2645 36.1083 30.5374 36.8752 30.109 37.0346C29.9596 37.0944 29.611 37.2139 29.342 37.3135C29.0731 37.4131 28.585 37.6622 28.2663 37.8713C27.9376 38.0905 27.6487 38.2399 27.6288 38.22C27.5192 38.1104 27.3797 35.1221 27.4295 33.9866C27.5192 32.0741 27.6088 31.9346 29.0034 31.2075C29.4915 30.9584 30.2485 30.5102 30.6967 30.2114C31.145 29.9125 31.7327 29.5838 31.9917 29.4743C32.8184 29.1456 33.7946 28.6276 34.7708 27.9801C35.9461 27.2032 37.9483 25.2209 38.4463 24.3444L38.795 23.7268L39.3827 23.667C41.5143 23.4479 42.869 21.4856 42.2813 19.4635C41.7335 17.5709 40.4585 16.3756 38.546 15.9772C36.2848 15.509 34.7708 16.8239 34.711 19.3241C34.701 19.842 34.6313 20.4696 34.5715 20.7086C34.5018 20.9477 34.4122 21.7247 34.3624 22.4518C34.3126 23.169 34.203 24.0057 34.1133 24.3045C33.7547 25.4799 32.918 26.8247 31.9817 27.7311L31.4836 28.2192L31.7227 27.512C32.0415 26.5856 32.2008 25.2409 32.1211 24.3245C32.0514 23.5276 31.892 23.2786 31.4836 23.3284C31.2844 23.3483 31.1649 23.4778 30.9358 23.9061C30.0094 25.6792 28.9336 27.004 27.8479 27.7112C27.1606 28.1594 26.792 28.1893 26.5131 27.8407C26.3538 27.6415 26.3139 27.3625 26.2542 26.2967C26.1645 24.7528 26.2641 24.2149 26.792 23.2387C27.1905 22.4817 27.7881 21.9936 28.5153 21.8143C30.129 21.4159 32.2506 20.4995 32.5096 20.101C32.5594 20.0213 32.5694 19.8321 32.5295 19.6926C32.42 19.2344 32.1211 19.2643 30.876 19.862C30.2485 20.1608 29.5612 20.4497 29.352 20.5094L28.9735 20.609L29.3819 20.1608C29.8301 19.6727 30.1688 19.0153 30.1788 18.6268C30.1887 18.1985 30.7366 16.7641 31.135 16.1366L31.5235 15.5389H32.1311C33.2766 15.5389 34.4122 15.0309 35.1094 14.2141C35.4979 13.7659 35.5477 13.4571 35.2788 13.218C34.9899 12.959 34.8006 13.0188 34.3424 13.5069C33.7249 14.1643 33.0774 14.4731 32.2706 14.4831C31.404 14.4831 30.9059 14.234 30.0294 13.3375C29.6508 12.9491 29.1528 12.5008 28.9336 12.3514C27.9376 11.6641 26.6825 11.2358 25.3477 11.1063C24.4711 11.0266 23.9532 10.7975 23.485 10.2795C23.0069 9.75161 22.8475 9.1938 23.0069 8.57622C23.3754 7.102 24.511 6.27524 26.2542 6.19556C27.5989 6.13579 28.4754 6.45454 29.87 7.52036C30.8063 8.22759 31.5434 8.6061 32.5395 8.87505C33.3264 9.08423 34.0237 9.4229 34.2628 9.70181C34.4122 9.89107 34.8704 9.91099 35.0397 9.74165C35.2788 9.50259 35.1792 9.09419 34.7907 8.77544C34.3026 8.377 33.7946 8.13794 32.8383 7.87896C31.8422 7.61001 31.5235 7.44067 30.4477 6.63384C29.9596 6.27524 29.2823 5.84692 28.9237 5.67759C27.7483 5.10982 26.3538 4.95044 25.1784 5.23931ZM25.2282 12.4909C24.9094 12.8893 24.7999 12.9292 24.7999 12.6602C24.7999 12.5506 24.77 12.4012 24.7401 12.3116C24.6903 12.1821 24.76 12.1522 25.0987 12.1522H25.517L25.2282 12.4909ZM27.4096 12.6901C27.6985 12.8196 28.1667 13.0985 28.4555 13.3077L28.9735 13.6961L28.9137 14.742C28.8838 15.3596 28.9137 16.1067 28.9835 16.5848C29.3022 18.7065 29.3022 18.7065 27.8479 20.2206C27.2403 20.8481 26.5629 21.625 26.3538 21.9438C26.1346 22.2526 25.9553 22.5016 25.9354 22.4917C25.9254 22.4717 25.8458 21.9239 25.7561 21.2665C25.6665 20.609 25.4573 19.1747 25.2879 18.079C24.8198 15.0309 24.9294 14.3635 26.1247 13.0786C26.4534 12.7399 26.7522 12.451 26.802 12.451C26.8518 12.451 27.1208 12.5606 27.4096 12.6901ZM30.3083 14.9811C30.5274 15.1504 30.5274 15.1803 30.2286 15.6186L29.9795 15.9872V15.4094C29.9795 14.8118 30.0194 14.762 30.3083 14.9811ZM39.1835 17.2622C39.8807 17.5809 40.2891 17.9096 40.7075 18.4973C41.8032 20.0313 41.4645 21.8542 39.9704 22.4817C39.4823 22.6809 38.546 22.6411 37.8885 22.402C37.0817 22.1032 36.2549 21.2665 35.9561 20.4696C35.5676 19.4237 35.7868 17.9793 36.4143 17.4116C37.0518 16.8438 38.1276 16.784 39.1835 17.2622ZM24.8895 22.9598C24.9991 23.9459 25.1485 25.47 25.2083 26.3465C25.268 27.2331 25.3776 28.0499 25.4473 28.1893C25.7163 28.7073 26.4733 29.1854 27.0211 29.1854C27.7782 29.1854 29.5612 27.8606 30.5374 26.5657L31.0055 25.9481L30.9358 26.3864C30.7665 27.4821 30.0592 28.8168 29.2424 29.5639C29.0133 29.7731 28.4954 30.1715 28.087 30.4504C27.1805 31.068 26.9713 31.2872 26.6725 31.9247C26.4534 32.4028 26.4434 32.5223 26.4434 34.9129C26.4434 38.6483 26.6626 40.0428 27.2403 40.0428C27.32 40.0428 27.6487 39.7838 27.9774 39.4651C28.6647 38.7877 29.4516 38.3395 30.4776 38.0606C31.4538 37.7917 32.8483 37.0944 33.7049 36.437C34.9102 35.5206 34.8305 35.5504 34.5616 36.0584C34.2628 36.5864 33.2866 37.5924 32.6491 38.0307C32.3901 38.21 31.8622 38.479 31.4737 38.6383C30.4975 39.0368 29.8799 39.4551 29.1827 40.2022C28.2463 41.2083 27.9774 41.8557 27.7881 43.4993C27.6487 44.7743 27.7981 46.0792 28.2463 47.3641C28.4356 47.912 28.6149 48.4399 28.6448 48.5295C28.7045 48.6989 28.5551 48.7088 26.5032 48.7088C25.2979 48.7088 24.3018 48.6889 24.3018 48.659C24.3018 48.6292 24.3915 48.4299 24.4911 48.2307C24.8198 47.5833 24.9393 46.6668 24.9393 44.8241C24.9393 42.7422 24.7202 41.0489 24.3417 40.2719C24.0329 39.6344 23.5647 39.226 22.4989 38.6483C21.8813 38.3196 21.4231 37.9709 20.7458 37.2936C19.8393 36.3971 19.5305 35.9389 20.0983 36.3374C20.8454 36.8653 22.3395 37.4629 23.4253 37.6522C23.9233 37.7418 24.0528 37.7418 24.262 37.6024C24.4711 37.4629 24.501 37.3733 24.501 36.8055C24.501 35.8393 24.2321 33.9965 23.9532 33.0204C23.5846 31.7454 23.0567 30.7592 22.3295 29.9723C21.7618 29.3547 21.5526 29.2153 20.2876 28.5977C19.4807 28.1993 18.6838 27.7311 18.4249 27.502L17.9766 27.0936L18.3352 27.2331C18.5245 27.3127 19.2417 27.5418 19.929 27.7411C21.3733 28.1594 22.1901 28.518 23.0069 29.0958C23.4253 29.3846 23.6444 29.4842 23.7938 29.4344C24.1424 29.3249 24.1922 29.0858 24.0727 28.2391C23.9233 27.1633 23.9333 22.4618 24.0827 20.868C24.3018 18.6368 24.3118 18.6069 24.511 19.9715C24.6106 20.629 24.7799 21.9737 24.8895 22.9598ZM16.5622 19.2444C17.1001 19.4038 17.6778 19.9715 17.8172 20.4696C18.136 21.635 17.6379 22.4717 16.0641 23.3881C15.337 23.8165 14.7094 24.3743 13.9026 25.3405C13.3348 26.0079 12.9165 26.227 12.1794 26.217C11.4721 26.217 11.0538 26.0577 10.6753 25.6692C9.80865 24.7727 9.75885 23.159 10.5657 21.7545C11.243 20.5692 12.7272 19.4735 14.0719 19.1647C14.7592 19.0153 15.9047 19.0452 16.5622 19.2444ZM37.1813 23.2387C37.4403 23.3583 37.6495 23.5077 37.6495 23.5674C37.6495 23.7667 36.743 24.9321 36.1155 25.5397C35.5378 26.0975 34.8405 26.6553 34.0635 27.1932L33.7149 27.4422L33.8942 27.1633C34.701 25.9182 35.1194 24.8922 35.3485 23.5674C35.4083 23.2487 35.5477 22.8403 35.6672 22.651L35.8764 22.3124L36.2848 22.6709C36.5139 22.8602 36.9124 23.1192 37.1813 23.2387ZM15.7553 25.5795C15.8549 25.8485 16.1737 26.3963 16.4725 26.8147L17.0104 27.5717L16.6518 27.6315C15.8549 27.761 14.57 27.6913 13.9026 27.492C13.544 27.3725 13.2452 27.243 13.2452 27.2032C13.2452 27.1534 13.3946 27.0538 13.5739 26.984C13.9823 26.8147 14.6397 26.2071 15.0979 25.5795C15.2971 25.3206 15.4864 25.1014 15.5262 25.1014C15.5561 25.1014 15.6657 25.3206 15.7553 25.5795ZM40.0102 34.8333C40.2493 34.9428 40.4286 35.1321 40.5481 35.401C40.7772 35.909 40.7772 36.0883 40.568 36.5266C40.3588 36.9649 39.9006 37.2538 39.4126 37.2538C38.2172 37.2538 37.6594 35.9588 38.4762 35.0723C38.8846 34.634 39.4225 34.5543 40.0102 34.8333Z" fill="black"/>
<path id="Vector_5" d="M35.1205 10.9771C34.8017 11.4353 35.0109 11.9731 35.5089 11.9731C35.8177 11.9731 36.0568 11.7341 36.0568 11.4054C36.0568 11.0966 35.7779 10.7579 35.5089 10.7579C35.3794 10.7579 35.2001 10.8575 35.1205 10.9771Z" fill="black"/>
<path id="Vector_6" d="M2.98717 18.2583C2.44928 18.4277 1.66237 19.2744 1.50299 19.8521C0.965102 21.7646 2.58873 23.4978 4.40162 22.9699C5.36784 22.691 6.10495 21.8443 6.23444 20.888C6.37389 19.9119 5.71647 18.7165 4.82995 18.3181C4.3817 18.1089 3.53502 18.089 2.98717 18.2583ZM4.44147 19.2843C5.15866 19.623 5.41764 20.8083 4.91959 21.416C4.11276 22.3722 2.86764 22.1531 2.48913 20.9876C2.33971 20.5195 2.42936 20.1011 2.76803 19.7027C3.2362 19.1548 3.84381 18.9954 4.44147 19.2843Z" fill="black"/>
<path id="Vector_7" d="M46.2165 24.1255C45.3599 24.5638 44.9017 25.6694 45.1208 26.795C45.3698 28.1099 46.6947 28.7972 48.1191 28.3788C49.3144 28.0202 49.932 26.6655 49.414 25.5499C48.7665 24.1653 47.372 23.5477 46.2165 24.1255ZM47.7206 25.1315C48.0792 25.3706 48.4777 25.8985 48.5673 26.2571C48.637 26.546 48.4279 26.9743 48.0991 27.2233C47.9099 27.3528 47.6509 27.4225 47.2624 27.4325C46.7445 27.4425 46.6747 27.4126 46.4058 27.1138C46.1767 26.8647 46.1169 26.6954 46.1169 26.3567C46.1169 25.7392 46.2962 25.3108 46.6548 25.0917C47.0632 24.8427 47.3122 24.8526 47.7206 25.1315Z" fill="black"/>
<path id="Vector_8" d="M13.5653 39.8039C12.1608 40.5011 11.852 42.4136 12.9577 43.5193C13.6052 44.1568 14.9499 44.4357 15.7667 44.097C16.2149 43.8978 16.8026 43.2205 16.9421 42.7125C17.48 40.6904 15.3981 38.8875 13.5653 39.8039ZM15.3184 40.8099C15.8762 41.1586 16.1153 42.1048 15.7866 42.7224C15.428 43.4297 13.894 43.3002 13.4956 42.5332C12.868 41.3179 14.1729 40.0828 15.3184 40.8099Z" fill="black"/>
<path id="Vector_9" d="M14.4813 45.9697C13.6844 46.1391 12.9871 46.5076 12.5389 46.9857C11.9611 47.6033 11.8516 47.8125 11.8516 48.3703C11.8516 49.0178 12.1404 49.476 12.748 49.7748C13.1664 49.9939 13.2959 50.0039 15.6367 50.0039C18.366 50.0039 18.6748 49.9342 19.123 49.3066C19.6609 48.5596 19.4518 47.6332 18.5852 46.8363C17.6189 45.9498 16.075 45.6211 14.4813 45.9697ZM16.9217 47.0754C17.4795 47.2348 18.1867 47.7926 18.3361 48.191C18.4059 48.3703 18.3859 48.4998 18.2764 48.6691L18.127 48.9082H15.6467C13.3258 48.9082 13.1664 48.8982 12.9971 48.709C12.8875 48.5895 12.8477 48.4301 12.8775 48.2906C12.9771 47.9121 13.6844 47.3045 14.2621 47.1053C14.9295 46.8762 16.2045 46.8562 16.9217 47.0754Z" fill="black"/>
</g>
</g>
</svg>
